<svg width="59" height="59" viewBox="0 0 59 59" fill="none" xmlns="http://www.w3.org/2000/svg">
<path d="M57.3715 1.52909V56.6527H2.24784V1.52909H57.3715ZM57.3715 0H2.24784C1.40684 0 0.71875 0.68809 0.71875 1.52909V56.6527C0.71875 57.4937 1.40684 58.1818 2.24784 58.1818H57.3715C58.2125 58.1818 58.9006 57.4937 58.9006 56.6527V1.52909C58.9006 0.68809 58.2125 0 57.3715 0Z" fill="#F4976E"/>
<path d="M30.6139 16.8969C30.6139 16.2852 30.3845 15.7501 30.0022 15.3678C30.3845 14.9855 30.6139 14.4503 30.6139 13.8387C30.6139 12.7683 29.9258 11.9273 29.0083 11.6215C28.2438 8.02816 25.1091 5.42871 21.3629 5.42871H15.323C11.5767 5.42871 8.44207 8.10462 7.75398 11.6215C6.83653 11.9273 6.14844 12.7683 6.14844 13.8387C6.14844 14.4503 6.3778 14.9855 6.76007 15.3678C6.3778 15.7501 6.14844 16.2852 6.14844 16.8969C6.14844 17.9672 6.83653 18.8082 7.75398 19.1141C8.44207 22.7074 11.6532 25.3069 15.323 25.3069H21.3629C25.0327 25.3069 28.2438 22.631 28.9319 19.1141C29.9258 18.8082 30.6139 17.8908 30.6139 16.8969ZM15.323 6.9578H21.3629C24.1917 6.9578 26.6382 8.86916 27.3263 11.5451H27.0205L26.8676 11.3922C26.4853 11.0099 25.9501 10.7805 25.415 10.7805H24.9562C24.421 10.7805 23.8859 11.0099 23.5036 11.3922C23.4271 11.4686 23.2742 11.5451 23.1213 11.5451H22.6626C22.5097 11.5451 22.3568 11.4686 22.2803 11.3922C21.8981 11.0099 21.3629 10.7805 20.8277 10.7805H20.369C19.8338 10.7805 19.2986 11.0099 18.9163 11.3922C18.8399 11.4686 18.687 11.5451 18.5341 11.5451H18.0753C17.9224 11.5451 17.7695 11.4686 17.6931 11.3922C17.3108 11.0099 16.7756 10.7805 16.2404 10.7805H15.7817C15.2465 10.7805 14.7113 11.0099 14.3291 11.3922C14.2526 11.4686 14.0997 11.5451 13.9468 11.5451H13.4881C13.3352 11.5451 13.1822 11.4686 13.1058 11.3922C12.7235 11.0099 12.1883 10.7805 11.6532 10.7805H11.1944C10.6592 10.7805 10.1241 11.0099 9.7418 11.3922L9.58889 11.5451H9.28307C10.0476 8.86916 12.4942 6.9578 15.323 6.9578ZM8.44207 13.0742H10.277L10.8886 12.4625C10.9651 12.3861 11.118 12.3096 11.2709 12.3096H11.7296C11.8825 12.3096 12.0354 12.3861 12.1119 12.4625C12.4942 12.8448 13.0293 13.0742 13.5645 13.0742H14.0232C14.5584 13.0742 15.0936 12.8448 15.4759 12.4625C15.5523 12.3861 15.7052 12.3096 15.8581 12.3096H16.3169C16.4698 12.3096 16.6227 12.3861 16.6991 12.4625C17.0814 12.8448 17.6166 13.0742 18.1518 13.0742H18.6105C19.1457 13.0742 19.6809 12.8448 20.0631 12.4625C20.1396 12.3861 20.2925 12.3096 20.4454 12.3096H20.9041C21.0571 12.3096 21.21 12.3861 21.2864 12.4625C21.6687 12.8448 22.2039 13.0742 22.739 13.0742H23.1978C23.733 13.0742 24.2681 12.8448 24.6504 12.4625C24.7269 12.3861 24.8798 12.3096 25.0327 12.3096H25.4914C25.6443 12.3096 25.7972 12.3861 25.8737 12.4625L26.4853 13.0742H28.3202C28.7789 13.0742 29.0848 13.38 29.0848 13.8387C29.0848 14.2974 28.7789 14.6032 28.3202 14.6032H8.44207C7.98334 14.6032 7.67753 14.2974 7.67753 13.8387C7.67753 13.38 7.98334 13.0742 8.44207 13.0742ZM8.44207 16.1323H28.3202C28.7789 16.1323 29.0848 16.4381 29.0848 16.8969C29.0848 17.3556 28.7789 17.6614 28.3202 17.6614H8.44207C7.98334 17.6614 7.67753 17.3556 7.67753 16.8969C7.67753 16.4381 7.98334 16.1323 8.44207 16.1323ZM21.3629 23.7778H15.323C12.4942 23.7778 10.0476 21.8664 9.35952 19.1905H27.4028C26.6382 21.8664 24.1917 23.7778 21.3629 23.7778Z" fill="#F4976E"/>
<path d="M51.8655 39.145C51.1774 35.5516 47.9663 32.9521 44.2965 32.9521H38.2566C34.5867 32.9521 31.3757 35.6281 30.6876 39.145C29.7701 39.4508 29.082 40.2918 29.082 41.3621C29.082 41.9738 29.3114 42.509 29.6937 42.8912C29.3114 43.2735 29.082 43.8087 29.082 44.4203C29.082 45.4907 29.7701 46.3317 30.6876 46.6375C31.3757 50.2308 34.5867 52.8303 38.2566 52.8303H44.2965C47.9663 52.8303 51.1774 50.1544 51.8655 46.6375C52.7829 46.3317 53.471 45.4907 53.471 44.4203C53.471 43.8087 53.2416 43.2735 52.8594 42.8912C53.2416 42.509 53.471 41.9738 53.471 41.3621C53.5474 40.2918 52.8594 39.4508 51.8655 39.145ZM38.2566 34.4812H44.2965C47.1253 34.4812 49.5718 36.3926 50.2599 39.0685H49.9541L49.8012 38.9156C49.4189 38.5333 48.8837 38.304 48.3485 38.304H47.8898C47.3546 38.304 46.8195 38.5333 46.4372 38.9156C46.3607 38.9921 46.2078 39.0685 46.0549 39.0685H45.5962C45.4433 39.0685 45.2904 38.9921 45.2139 38.9156C44.8316 38.5333 44.2965 38.304 43.7613 38.304H43.3026C42.7674 38.304 42.2322 38.5333 41.8499 38.9156C41.7735 38.9921 41.6206 39.0685 41.4676 39.0685H41.0089C40.856 39.0685 40.7031 38.9921 40.6267 38.9156C40.2444 38.5333 39.7092 38.304 39.174 38.304H38.7153C38.1801 38.304 37.6449 38.5333 37.2627 38.9156C37.1862 38.9921 37.0333 39.0685 36.8804 39.0685H36.4217C36.2687 39.0685 36.1158 38.9921 36.0394 38.9156C35.6571 38.5333 35.1219 38.304 34.5868 38.304H34.128C33.5928 38.304 33.0577 38.5333 32.6754 38.9156L32.5225 39.0685H32.2167C32.9812 36.3926 35.4277 34.4812 38.2566 34.4812ZM31.3757 40.5976H33.2106L33.8222 39.986C33.8987 39.9095 34.0516 39.833 34.2045 39.833H34.6632C34.8161 39.833 34.969 39.9095 35.0455 39.986C35.4278 40.3682 35.9629 40.5976 36.4981 40.5976H36.9568C37.492 40.5976 38.0272 40.3682 38.4095 39.986C38.4859 39.9095 38.6388 39.833 38.7917 39.833H39.2505C39.4034 39.833 39.5563 39.9095 39.6327 39.986C40.015 40.3682 40.5502 40.5976 41.0854 40.5976H41.5441C42.0793 40.5976 42.6145 40.3682 42.9967 39.986C43.0732 39.9095 43.2261 39.833 43.379 39.833H43.8377C43.9906 39.833 44.1436 39.9095 44.22 39.986C44.6023 40.3682 45.1375 40.5976 45.6726 40.5976H46.1314C46.6666 40.5976 47.2017 40.3682 47.584 39.986C47.6605 39.9095 47.8134 39.833 47.9663 39.833H48.425C48.5779 39.833 48.7308 39.9095 48.8073 39.986L49.4189 40.5976H51.2538C51.7125 40.5976 52.0184 40.9034 52.0184 41.3621C52.0184 41.8209 51.7125 42.1267 51.2538 42.1267H31.3757C30.9169 42.1267 30.6111 41.8209 30.6111 41.3621C30.6111 40.9034 30.9169 40.5976 31.3757 40.5976ZM44.2965 51.3012H38.2566C35.4277 51.3012 32.9812 49.3898 32.2931 46.7139H50.3364C49.5718 49.3898 47.1253 51.3012 44.2965 51.3012ZM51.2538 45.1849H31.3757C30.9169 45.1849 30.6111 44.879 30.6111 44.4203C30.6111 43.9616 30.9169 43.6558 31.3757 43.6558H51.2538C51.7125 43.6558 52.0184 43.9616 52.0184 44.4203C52.0184 44.879 51.6361 45.1849 51.2538 45.1849Z" fill="#F4976E"/>
<path d="M19.7557 29.9698C19.4498 29.0523 18.6088 28.3643 17.5385 28.3643C16.9268 28.3643 16.3917 28.5936 16.0094 28.9759C15.6271 28.5936 15.0919 28.3643 14.4803 28.3643C13.4099 28.3643 12.5689 29.0523 12.2631 29.9698C8.66976 30.6579 6.07031 33.869 6.07031 37.5388V43.5787C6.07031 47.2485 8.74622 50.4596 12.2631 51.1477C12.5689 52.0651 13.4099 52.7532 14.4803 52.7532C15.0919 52.7532 15.6271 52.5239 16.0094 52.1416C16.3917 52.5239 16.9268 52.7532 17.5385 52.7532C18.6088 52.7532 19.4498 52.0651 19.7557 51.1477C23.349 50.4596 25.9485 47.2485 25.9485 43.5787V37.5388C26.0249 33.869 23.349 30.6579 19.7557 29.9698ZM7.67586 43.5787V37.5388C7.67586 34.71 9.58722 32.2634 12.2631 31.5753V31.8812L12.1102 32.0341C11.7279 32.4163 11.4986 32.9515 11.4986 33.4867V33.9454C11.4986 34.4806 11.7279 35.0158 12.1102 35.3981C12.1867 35.4745 12.2631 35.6274 12.2631 35.7803V36.2391C12.2631 36.392 12.1867 36.5449 12.1102 36.6213C11.7279 37.0036 11.4986 37.5388 11.4986 38.074V38.5327C11.4986 39.0679 11.7279 39.6031 12.1102 39.9853C12.1867 40.0618 12.2631 40.2147 12.2631 40.3676V40.8263C12.2631 40.9792 12.1867 41.1322 12.1102 41.2086C11.7279 41.5909 11.4986 42.1261 11.4986 42.6612V43.12C11.4986 43.6551 11.7279 44.1903 12.1102 44.5726C12.1867 44.6491 12.2631 44.802 12.2631 44.9549V45.4136C12.2631 45.5665 12.1867 45.7194 12.1102 45.7959C11.7279 46.1781 11.4986 46.7133 11.4986 47.2485V47.7072C11.4986 48.2424 11.7279 48.7776 12.1102 49.1599L12.2631 49.3128V49.6186C9.58722 48.854 7.67586 46.4075 7.67586 43.5787ZM14.5568 51.3006C14.098 51.3006 13.7922 50.9948 13.7922 50.536V48.7011L13.1806 48.0895C13.1041 48.013 13.0277 47.8601 13.0277 47.7072V47.2485C13.0277 47.0956 13.1041 46.9427 13.1806 46.8662C13.5628 46.484 13.7922 45.9488 13.7922 45.4136V44.9549C13.7922 44.4197 13.5628 43.8845 13.1806 43.5022C13.1041 43.4258 13.0277 43.2729 13.0277 43.12V42.6612C13.0277 42.5083 13.1041 42.3554 13.1806 42.279C13.5628 41.8967 13.7922 41.3615 13.7922 40.8263V40.3676C13.7922 39.8324 13.5628 39.2972 13.1806 38.915C13.1041 38.8385 13.0277 38.6856 13.0277 38.5327V38.074C13.0277 37.9211 13.1041 37.7682 13.1806 37.6917C13.5628 37.3094 13.7922 36.7742 13.7922 36.2391V35.7803C13.7922 35.2452 13.5628 34.71 13.1806 34.3277C13.1041 34.2513 13.0277 34.0983 13.0277 33.9454V33.4867C13.0277 33.3338 13.1041 33.1809 13.1806 33.1044L13.7922 32.4928V30.6579C13.7922 30.1992 14.098 29.8933 14.5568 29.8933C15.0155 29.8933 15.3213 30.1992 15.3213 30.6579V50.536C15.3213 50.9183 14.939 51.3006 14.5568 51.3006ZM18.3795 50.536C18.3795 50.9948 18.0737 51.3006 17.6149 51.3006C17.1562 51.3006 16.8504 50.9948 16.8504 50.536V30.6579C16.8504 30.1992 17.1562 29.8933 17.6149 29.8933C18.0737 29.8933 18.3795 30.1992 18.3795 30.6579V50.536ZM24.4958 43.5787C24.4958 46.4075 22.5845 48.854 19.9086 49.5421V31.5753C22.5845 32.2634 24.4958 34.71 24.4958 37.5388V43.5787Z" fill="#F4976E"/>
<path d="M47.2791 7.03425C46.9733 6.1168 46.1323 5.42871 45.0619 5.42871C44.4503 5.42871 43.9151 5.65807 43.5328 6.04035C43.1506 5.65807 42.6154 5.42871 42.0037 5.42871C40.9334 5.42871 40.0924 6.1168 39.7866 7.03425C36.1932 7.72234 33.5938 10.9334 33.5938 14.6032V20.6431C33.5938 24.313 36.2697 27.524 39.7866 28.2121C40.0924 29.1296 40.9334 29.8177 42.0037 29.8177C42.6154 29.8177 43.1506 29.5883 43.5328 29.206C43.9151 29.5883 44.4503 29.8177 45.0619 29.8177C46.1323 29.8177 46.9733 29.1296 47.2791 28.2121C50.8725 27.524 53.4719 24.313 53.4719 20.6431V14.6032C53.5484 10.9334 50.8725 7.72234 47.2791 7.03425ZM35.1993 20.6431V14.6032C35.1993 11.7744 37.1107 9.32789 39.7866 8.6398V26.683C37.1107 25.9185 35.1993 23.472 35.1993 20.6431ZM42.0802 28.365C41.6215 28.365 41.3156 28.0592 41.3156 27.6005V7.72234C41.3156 7.26362 41.6215 6.9578 42.0802 6.9578C42.5389 6.9578 42.8447 7.26362 42.8447 7.72234V27.6005C42.8447 27.9828 42.4625 28.365 42.0802 28.365ZM45.9029 25.7656V27.6005C45.9029 28.0592 45.5971 28.365 45.1384 28.365C44.6796 28.365 44.3738 28.0592 44.3738 27.6005V7.72234C44.3738 7.26362 44.6796 6.9578 45.1384 6.9578C45.5971 6.9578 45.9029 7.26362 45.9029 7.72234V9.55725L46.5146 10.1689C46.591 10.2453 46.6675 10.3982 46.6675 10.5512V11.0099C46.6675 11.1628 46.591 11.3157 46.5146 11.3922C46.1323 11.7744 45.9029 12.3096 45.9029 12.8448V13.3035C45.9029 13.8387 46.1323 14.3739 46.5146 14.7561C46.591 14.8326 46.6675 14.9855 46.6675 15.1384V15.5971C46.6675 15.7501 46.591 15.903 46.5146 15.9794C46.1323 16.3617 45.9029 16.8969 45.9029 17.4321V17.8908C45.9029 18.426 46.1323 18.9611 46.5146 19.3434C46.591 19.4199 46.6675 19.5728 46.6675 19.7257V20.1844C46.6675 20.3373 46.591 20.4902 46.5146 20.5667C46.1323 20.949 45.9029 21.4841 45.9029 22.0193V22.478C45.9029 23.0132 46.1323 23.5484 46.5146 23.9307C46.591 24.0071 46.6675 24.16 46.6675 24.313V24.7717C46.6675 24.9246 46.591 25.0775 46.5146 25.154L45.9029 25.7656ZM52.0193 20.6431C52.0193 23.472 50.1079 25.9185 47.432 26.6066V26.3008L47.5849 26.1479C47.9672 25.7656 48.1965 25.2304 48.1965 24.6952V24.2365C48.1965 23.7013 47.9672 23.1661 47.5849 22.7839C47.5085 22.7074 47.432 22.5545 47.432 22.4016V21.9429C47.432 21.79 47.5085 21.637 47.5849 21.5606C47.9672 21.1783 48.1965 20.6431 48.1965 20.108V19.6492C48.1965 19.1141 47.9672 18.5789 47.5849 18.1966C47.5085 18.1201 47.432 17.9672 47.432 17.8143V17.3556C47.432 17.2027 47.5085 17.0498 47.5849 16.9733C47.9672 16.5911 48.1965 16.0559 48.1965 15.5207V15.062C48.1965 14.5268 47.9672 13.9916 47.5849 13.6093C47.5085 13.5329 47.432 13.38 47.432 13.2271V12.7683C47.432 12.6154 47.5085 12.4625 47.5849 12.3861C47.9672 12.0038 48.1965 11.4686 48.1965 10.9334V10.4747C48.1965 9.93952 47.9672 9.40434 47.5849 9.02207L47.432 8.86916V8.56334C50.1079 9.25143 52.0193 11.698 52.0193 14.5268V20.6431Z" fill="#F4976E"/>
</svg>
