<svg width="71" height="56" viewBox="0 0 71 56" fill="none" xmlns="http://www.w3.org/2000/svg">
<path d="M44.5745 5.57298C43.9623 2.40808 41.1051 0 37.8398 0H32.4657C29.2004 0 26.3432 2.40808 25.731 5.57298C24.8466 5.84818 24.2344 6.60501 24.2344 7.56824C24.2344 8.11866 24.4385 8.60027 24.7786 8.94428C24.4385 9.28829 24.2344 9.76991 24.2344 10.3203C24.2344 11.2836 24.8466 12.0404 25.6629 12.3156C26.2752 15.5493 29.1323 17.8886 32.3976 17.8886H37.7718C41.0371 17.8886 43.8942 15.4805 44.5065 12.3156C45.3228 12.0404 45.935 11.2836 45.935 10.3203C45.935 9.76991 45.731 9.28829 45.3908 8.94428C45.731 8.60027 45.935 8.11866 45.935 7.56824C46.0031 6.60501 45.3908 5.84818 44.5745 5.57298ZM32.4657 1.37604H37.8398C40.3568 1.37604 42.5337 3.0961 43.1459 5.50417H42.8738L42.7378 5.36657C42.3976 5.02256 41.9895 4.81615 41.4453 4.81615H41.0371C40.5609 4.81615 40.0847 5.02256 39.7446 5.36657C39.6765 5.43537 39.5405 5.50417 39.4044 5.50417H38.9963C38.8602 5.50417 38.7242 5.43537 38.6561 5.36657C38.316 5.02256 37.9078 4.81615 37.3636 4.81615H36.9555C36.4793 4.81615 36.0031 5.02256 35.6629 5.36657C35.5949 5.43537 35.4589 5.50417 35.3228 5.50417H34.9146C34.7786 5.50417 34.6425 5.43537 34.5745 5.36657C34.2344 5.02256 33.8262 4.81615 33.282 4.81615H32.8738C32.3976 4.81615 31.9214 5.02256 31.5813 5.36657C31.5133 5.43537 31.3772 5.50417 31.2412 5.50417H30.833C30.697 5.50417 30.5609 5.43537 30.4929 5.36657C30.1527 5.02256 29.7446 4.81615 29.2004 4.81615H28.7922C28.316 4.81615 27.8398 5.02256 27.4997 5.36657L27.3636 5.50417H27.0915C27.7718 3.0961 29.9487 1.37604 32.4657 1.37604ZM26.2752 6.88022H27.9078L28.4521 6.3298C28.5881 6.261 28.7242 6.19219 28.7922 6.19219H29.2004C29.3364 6.19219 29.4725 6.261 29.5405 6.3298C29.8806 6.67381 30.3568 6.88022 30.833 6.88022H31.2412C31.7174 6.88022 32.1936 6.67381 32.5337 6.3298C32.6697 6.261 32.8058 6.19219 32.8738 6.19219H33.282C33.418 6.19219 33.5541 6.261 33.6221 6.3298C33.9623 6.67381 34.4385 6.88022 34.9146 6.88022H35.3228C35.799 6.88022 36.2752 6.67381 36.6153 6.3298C36.7514 6.261 36.8874 6.19219 36.9555 6.19219H37.3636C37.4997 6.19219 37.6357 6.261 37.7038 6.3298C38.0439 6.67381 38.5201 6.88022 38.9963 6.88022H39.4044C39.8806 6.88022 40.3568 6.67381 40.697 6.3298C40.833 6.261 40.9691 6.19219 41.0371 6.19219H41.4453C41.5813 6.19219 41.7174 6.261 41.7854 6.3298L42.3296 6.88022H43.9623C44.3704 6.88022 44.6425 7.15543 44.6425 7.56824C44.6425 7.98105 44.3704 8.25626 43.9623 8.25626H26.2752C25.867 8.25626 25.5949 7.98105 25.5949 7.56824C25.5949 7.15543 25.9351 6.88022 26.2752 6.88022ZM37.8398 16.5125H32.4657C29.9487 16.5125 27.7718 14.7925 27.1595 12.3844H43.214C42.5337 14.7925 40.3568 16.5125 37.8398 16.5125ZM43.9623 11.0083H26.2752C25.867 11.0083 25.5949 10.7331 25.5949 10.3203C25.5949 9.90751 25.867 9.6323 26.2752 9.6323H43.9623C44.3704 9.6323 44.6425 9.90751 44.6425 10.3203C44.6425 10.7331 44.3704 11.0083 43.9623 11.0083Z" fill="#E67285"/>
<path d="M20.6956 43.1394C20.0834 39.9057 17.2262 37.5664 13.9609 37.5664H8.58676C5.32145 37.5664 2.46431 39.9745 1.85207 43.1394C0.967714 43.4146 0.355469 44.1714 0.355469 45.1346C0.355469 45.6851 0.55955 46.1667 0.899686 46.5107C0.55955 46.8547 0.355469 47.3363 0.355469 47.8867C0.355469 48.85 0.967713 49.6068 1.78404 49.882C2.39628 53.1157 5.25343 55.455 8.51873 55.455H13.8929C17.1582 55.455 20.0153 53.0469 20.6276 49.882C21.4439 49.6068 22.0561 48.85 22.0561 47.8867C22.0561 47.3363 21.8521 46.8547 21.5119 46.5107C21.8521 46.1667 22.0561 45.6851 22.0561 45.1346C22.1242 44.1714 21.5119 43.4146 20.6956 43.1394ZM8.58676 38.9424H13.9609C16.4779 38.9424 18.6548 40.6625 19.267 43.0706H18.9949L18.8589 42.933C18.5187 42.589 18.0425 42.3826 17.5664 42.3826H17.1582C16.682 42.3826 16.2058 42.589 15.8657 42.933C15.7976 43.0018 15.6616 43.0706 15.5255 43.0706H15.1174C14.9813 43.0706 14.8453 43.0018 14.7772 42.933C14.4371 42.589 13.9609 42.3826 13.4847 42.3826H13.0766C12.6004 42.3826 12.1242 42.589 11.784 42.933C11.716 43.0018 11.58 43.0706 11.4439 43.0706H11.0357C10.8997 43.0706 10.7636 43.0018 10.6956 42.933C10.3555 42.589 9.87928 42.3826 9.40309 42.3826H8.99492C8.51873 42.3826 8.04254 42.589 7.70241 42.933C7.63438 43.0018 7.49833 43.0706 7.36227 43.0706H6.95411C6.81805 43.0706 6.682 43.0018 6.61397 42.933C6.27384 42.589 5.79765 42.3826 5.32145 42.3826H4.91329C4.4371 42.3826 3.96091 42.589 3.62077 42.933L3.48472 43.0706H3.21261C3.89288 40.6625 6.06975 38.9424 8.58676 38.9424ZM2.39628 44.4466H4.02894L4.57316 43.8962C4.64118 43.8274 4.77724 43.7586 4.91329 43.7586H5.32145C5.45751 43.7586 5.59356 43.8274 5.66159 43.8962C6.00173 44.2402 6.47792 44.4466 6.95411 44.4466H7.36227C7.83846 44.4466 8.31465 44.2402 8.65479 43.8962C8.72281 43.8274 8.85887 43.7586 8.99492 43.7586H9.40309C9.53914 43.7586 9.6752 43.8274 9.74322 43.8962C10.0834 44.2402 10.5595 44.4466 11.0357 44.4466H11.4439C11.9201 44.4466 12.3963 44.2402 12.7364 43.8962C12.8044 43.8274 12.9405 43.7586 13.0766 43.7586H13.4847C13.6208 43.7586 13.7568 43.8274 13.8249 43.8962C14.165 44.2402 14.6412 44.4466 15.1174 44.4466H15.5255C16.0017 44.4466 16.4779 44.2402 16.8181 43.8962C16.8861 43.8274 17.0221 43.7586 17.1582 43.7586H17.5664C17.7024 43.7586 17.8385 43.8274 17.9065 43.8962L18.4507 44.4466H20.0834C20.4915 44.4466 20.7636 44.7218 20.7636 45.1346C20.7636 45.5475 20.4915 45.8227 20.0834 45.8227H2.39628C1.98812 45.8227 1.71601 45.5475 1.71601 45.1346C1.71601 44.7218 1.98812 44.4466 2.39628 44.4466ZM13.8929 54.0789H8.51873C6.00173 54.0789 3.82486 52.3589 3.21261 49.9508H19.267C18.5868 52.3589 16.4099 54.0789 13.8929 54.0789ZM20.0834 48.5747H2.39628C1.98812 48.5747 1.71601 48.2995 1.71601 47.8867C1.71601 47.4739 1.98812 47.1987 2.39628 47.1987H20.0834C20.4915 47.1987 20.7636 47.4739 20.7636 47.8867C20.7636 48.2307 20.4915 48.5747 20.0834 48.5747Z" fill="#E67285"/>
<path d="M44.776 43.1394C44.1638 39.9057 41.3066 37.5664 38.0413 37.5664H32.6672C29.4019 37.5664 26.5447 39.9745 25.9325 43.1394C25.1161 43.4146 24.5039 44.1714 24.5039 45.1346C24.5039 45.6851 24.708 46.1667 25.0481 46.5107C24.708 46.8547 24.5039 47.3363 24.5039 47.8867C24.5039 48.85 25.1161 49.6068 25.9325 49.882C26.5447 53.1157 29.4019 55.455 32.6672 55.455H38.0413C41.3066 55.455 44.1638 53.0469 44.776 49.882C45.5923 49.6068 46.2046 48.85 46.2046 47.8867C46.2046 47.3363 46.0005 46.8547 45.6604 46.5107C46.0005 46.1667 46.2046 45.6851 46.2046 45.1346C46.2046 44.1714 45.5923 43.4146 44.776 43.1394ZM32.6672 38.9424H38.0413C40.5583 38.9424 42.7352 40.6625 43.3474 43.0706H43.0753L42.9393 42.933C42.5991 42.589 42.1229 42.3826 41.6468 42.3826H41.2386C40.7624 42.3826 40.2862 42.589 39.9461 42.933C39.8781 43.0018 39.742 43.0706 39.6059 43.0706H39.1978C39.0617 43.0706 38.9257 43.0018 38.8576 42.933C38.5175 42.589 38.0413 42.3826 37.5651 42.3826H37.157C36.6808 42.3826 36.2046 42.589 35.8644 42.933C35.7964 43.0018 35.6604 43.0706 35.5243 43.0706H35.1161C34.9801 43.0706 34.844 43.0018 34.776 42.933C34.4359 42.589 33.9597 42.3826 33.4835 42.3826H33.0753C32.5991 42.3826 32.123 42.589 31.7828 42.933C31.7148 43.0018 31.5787 43.0706 31.4427 43.0706H31.0345C30.8985 43.0706 30.7624 43.0018 30.6944 42.933C30.3542 42.589 29.8781 42.3826 29.4019 42.3826H28.9937C28.5175 42.3826 28.0413 42.589 27.7012 42.933L27.5651 43.0706H27.293C27.9733 40.6625 30.1502 38.9424 32.6672 38.9424ZM26.4767 44.4466H28.1093L28.6536 43.8962C28.7216 43.8274 28.8576 43.7586 28.9937 43.7586H29.4019C29.5379 43.7586 29.674 43.8274 29.742 43.8962C30.0821 44.2402 30.5583 44.4466 31.0345 44.4466H31.4427C31.9189 44.4466 32.3951 44.2402 32.7352 43.8962C32.8032 43.8274 32.9393 43.7586 33.0753 43.7586H33.4835C33.6196 43.7586 33.7556 43.8274 33.8236 43.8962C34.1638 44.2402 34.64 44.4466 35.1161 44.4466H35.5243C36.0005 44.4466 36.4767 44.2402 36.8168 43.8962C36.8849 43.8274 37.0209 43.7586 37.157 43.7586H37.5651C37.7012 43.7586 37.8372 43.8274 37.9053 43.8962C38.2454 44.2402 38.7216 44.4466 39.1978 44.4466H39.6059C40.0821 44.4466 40.5583 44.2402 40.8985 43.8962C40.9665 43.8274 41.1025 43.7586 41.2386 43.7586H41.6468C41.7828 43.7586 41.9189 43.8274 41.9869 43.8962L42.5311 44.4466H44.1638C44.5719 44.4466 44.844 44.7218 44.844 45.1346C44.844 45.5475 44.5719 45.8227 44.1638 45.8227H26.4767C26.0685 45.8227 25.7964 45.5475 25.7964 45.1346C25.7964 44.7218 26.1366 44.4466 26.4767 44.4466ZM38.0413 54.0789H32.6672C30.1502 54.0789 27.9733 52.3589 27.361 49.9508H43.4155C42.7352 52.3589 40.5583 54.0789 38.0413 54.0789ZM44.1638 48.5747H26.4767C26.0685 48.5747 25.7964 48.2995 25.7964 47.8867C25.7964 47.4739 26.0685 47.1987 26.4767 47.1987H44.1638C44.5719 47.1987 44.844 47.4739 44.844 47.8867C44.844 48.2307 44.5719 48.5747 44.1638 48.5747Z" fill="#E67285"/>
<path d="M68.858 43.1394C68.2458 39.9057 65.3887 37.5664 62.1234 37.5664H56.7492C53.4839 37.5664 50.6268 39.9745 50.0145 43.1394C49.1982 43.4146 48.5859 44.1714 48.5859 45.1346C48.5859 45.6851 48.79 46.1667 49.1302 46.5107C48.79 46.8547 48.5859 47.3363 48.5859 47.8867C48.5859 48.85 49.1982 49.6068 50.0145 49.882C50.6268 53.1157 53.4839 55.455 56.7492 55.455H62.1234C65.3887 55.455 68.2458 53.0469 68.858 49.882C69.6744 49.6068 70.2866 48.85 70.2866 47.8867C70.2866 47.3363 70.0825 46.8547 69.7424 46.5107C70.0825 46.1667 70.2866 45.6851 70.2866 45.1346C70.3546 44.1714 69.7424 43.4146 68.858 43.1394ZM56.7492 38.9424H62.1234C64.6404 38.9424 66.8172 40.6625 67.4295 43.0706H67.1574L67.0213 42.933C66.6812 42.589 66.205 42.3826 65.7288 42.3826H65.3206C64.8444 42.3826 64.3682 42.589 64.0281 42.933C63.9601 43.0018 63.824 43.0706 63.688 43.0706H63.2798C63.1438 43.0706 63.0077 43.0018 62.9397 42.933C62.5995 42.589 62.1233 42.3826 61.6472 42.3826H61.239C60.7628 42.3826 60.2866 42.589 59.9465 42.933C59.8785 43.0018 59.7424 43.0706 59.6063 43.0706H59.1982C59.0621 43.0706 58.9261 43.0018 58.858 42.933C58.5179 42.589 58.0417 42.3826 57.5655 42.3826H57.1574C56.6812 42.3826 56.205 42.589 55.8648 42.933C55.7968 43.0018 55.6608 43.0706 55.5247 43.0706H55.1165C54.9805 43.0706 54.8444 43.0018 54.7764 42.933C54.4363 42.589 53.9601 42.3826 53.4839 42.3826H53.0757C52.5995 42.3826 52.1233 42.589 51.7832 42.933L51.6472 43.0706H51.3751C52.0553 40.6625 54.2322 38.9424 56.7492 38.9424ZM50.6268 44.4466H52.2594L52.8036 43.8962C52.8716 43.8274 53.0077 43.7586 53.1438 43.7586H53.5519C53.688 43.7586 53.824 43.8274 53.8921 43.8962C54.2322 44.2402 54.7084 44.4466 55.1846 44.4466H55.5927C56.0689 44.4466 56.5451 44.2402 56.8853 43.8962C56.9533 43.8274 57.0893 43.7586 57.2254 43.7586H57.6336C57.7696 43.7586 57.9057 43.8274 57.9737 43.8962C58.3138 44.2402 58.79 44.4466 59.2662 44.4466H59.6744C60.1506 44.4466 60.6267 44.2402 60.9669 43.8962C61.0349 43.8274 61.171 43.7586 61.307 43.7586H61.7152C61.8512 43.7586 61.9873 43.8274 62.0553 43.8962C62.3955 44.2402 62.8716 44.4466 63.3478 44.4466H63.756C64.2322 44.4466 64.7084 44.2402 65.0485 43.8962C65.1165 43.8274 65.2526 43.7586 65.3887 43.7586H65.7968C65.9329 43.7586 66.0689 43.8274 66.137 43.8962L66.6812 44.4466H68.3138C68.722 44.4466 68.9941 44.7218 68.9941 45.1346C68.9941 45.5475 68.722 45.8227 68.3138 45.8227H50.6268C50.2186 45.8227 49.9465 45.5475 49.9465 45.1346C49.9465 44.7218 50.2186 44.4466 50.6268 44.4466ZM62.1234 54.0789H56.7492C54.2322 54.0789 52.0553 52.3589 51.4431 49.9508H67.4975C66.8172 52.3589 64.6404 54.0789 62.1234 54.0789ZM68.3138 48.5747H50.6268C50.2186 48.5747 49.9465 48.2995 49.9465 47.8867C49.9465 47.4739 50.2186 47.1987 50.6268 47.1987H68.3138C68.722 47.1987 68.9941 47.4739 68.9941 47.8867C68.9941 48.2307 68.654 48.5747 68.3138 48.5747Z" fill="#E67285"/>
<path d="M32.7369 24.3562C32.1247 21.1225 29.2676 18.7832 26.0023 18.7832H20.6281C17.3628 18.7832 14.5057 21.1913 13.8934 24.3562C13.0771 24.6314 12.4648 25.3882 12.4648 26.3514C12.4648 26.9019 12.6689 27.3835 13.0091 27.7275C12.6689 28.0715 12.4648 28.5531 12.4648 29.1035C12.4648 30.0668 13.0771 30.8236 13.8934 31.0988C14.5057 34.3325 17.3628 36.6718 20.6281 36.6718H26.0023C29.2676 36.6718 32.1247 34.2637 32.7369 31.0988C33.5533 30.8236 34.1655 30.0668 34.1655 29.1035C34.1655 28.5531 33.9614 28.0715 33.6213 27.7275C33.9614 27.3835 34.1655 26.9019 34.1655 26.3514C34.1655 25.3882 33.5533 24.5626 32.7369 24.3562ZM20.6281 20.0904H26.0023C28.5193 20.0904 30.6961 21.8105 31.3084 24.2186H31.0363L30.9002 24.081C30.5601 23.737 30.0839 23.5306 29.6077 23.5306H29.1995C28.7233 23.5306 28.2472 23.737 27.907 24.081C27.839 24.1498 27.7029 24.2186 27.5669 24.2186H27.1587C27.0227 24.2186 26.8866 24.1498 26.8186 24.081C26.4784 23.737 26.0023 23.5306 25.5261 23.5306H25.1179C24.6417 23.5306 24.1655 23.737 23.8254 24.081C23.7574 24.1498 23.6213 24.2186 23.4853 24.2186H23.0771C22.941 24.2186 22.805 24.1498 22.737 24.081C22.3968 23.737 21.9206 23.5306 21.4444 23.5306H21.0363C20.5601 23.5306 20.0839 23.737 19.7438 24.081C19.6757 24.1498 19.5397 24.2186 19.4036 24.2186H18.9955C18.8594 24.2186 18.7233 24.1498 18.6553 24.081C18.3152 23.737 17.839 23.5306 17.3628 23.5306H16.9546C16.4784 23.5306 16.0023 23.737 15.6621 24.081L15.5261 24.2186H15.254C15.9342 21.8105 18.1111 20.0904 20.6281 20.0904ZM14.4376 25.5946H16.0703L16.6145 25.0442C16.6825 24.9754 16.8186 24.9066 16.9546 24.9066H17.3628C17.4989 24.9066 17.6349 24.9754 17.7029 25.0442C18.0431 25.3882 18.5193 25.5946 18.9955 25.5946H19.4036C19.8798 25.5946 20.356 25.3882 20.6961 25.0442C20.7642 24.9754 20.9002 24.9066 21.0363 24.9066H21.4444C21.5805 24.9066 21.7165 24.9754 21.7846 25.0442C22.1247 25.3882 22.6009 25.5946 23.0771 25.5946H23.4853C23.9614 25.5946 24.4376 25.3882 24.7778 25.0442C24.8458 24.9754 24.9818 24.9066 25.1179 24.9066H25.5261C25.6621 24.9066 25.7982 24.9754 25.8662 25.0442C26.2063 25.3882 26.6825 25.5946 27.1587 25.5946H27.5669C28.0431 25.5946 28.5193 25.3882 28.8594 25.0442C28.9274 24.9754 29.0635 24.9066 29.1995 24.9066H29.6077C29.7438 24.9066 29.8798 24.9754 29.9478 25.0442L30.4921 25.5946H32.1247C32.5329 25.5946 32.805 25.8698 32.805 26.2826C32.805 26.6955 32.5329 26.9707 32.1247 26.9707H14.4376C14.0295 26.9707 13.7574 26.6955 13.7574 26.2826C13.7574 25.8698 14.0975 25.5946 14.4376 25.5946ZM26.0023 35.2269H20.6281C18.1111 35.2269 15.9342 33.5069 15.322 31.0988H31.3764C30.6281 33.5069 28.5193 35.2269 26.0023 35.2269ZM32.1247 29.7227H14.4376C14.0295 29.7227 13.7574 29.4475 13.7574 29.0347C13.7574 28.6219 14.0295 28.3467 14.4376 28.3467H32.1247C32.5329 28.3467 32.805 28.6219 32.805 29.0347C32.805 29.4475 32.5329 29.7227 32.1247 29.7227Z" fill="#E67285"/>
<path d="M56.819 24.3562C56.2067 21.1225 53.3496 18.7832 50.0843 18.7832H44.7101C41.4448 18.7832 38.5877 21.1913 37.9754 24.3562C37.1591 24.6314 36.5469 25.3882 36.5469 26.3514C36.5469 26.9019 36.751 27.3835 37.0911 27.7275C36.751 28.0715 36.5469 28.5531 36.5469 29.1035C36.5469 30.0668 37.1591 30.8236 37.9754 31.0988C38.5877 34.3325 41.4448 36.6718 44.7101 36.6718H50.0843C53.3496 36.6718 56.2067 34.2637 56.819 31.0988C57.6353 30.8236 58.2476 30.0668 58.2476 29.1035C58.2476 28.5531 58.0435 28.0715 57.7033 27.7275C58.0435 27.3835 58.2476 26.9019 58.2476 26.3514C58.2476 25.3882 57.6353 24.5626 56.819 24.3562ZM44.7101 20.0904H50.0843C52.6013 20.0904 54.7782 21.8105 55.3904 24.2186H55.1183L54.9822 24.081C54.6421 23.737 54.1659 23.5306 53.6897 23.5306H53.2816C52.8054 23.5306 52.3292 23.737 51.9891 24.081C51.921 24.1498 51.785 24.2186 51.6489 24.2186H51.2408C51.1047 24.2186 50.9686 24.1498 50.9006 24.081C50.5605 23.737 50.0843 23.5306 49.6081 23.5306H49.1999C48.7237 23.5306 48.2476 23.737 47.9074 24.081C47.8394 24.1498 47.7033 24.2186 47.5673 24.2186H47.1591C47.0231 24.2186 46.887 24.1498 46.819 24.081C46.4788 23.737 46.0027 23.5306 45.5265 23.5306H45.1183C44.6421 23.5306 44.1659 23.737 43.8258 24.081C43.7578 24.1498 43.6217 24.2186 43.4857 24.2186H43.0775C42.9414 24.2186 42.8054 24.1498 42.7373 24.081C42.3972 23.737 41.921 23.5306 41.4448 23.5306H41.0367C40.5605 23.5306 40.0843 23.737 39.7442 24.081L39.6081 24.2186H39.336C40.0163 21.8105 42.1931 20.0904 44.7101 20.0904ZM38.5197 25.5946H40.1523L40.6965 25.0442C40.7646 24.9754 40.9006 24.9066 41.0367 24.9066H41.4448C41.5809 24.9066 41.7169 24.9754 41.785 25.0442C42.1251 25.3882 42.6013 25.5946 43.0775 25.5946H43.4857C43.9618 25.5946 44.438 25.3882 44.7782 25.0442C44.8462 24.9754 44.9822 24.9066 45.1183 24.9066H45.5265C45.6625 24.9066 45.7986 24.9754 45.8666 25.0442C46.2067 25.3882 46.6829 25.5946 47.1591 25.5946H47.5673C48.0435 25.5946 48.5197 25.3882 48.8598 25.0442C48.9278 24.9754 49.0639 24.9066 49.1999 24.9066H49.6081C49.7442 24.9066 49.8802 24.9754 49.9482 25.0442C50.2884 25.3882 50.7646 25.5946 51.2408 25.5946H51.6489C52.1251 25.5946 52.6013 25.3882 52.9414 25.0442C53.0095 24.9754 53.1455 24.9066 53.2816 24.9066H53.6897C53.8258 24.9066 53.9618 24.9754 54.0299 25.0442L54.5741 25.5946H56.2067C56.6149 25.5946 56.887 25.8698 56.887 26.2826C56.887 26.6955 56.6149 26.9707 56.2067 26.9707H38.5197C38.1115 26.9707 37.8394 26.6955 37.8394 26.2826C37.8394 25.8698 38.1795 25.5946 38.5197 25.5946ZM50.0843 35.2269H44.7101C42.1931 35.2269 40.0163 33.5069 39.404 31.0988H55.4584C54.7782 33.5069 52.6013 35.2269 50.0843 35.2269ZM56.2067 29.7227H38.5197C38.1115 29.7227 37.8394 29.4475 37.8394 29.0347C37.8394 28.6219 38.1115 28.3467 38.5197 28.3467H56.2067C56.6149 28.3467 56.887 28.6219 56.887 29.0347C56.887 29.4475 56.6149 29.7227 56.2067 29.7227Z" fill="#E67285"/>
</svg>
