<svg width="74" height="80" viewBox="0 0 74 80" fill="none" xmlns="http://www.w3.org/2000/svg">
<g clip-path="url(#clip0_1676_21384)">
<path d="M47.1294 66.4415C44.8277 73.5211 33.3564 76.1284 21.5009 72.274C9.60752 68.3451 1.86282 59.4903 4.14625 52.4669C4.27412 52.0736 4.45818 51.6985 4.62397 51.3797C7.69818 45.1725 18.5752 43.0554 29.8126 46.7088C41.05 50.3623 48.6024 58.4712 47.4203 65.3557C47.3289 65.6366 47.2572 66.0482 47.1294 66.4415Z" fill="#F7AD1A"/>
<path d="M47.3807 65.2815C46.5321 66.7451 44.8758 67.6355 43.2602 68.9741C41.6447 70.3126 39.6892 71.1679 37.4417 70.4372C36.318 70.0718 34.9357 70.1194 33.7431 70.5393C31.8424 71.226 29.6539 70.8872 27.9276 69.8911C26.4077 69.0242 24.517 68.5338 22.6487 68.5476C19.6216 68.4953 17.353 67.4471 15.4513 65.4621C13.7377 63.6624 11.7473 62.3319 9.77939 61.5057C6.87455 60.3128 5.59082 58.5287 5.23431 55.8035C5.03502 54.1234 4.42692 52.7453 4.56614 51.3617C7.64035 45.1545 18.5174 43.0373 29.7548 46.6908C41.0105 50.2881 48.5628 58.397 47.3807 65.2815Z" fill="#EE8034"/>
<path d="M48.2999 62.8457C47.6605 64.8122 45.743 65.7419 43.8675 67.3066C42.2519 68.6451 40.2964 69.5004 38.0489 68.7697C36.9252 68.4043 35.5429 68.452 34.3503 68.8718C32.3934 69.5403 30.2611 69.2198 28.5348 68.2236C27.015 67.3568 25.1243 66.8663 23.256 66.8801C20.2288 66.8278 17.9603 65.7797 16.0585 63.7946C14.3449 61.995 12.3546 60.6645 10.3684 59.8945C7.40733 58.6833 6.14187 56.8429 5.78536 54.1177C5.54677 52.1764 4.78699 50.5005 5.31675 48.871C7.28964 42.8028 18.4869 41.0383 30.3424 44.8927C42.1978 48.7472 50.2728 56.7774 48.2999 62.8457Z" fill="#F7ADBB"/>
<path d="M49.6552 59.2484C47.3535 66.328 35.9005 68.8791 24.045 65.0247C12.1896 61.1703 4.44485 52.3155 6.72828 45.2921C6.94749 44.6178 7.27908 43.9801 7.66685 43.3607C11.213 37.804 21.6067 36.0267 32.2823 39.4975C43.014 42.9866 50.3754 50.5364 50.0136 57.1905C49.9813 57.8634 49.8744 58.5742 49.6552 59.2484Z" fill="#EE8034"/>
<path d="M49.9178 56.9109C46.3155 62.4494 35.9217 64.2266 25.19 60.7375C14.5144 57.2667 7.15309 49.7169 7.49655 43.119C11.1171 37.5243 21.5109 35.7471 32.1864 39.2179C42.9182 42.707 50.2795 50.2568 49.9178 56.9109Z" fill="#F7AD1A"/>
<path d="M32.4254 43.8313C32.463 46.3907 27.7513 48.4622 21.9596 48.5051C16.168 48.548 11.4076 46.5654 11.3516 44.0622C11.314 41.5028 16.0257 39.4313 21.8173 39.3884C27.6273 39.2893 32.3694 41.328 32.4254 43.8313Z" fill="#FFC928"/>
<path d="M36.2584 51.5377C36.0337 51.4646 35.9058 51.858 36.1305 51.931C36.4297 51.9662 36.5393 51.629 36.2584 51.5377Z" fill="#EE8034"/>
<path d="M39.958 49.3246C39.2275 49.0871 38.8439 50.267 39.5744 50.5045C40.3048 50.742 40.6884 49.5621 39.958 49.3246Z" fill="#EE8034"/>
<path d="M29.3134 52.6356C28.583 52.3982 28.2177 53.5219 28.9481 53.7594C29.6785 53.9968 30.1001 52.8914 29.3134 52.6356Z" fill="#EE8034"/>
<path d="M19.2912 51.1776L19.235 51.1593C19.0102 51.0862 18.8823 51.4795 19.1071 51.5526L19.1633 51.5709C19.388 51.6439 19.5159 51.2506 19.2912 51.1776Z" fill="#EE8034"/>
<path d="M29.3599 48.8609C29.3599 48.8609 29.3037 48.8426 29.3599 48.8609C29.19 48.6193 28.8177 48.8089 28.9315 49.0322C29.0256 49.125 29.0635 49.1994 29.2321 49.2542C29.513 49.3456 29.6409 48.9523 29.3599 48.8609Z" fill="#EE8034"/>
<path d="M34.5826 42.171C34.3579 42.0979 34.23 42.4913 34.4548 42.5643C34.6795 42.6374 34.8074 42.2441 34.5826 42.171Z" fill="#EE8034"/>
<path d="M21.6812 53.9438L21.5127 53.889C20.7822 53.6516 20.4169 54.7753 21.1473 55.0128L21.3159 55.0676C22.1025 55.3233 22.4678 54.1996 21.6812 53.9438Z" fill="#EE8034"/>
<path d="M10.9997 44.1954C10.7736 43.9355 10.4 43.9383 10.1401 44.1644C9.99115 44.2403 9.88016 44.3905 9.82535 44.5591C9.71575 44.8962 9.92361 45.2123 10.2046 45.3037C10.4855 45.395 10.7833 45.2433 10.9308 44.9806C11.2286 44.829 11.188 44.3809 10.9997 44.1954Z" fill="#EE8034"/>
<path d="M34.872 58.8534C34.1416 58.6159 33.758 59.7959 34.4884 60.0333C35.2933 60.2329 35.6587 59.1091 34.872 58.8534Z" fill="#EE8034"/>
</g>
<path d="M64.1787 13.641C64.027 13.4145 63.7767 13.2847 63.531 13.1706C62.6626 12.7566 61.7621 12.3775 60.8045 12.2357C59.8519 12.0965 58.8317 12.2019 58.0162 12.7133C58.9075 11.0523 59.9729 9.49265 61.1884 8.05406C61.0961 7.97106 60.9987 7.88531 60.9063 7.80231C59.7823 8.60366 58.9478 9.73934 58.2579 10.9342C57.5681 12.129 57.0022 13.3847 56.3073 14.5768C56.9053 12.1673 56.5792 9.54243 55.4095 7.34819C55.131 7.43866 54.8552 7.52408 54.5767 7.61455C55.4961 8.41613 55.7628 9.63446 55.9216 10.8464C56.0754 12.0556 56.152 13.2621 55.8665 14.448L55.5854 15.8785C55.8623 14.7926 56.68 14.217 57.7062 13.7157C58.8815 13.1451 59.691 13.0297 60.9101 13.0522C61.7587 13.0693 63.5449 13.7344 64.102 14.3714C64.3313 14.2149 64.3332 13.8625 64.1787 13.641Z" fill="#E08CB8"/>
<path d="M55.5898 15.8735C55.5693 15.9474 55.5538 16.024 55.5433 16.1034L55.5898 15.8735Z" fill="#E08CB8"/>
<path d="M56.8571 13.2486L25.7973 38.1627C25.7973 38.1627 26.6728 41.5709 29.8321 44.5017C32.3381 46.828 37.1334 49.4848 37.1334 49.4848C37.1334 49.4848 41.9671 52.0709 45.281 52.9134C49.4571 53.9768 52.795 52.8627 52.795 52.8627L56.8571 13.2486Z" fill="#46A5AA"/>
<path d="M54.5564 22.3476C54.93 22.7081 55.3499 23.0676 55.8019 23.3202L56.0574 20.842C55.2471 20.2372 54.4047 19.6672 53.6695 18.9725C53.069 18.4034 52.5486 17.7471 52.1256 17.0325L50.8127 18.0844C51.9362 19.6057 53.1941 21.0365 54.5564 22.3476Z" fill="#E08CB8"/>
<path d="M53.8352 39.7482C53.9192 39.7744 54.011 39.7982 54.1056 39.817L54.3652 37.2951C52.3925 35.6255 50.1515 34.268 48.2273 32.5332C45.8092 30.3462 43.9393 27.5614 42.8177 24.4969L40.1127 26.6622C42.235 29.0676 43.9946 31.7662 46.0959 34.1863C48.2045 36.6169 50.7562 38.8112 53.8352 39.7482Z" fill="#E08CB8"/>
<path d="M53.5961 44.774C53.4905 44.7034 53.3821 44.6378 53.2764 44.5672C49.748 42.3385 46.1998 40.0859 43.1053 37.2886C40.5774 35.0026 38.3436 32.3206 36.8718 29.2617L33.7325 31.7795C37.835 39.0648 44.4657 44.9065 52.222 48.0435C52.5393 48.1705 52.8828 48.2855 53.233 48.3519L53.5961 44.774Z" fill="#E08CB8"/>
<path d="M48.8851 20.6784C48.7518 20.4422 48.6266 20.1908 48.5042 19.9344L46.4027 21.6169C48.166 24.3568 50.1476 26.9605 52.3182 29.3856C53.0912 30.2514 53.9133 31.1113 54.9535 31.6188L55.2644 28.5817C52.7145 26.3361 50.5427 23.6486 48.8851 20.6784Z" fill="#E08CB8"/>
<path d="M33.8746 45.0918C35.0147 46.6549 36.1593 48.2335 37.4558 49.6657C38.6213 50.2676 42.474 52.2018 45.2521 52.9096C45.9357 53.0855 46.5959 53.1963 47.2188 53.2672C47.0918 52.9952 46.8997 52.7466 46.7043 52.5159C45.0483 50.5411 42.9215 49.0101 41.117 47.1638C37.6944 43.6579 35.5104 39.0923 32.1149 35.5487C31.6729 35.0855 31.2047 34.6343 30.8025 34.1339L27.7347 36.5925C28.0988 37.1506 28.4919 37.6918 28.8776 38.2225C30.5431 40.5165 32.2114 42.8056 33.8746 45.0918Z" fill="#E08CB8"/>
<path opacity="0.34" d="M34.4552 35.3667C33.75 35.9642 33.015 36.6044 32.6942 37.4702C32.3735 38.3359 32.6268 39.4946 33.4814 39.8618C34.0724 40.1116 34.7767 39.9127 35.2866 39.5295C35.7966 39.1463 36.1654 38.6012 36.5261 38.0712C39.154 34.2673 42.3372 30.8508 45.9401 27.9508C46.5569 27.4556 48.529 25.2772 46.4976 25.3752C45.3144 25.4311 43.5265 27.6443 42.6488 28.39C39.9201 30.7191 37.1863 33.0454 34.4552 35.3667Z" fill="white"/>
<path opacity="0.34" d="M48.0065 23.8135C47.9328 23.9369 47.8586 24.0732 47.8716 24.2177C47.8903 24.4961 48.2113 24.6644 48.4844 24.656C49.0383 24.637 49.461 24.1735 49.8181 23.7463C50.2934 23.1741 52.9268 20.623 50.7961 20.9155C49.5295 21.0765 48.5654 22.8352 48.0065 23.8135Z" fill="white"/>
<path d="M62.9579 18.1916C63.2991 16.7349 62.7713 15.1061 61.6342 14.1271C60.4971 13.148 58.8109 12.8646 57.4176 13.4147C58.1004 12.4254 59.0018 11.5879 60.0365 10.9866C60.5934 10.6616 61.2356 10.3962 61.8756 10.496C61.8381 10.24 61.7928 9.98637 61.7554 9.73041C59.3531 9.7638 57.0527 11.3904 56.2208 13.6399C56.3261 12.5324 55.6873 11.4321 54.7723 10.803C53.8549 10.1662 52.7017 9.95049 51.5883 9.99858C51.3795 10.0092 51.1601 10.0272 50.9936 10.1525C50.6712 10.3957 50.7113 10.8755 50.7773 11.2714C51.8599 10.7027 53.2714 10.8169 54.2549 11.5487C55.2384 12.2805 55.7462 13.5974 55.5167 14.8008L55.9068 15.5759C56.5179 14.5738 57.7786 14.0628 58.9391 14.217C60.1047 14.3739 61.136 15.1383 61.7526 16.135C61.9572 16.4689 62.127 16.8427 62.1316 17.2312C62.1334 17.6248 61.9365 18.0346 61.5783 18.1994C62.0497 18.2598 62.5078 18.2605 62.9579 18.1916Z" fill="#46A5AA"/>
<defs>
<clipPath id="clip0_1676_21384">
<rect width="45.375" height="34.6812" fill="white" transform="translate(10.7227 32.2397) rotate(18.0103)"/>
</clipPath>
</defs>
</svg>
