<svg width="76" height="69" viewBox="0 0 76 69" fill="none" xmlns="http://www.w3.org/2000/svg">
<g clip-path="url(#clip0_1461_1481)">
<path d="M68.2431 26.4565C72.4515 35.7162 63.2915 48.9236 47.7851 55.971C32.1718 62.9783 16.1982 61.1937 12.0232 52.0074C11.7894 51.493 11.6291 50.9452 11.5022 50.4708C8.87712 41.3782 17.8901 29.213 32.5881 22.533C47.2861 15.853 62.3779 17.063 67.535 25.0935C67.702 25.461 68.0093 25.942 68.2431 26.4565Z" fill="#78CCCA"/>
<path d="M67.4292 25.0533C67.9234 27.3114 67.0748 29.7365 66.6805 32.5758C66.2862 35.4151 65.1036 38.0806 62.164 39.4166C60.6942 40.0846 59.3446 41.4074 58.5294 42.9305C57.2466 45.3756 54.7279 47.0524 52.0689 47.6401C49.7373 48.1678 47.3789 49.417 45.5082 51.1539C42.4082 53.8928 39.1546 54.9282 35.4067 54.6808C32.0196 54.4468 28.7861 54.941 26.0402 55.9229C22.0117 57.3992 19.0722 56.7844 16.1996 54.3658C14.4493 52.8558 12.5653 52.0273 11.4297 50.5041C8.80463 41.4114 17.8176 29.2462 32.5156 22.5662C47.1802 15.8127 62.272 17.0227 67.4292 25.0533Z" fill="#5EC4BA"/>
<path d="M66.1079 21.7527C67.2769 24.3249 66.2012 27.0305 65.7534 30.3375C65.3591 33.1768 64.1765 35.8424 61.2369 37.1784C59.7671 37.8464 58.4175 39.1691 57.6023 40.6922C56.246 43.1707 53.8008 44.8141 51.1418 45.4018C48.8102 45.9295 46.4518 47.1787 44.5811 48.9156C41.4811 51.6545 38.2275 52.6899 34.4796 52.4425C31.0925 52.2085 27.859 52.7027 25.1465 53.7581C21.0445 55.2678 18.0716 54.5795 15.199 52.1609C13.1681 50.4238 10.8566 49.4349 9.888 47.3037C6.2808 39.3668 15.9418 27.2617 31.4482 20.2143C47.0281 13.1336 62.5007 13.8158 66.1079 21.7527Z" fill="#EB5660"/>
<path d="M63.8351 16.7555C68.0435 26.0153 58.8501 39.1492 43.3437 46.1966C27.7638 53.2774 11.7902 51.4928 7.6152 42.3065C7.2144 41.4246 6.96058 40.476 6.78025 39.4939C5.27086 30.5149 14.1101 19.138 28.0732 12.792C42.1098 6.41259 56.4935 7.23507 62.2653 14.2769C62.8531 14.9851 63.4009 15.8002 63.8351 16.7555Z" fill="#5EC4BA"/>
<path d="M62.5658 14.9385C64.0752 23.9175 55.2359 35.2944 41.1993 41.6738C27.2362 48.0198 12.8526 47.1973 7.08077 40.1555C5.57138 31.1765 14.4106 19.7996 28.3737 13.4536C42.4103 7.07422 56.794 7.8967 62.5658 14.9385Z" fill="#78CCCA"/>
<path d="M32.5676 17.2216C34.9658 19.7671 32.1262 26.2005 26.327 31.5849C20.5612 37.0428 13.9004 39.3607 11.5355 36.8887C9.13724 34.3432 11.9769 27.9098 17.7761 22.5254C23.5419 17.0675 30.2027 14.7496 32.5676 17.2216Z" fill="#9BD7D5"/>
<path d="M43.5369 21.4579C43.2429 21.5915 43.4767 22.1059 43.7707 21.9723C44.1047 21.7318 43.9043 21.2909 43.5369 21.4579Z" fill="#5EC4BA"/>
<path d="M45.2282 15.8125C44.2729 16.2467 44.9409 17.7165 45.8962 17.2823C46.8516 16.8481 46.1836 15.3783 45.2282 15.8125Z" fill="#5EC4BA"/>
<path d="M37.5525 28.9663C36.5971 29.4005 37.2985 30.9438 38.2539 30.5096C39.2827 30.042 38.5813 28.4987 37.5525 28.9663Z" fill="#5EC4BA"/>
<path d="M26.1026 36.7424L26.0291 36.7758C25.7351 36.9094 25.9689 37.4238 26.2629 37.2902L26.3364 37.2568C26.6303 37.1232 26.3965 36.6088 26.1026 36.7424Z" fill="#5EC4BA"/>
<path d="M34.1179 25.1184L34.0445 25.1518C33.7238 25.0316 33.5233 25.566 33.844 25.6863C34.0244 25.693 34.1313 25.7331 34.3517 25.6329C34.7192 25.4659 34.4854 24.9514 34.1179 25.1184Z" fill="#5EC4BA"/>
<path d="M33.2087 13.5604C32.9148 13.694 33.1486 14.2085 33.4425 14.0749C33.7365 13.9413 33.5027 13.4268 33.2087 13.5604Z" fill="#7AC143"/>
<path d="M31.0659 37.3237L30.8454 37.4239C29.8901 37.8581 30.5915 39.4014 31.5468 38.9672L31.7673 38.867C32.7628 38.3259 32.0948 36.8561 31.0659 37.3237Z" fill="#5EC4BA"/>
<path d="M11.3042 37.3498C10.8366 37.2963 10.4624 37.6437 10.409 38.1113C10.3288 38.3251 10.3555 38.579 10.4557 38.7994C10.6561 39.2404 11.1571 39.3673 11.5246 39.2003C11.892 39.0333 12.0524 38.6058 11.9589 38.2049C12.1193 37.7774 11.665 37.3631 11.3042 37.3498Z" fill="#5EC4BA"/>
<path d="M48.8884 30.1094C47.933 30.5436 48.601 32.0134 49.5564 31.5792C50.5118 31.145 49.9173 29.6418 48.8884 30.1094Z" fill="#5EC4BA"/>
</g>
<defs>
<clipPath id="clip0_1461_1481">
<rect width="61.7538" height="47.3849" fill="white" transform="translate(0 25.5508) rotate(-24.441)"/>
</clipPath>
</defs>
</svg>
