<svg width="69" height="61" viewBox="0 0 69 61" fill="none" xmlns="http://www.w3.org/2000/svg">
<g clip-path="url(#clip0_1461_1517)">
<path d="M60.5456 43.2711C57.9263 52.5684 43.327 56.5793 27.929 52.2414C12.4788 47.8091 2.1202 36.7671 4.71867 27.5435C4.86419 27.027 5.08268 26.531 5.28038 26.1088C8.93236 17.8989 22.7922 14.5557 37.3874 18.6675C51.9827 22.7793 62.0591 32.8657 60.8676 41.8485C60.7636 42.2175 60.6911 42.7545 60.5456 43.2711Z" fill="#F281A3"/>
<path d="M60.8165 41.7542C59.7965 43.697 57.7129 44.9418 55.7028 46.7648C53.6926 48.5879 51.2233 49.8037 48.3043 48.9814C46.8447 48.5702 45.0729 48.7082 43.5621 49.318C41.1552 50.3124 38.3304 49.9945 36.0676 48.7995C34.0761 47.7606 31.6263 47.2297 29.2291 47.3508C25.3414 47.4503 22.3804 46.2179 19.8457 43.7516C17.5613 41.5151 14.9439 39.9017 12.3791 38.9402C8.59451 37.5554 6.86255 35.3153 6.27611 31.805C5.94087 29.6398 5.09524 27.8883 5.20848 26.0883C8.86046 17.8784 22.7203 14.5352 37.3155 18.647C51.9316 22.685 62.008 32.7715 60.8165 41.7542Z" fill="#EE5D7C"/>
<path d="M61.8788 38.5485C61.1512 41.1311 58.7341 42.4413 56.4011 44.5716C54.3909 46.3946 51.9216 47.6105 49.0026 46.7881C47.543 46.3769 45.7712 46.515 44.2604 47.1247C41.7805 48.0986 39.0286 47.8012 36.7659 46.6063C34.7744 45.5673 32.3246 45.0365 29.9274 45.1576C26.0397 45.257 23.0787 44.0246 20.544 41.5583C18.2596 39.3219 15.6422 37.7084 13.0566 36.8207C9.19904 35.4154 7.48787 33.1015 6.90143 29.5912C6.50339 27.0897 5.44901 24.9608 6.05185 22.8209C8.29693 14.8517 22.5844 11.9477 37.9824 16.2856C53.3804 20.6236 64.1238 30.5793 61.8788 38.5485Z" fill="#AAD7D4"/>
<path d="M63.2904 33.5309C60.6712 42.8283 46.0926 46.7654 30.6946 42.4274C15.2236 38.0689 4.86504 27.0269 7.46351 17.8033C7.71297 16.9179 8.10837 16.0735 8.57675 15.2497C12.9589 7.80296 26.2146 4.9268 40.0801 8.833C53.9456 12.7392 63.8235 22.1325 63.6739 30.7717C63.6642 31.6451 63.5607 32.5716 63.2904 33.5309Z" fill="#EE5D7C"/>
<path d="M63.6723 30.7719C59.3109 38.1449 46.0553 41.0211 32.1168 37.0943C18.1783 33.1676 8.44639 23.8153 8.57515 15.25C12.9573 7.80319 26.213 4.92704 40.0785 8.83323C53.944 12.7394 63.8218 22.1328 63.6723 30.7719Z" fill="#F281A3"/>
<path d="M40.6044 14.7955C40.7738 18.1086 34.8246 21.052 27.3934 21.4275C19.9622 21.803 13.7588 19.4978 13.5686 16.2585C13.3992 12.9453 19.3484 10.0019 26.7796 9.62641C34.2316 9.17715 40.4142 11.5561 40.6044 14.7955Z" fill="#F2AEBD"/>
<path d="M45.8869 24.5661C45.595 24.4838 45.4495 25.0004 45.7414 25.0826C46.1271 25.1116 46.2518 24.6689 45.8869 24.5661Z" fill="#EE3686"/>
<path d="M50.5357 21.4949C49.587 21.2276 49.1713 22.7034 50.12 22.9707C51.0687 23.2379 51.4844 21.7621 50.5357 21.4949Z" fill="#EE3686"/>
<path d="M37.0279 26.3713C36.0792 26.1041 35.6635 27.5799 36.6122 27.8471C37.6131 28.2087 38.0496 26.6592 37.0279 26.3713Z" fill="#EE3686"/>
<path d="M24.0927 25.0368L24.0197 25.0163C23.7278 24.934 23.5823 25.4506 23.8742 25.5328L23.9472 25.5533C24.2391 25.6356 24.3846 25.1191 24.0927 25.0368Z" fill="#EE3686"/>
<path d="M36.9112 21.48C36.8382 21.4594 36.9112 21.48 36.9112 21.48C36.6817 21.1764 36.2128 21.4425 36.3694 21.7255C36.4946 21.8405 36.5467 21.9348 36.7657 21.9965C37.1306 22.0993 37.2761 21.5828 36.9112 21.48Z" fill="#EE3686"/>
<path d="M43.2931 12.5255C43.0012 12.4433 42.8557 12.9598 43.1476 13.0421C43.4395 13.1243 43.5851 12.6078 43.2931 12.5255Z" fill="#EE3686"/>
<path d="M27.2976 28.4877L27.0787 28.426C26.13 28.1588 25.6935 29.7083 26.6422 29.9756L26.8611 30.0373C27.9035 30.2513 28.3193 28.7755 27.2976 28.4877Z" fill="#EE3686"/>
<path d="M13.1215 16.4506C12.8189 16.1264 12.3395 16.1506 12.0166 16.4579C11.8291 16.5644 11.6938 16.7652 11.6314 16.9865C11.5067 17.4293 11.7884 17.8272 12.1533 17.93C12.5182 18.0328 12.8932 17.8199 13.0701 17.4715C13.4452 17.2586 13.3718 16.6804 13.1215 16.4506Z" fill="#EE3686"/>
<path d="M44.4576 34.1189C43.5089 33.8516 43.0932 35.3274 44.0419 35.5947C45.0635 35.8825 45.4793 34.4067 44.4576 34.1189Z" fill="#EE3686"/>
</g>
<defs>
<clipPath id="clip0_1461_1517">
<rect width="58" height="45" fill="white" transform="translate(12.2031 0.979492) rotate(15.7336)"/>
</clipPath>
</defs>
</svg>
