<svg width="67" height="54" viewBox="0 0 67 54" fill="none" xmlns="http://www.w3.org/2000/svg">
<g clip-path="url(#clip0_1461_1499)">
<path d="M63.3227 35.2957C62.27 45.4123 47.6882 52.1733 30.7469 50.4106C13.7337 48.5592 0.856156 38.941 1.90045 28.9046C1.95893 28.3426 2.0977 27.7889 2.22811 27.3155C4.56215 18.1439 18.49 12.2076 34.5481 13.8784C50.6062 15.5493 63.0136 24.2258 63.4011 33.7618C63.3593 34.1633 63.3811 34.7337 63.3227 35.2957Z" fill="#78CCCA"/>
<path d="M63.3269 33.6733C62.6113 35.8713 60.6527 37.5342 58.8766 39.7842C57.1004 42.0341 54.7321 43.7356 51.5205 43.4014C49.9146 43.2343 48.0814 43.6928 46.6079 44.5946C44.2646 46.0551 41.2437 46.2277 38.6526 45.39C36.3743 44.666 33.708 44.5509 31.2158 45.1032C27.1562 45.8982 23.8258 45.1458 20.7177 43.0369C17.914 41.122 14.8746 39.913 12.0092 39.3713C7.78722 38.6074 5.5623 36.5904 4.30737 33.0511C3.5611 30.8633 2.35489 29.1958 2.14559 27.3073C4.47963 18.1356 18.4075 12.1993 34.4656 13.8702C50.532 15.4607 62.9394 24.1373 63.3269 33.6733Z" fill="#5EC4BA"/>
<path d="M63.8556 30.1571C63.5632 32.9672 61.2668 34.7573 59.208 37.3837C57.4319 39.6336 55.0635 41.3351 51.8519 41.0009C50.2461 40.8338 48.4129 41.2923 46.9393 42.1941C44.5158 43.6463 41.5752 43.8272 38.9841 42.9895C36.7058 42.2655 34.0395 42.1504 31.5472 42.7027C27.4877 43.4977 24.1572 42.7453 21.0491 40.6364C18.2455 38.7215 15.206 37.5125 12.3323 37.0511C8.03001 36.2788 5.81345 34.1815 4.55852 30.6422C3.68508 28.1166 2.19113 26.0944 2.43341 23.766C3.33567 15.0946 17.7922 9.53796 34.7335 11.3007C51.755 13.0718 64.7579 21.4857 63.8556 30.1571Z" fill="#EB5660"/>
<path d="M64.4237 24.6973C63.371 34.8139 48.7976 41.4946 31.8563 39.7319C14.8347 37.9608 1.95718 28.3425 3.00147 18.3062C3.10172 17.3427 3.36255 16.396 3.70367 15.4575C6.94272 6.94816 20.322 1.60403 35.5772 3.19135C50.9127 4.78702 62.9052 12.7711 64.323 21.765C64.472 22.6733 64.5323 23.6535 64.4237 24.6973Z" fill="#5EC4BA"/>
<path d="M64.2496 22.4874C61.0106 30.9968 47.6313 36.3409 32.2958 34.7453C17.0406 33.158 5.04815 25.1739 3.63035 16.1799C6.86939 7.67054 20.2487 2.32642 35.5039 3.91374C50.8394 5.50941 62.8318 13.4935 64.2496 22.4874Z" fill="#78CCCA"/>
<path d="M37.2146 9.28629C37.9961 12.6952 32.2927 16.809 24.5667 18.521C16.8323 20.3134 9.91391 18.9442 9.12402 15.6156C8.34248 12.2068 14.0459 8.09296 21.7719 6.38091C29.5063 4.58856 36.4247 5.95771 37.2146 9.28629Z" fill="#9BD7D5"/>
<path d="M44.5377 18.4889C44.2166 18.4555 44.1581 19.0175 44.4793 19.051C44.8891 19.0124 44.9392 18.5307 44.5377 18.4889Z" fill="#5EC4BA"/>
<path d="M48.8492 14.474C47.8055 14.3654 47.6384 15.9712 48.6822 16.0798C49.7259 16.1884 49.893 14.5826 48.8492 14.474Z" fill="#5EC4BA"/>
<path d="M35.5758 21.9389C34.532 21.8303 34.3566 23.5164 35.4004 23.625C36.5244 23.7419 36.6999 22.0558 35.5758 21.9389Z" fill="#5EC4BA"/>
<path d="M21.7626 22.8557L21.6823 22.8473C21.3611 22.8139 21.3026 23.3759 21.6238 23.4094L21.7041 23.4177C22.0252 23.4511 22.0837 22.8891 21.7626 22.8557Z" fill="#5EC4BA"/>
<path d="M34.56 16.8826L34.4797 16.8743C34.2639 16.6083 33.8207 16.968 34.0365 17.2339C34.1887 17.3309 34.2607 17.4196 34.5015 17.4446C34.903 17.4864 34.9615 16.9244 34.56 16.8826Z" fill="#5EC4BA"/>
<path d="M39.6198 6.45231C39.2986 6.41889 39.2401 6.98093 39.5613 7.01434C39.8825 7.04776 39.9409 6.48573 39.6198 6.45231Z" fill="#7AC143"/>
<path d="M25.7503 25.8677L25.5094 25.8427C24.4656 25.7341 24.2902 27.4202 25.334 27.5288L25.5748 27.5538C26.7072 27.5905 26.8743 25.9847 25.7503 25.8677Z" fill="#5EC4BA"/>
<path d="M8.6891 15.8953C8.31271 15.6127 7.81426 15.7231 7.53162 16.0995C7.35433 16.2434 7.24897 16.4759 7.22391 16.7168C7.17378 17.1985 7.54182 17.5615 7.94327 17.6032C8.34472 17.645 8.6993 17.3573 8.82136 16.9642C9.17594 16.6764 8.99355 16.0893 8.6891 15.8953Z" fill="#5EC4BA"/>
<path d="M44.775 28.6586C43.7312 28.55 43.5642 30.1558 44.6079 30.2644C45.6517 30.373 45.8991 28.7756 44.775 28.6586Z" fill="#5EC4BA"/>
</g>
<defs>
<clipPath id="clip0_1461_1499">
<rect width="61.7538" height="47.3849" fill="white" transform="translate(4.90625) rotate(5.94032)"/>
</clipPath>
</defs>
</svg>
