<svg width="69" height="61" viewBox="0 0 69 61" fill="none" xmlns="http://www.w3.org/2000/svg">
<g clip-path="url(#clip0_1461_1535)">
<path d="M63.6501 26.5246C66.5916 35.7251 56.6239 47.1213 41.3864 51.9929C26.0532 56.8147 11.3231 53.3148 8.4049 44.1873C8.24148 43.6762 8.15028 43.142 8.08242 42.6807C6.60201 33.8179 16.321 23.3866 30.7642 18.7689C45.2073 14.1512 59.1752 17.0095 63.1343 25.1603C63.251 25.5254 63.4867 26.0135 63.6501 26.5246Z" fill="#F281A3"/>
<path d="M63.037 25.1107C63.2574 27.2937 62.2056 29.4811 61.5339 32.1104C60.8621 34.7397 59.4726 37.1156 56.5839 38.0391C55.1396 38.5009 53.7376 39.593 52.8135 40.9347C51.3539 43.0915 48.822 44.3839 46.2754 44.6347C44.0411 44.8662 41.7047 45.7741 39.7716 47.197C36.5832 49.4236 33.4334 50.0282 29.959 49.3684C26.8201 48.7623 23.7469 48.8595 21.0771 49.4716C17.1562 50.4033 14.4762 49.4895 12.0513 46.8844C10.5778 45.263 8.90652 44.2681 8.00849 42.7041C6.52808 33.8413 16.2471 23.41 30.6902 18.7923C45.1101 14.1015 59.0779 16.9598 63.037 25.1107Z" fill="#EE5D7C"/>
<path d="M62.1569 21.8516C62.974 24.4073 61.68 26.8331 60.9084 29.8967C60.2366 32.526 58.8471 34.9018 55.9585 35.8254C54.5142 36.2871 53.1122 37.3793 52.188 38.721C50.6562 40.9009 48.1965 42.1702 45.65 42.421C43.4156 42.6524 41.0792 43.5604 39.1462 44.9832C35.9578 47.2099 32.808 47.8145 29.3335 47.1547C26.1946 46.5486 23.1214 46.6458 20.4749 47.3309C16.4819 48.2856 13.7785 47.2988 11.3536 44.6938C9.64225 42.8264 7.58877 41.6318 6.91175 39.5143C4.39043 31.6281 14.7083 21.3273 29.9459 16.4556C45.1834 11.5839 59.6356 13.9654 62.1569 21.8516Z" fill="#AAD7D4"/>
<path d="M60.568 16.8862C63.5095 26.0867 53.5185 37.4099 38.2809 42.2815C22.9711 47.1763 8.24096 43.6764 5.32277 34.5489C5.04263 33.6727 4.90691 32.7503 4.84342 31.8048C4.39302 23.176 13.8655 13.4674 27.5865 9.08059C41.3075 4.69378 54.7275 7.08336 59.3664 14.3729C59.8399 15.1069 60.2645 15.937 60.568 16.8862Z" fill="#EE5D7C"/>
<path d="M59.3647 14.3732C59.7918 22.9289 50.3193 32.6375 36.5261 37.0474C22.7329 41.4573 9.45729 39.0215 4.84171 31.805C4.39131 23.1762 13.8638 13.4676 27.5848 9.0808C41.3058 4.69399 54.7258 7.08356 59.3647 14.3732Z" fill="#F281A3"/>
<path d="M31.3141 13.7644C33.2823 16.4349 29.9423 22.1708 23.9499 26.5817C17.9576 30.9925 11.5114 32.4901 9.56653 29.8925C7.59834 27.2219 10.9383 21.486 16.9307 17.0752C22.8997 12.5913 29.3693 11.1668 31.3141 13.7644Z" fill="#F2AEBD"/>
<path d="M41.1073 19.0035C40.8184 19.0958 40.9818 19.607 41.2707 19.5146C41.6084 19.3262 41.4684 18.888 41.1073 19.0035Z" fill="#EE3686"/>
<path d="M43.29 13.8794C42.3512 14.1795 42.8181 15.6399 43.757 15.3398C44.6958 15.0396 44.2288 13.5792 43.29 13.8794Z" fill="#EE3686"/>
<path d="M34.7119 25.394C33.7731 25.6942 34.24 27.1546 35.1788 26.8544C36.2132 26.6042 35.7229 25.0708 34.7119 25.394Z" fill="#EE3686"/>
<path d="M23.1834 31.4135L23.1112 31.4366C22.8223 31.5289 22.9857 32.0401 23.2746 31.9477L23.3468 31.9246C23.6357 31.8323 23.4723 31.3212 23.1834 31.4135Z" fill="#EE3686"/>
<path d="M31.9155 21.3786C31.8433 21.4017 31.9155 21.3786 31.9155 21.3786C31.5566 21.2519 31.3123 21.7324 31.5989 21.8822C31.7667 21.9091 31.8623 21.959 32.0789 21.8897C32.44 21.7743 32.2766 21.2631 31.9155 21.3786Z" fill="#EE3686"/>
<path d="M32.3026 10.3897C32.0137 10.4821 32.1771 10.9932 32.466 10.9009C32.7549 10.8085 32.5914 10.2974 32.3026 10.3897Z" fill="#EE3686"/>
<path d="M27.7606 32.5264L27.5439 32.5957C26.6051 32.8958 27.0954 34.4293 28.0342 34.1291L28.2509 34.0598C29.2385 33.6636 28.7716 32.2032 27.7606 32.5264Z" fill="#EE3686"/>
<path d="M9.29573 30.3003C8.86462 30.1966 8.47801 30.4812 8.37809 30.9156C8.28035 31.1078 8.27817 31.3499 8.34821 31.569C8.48828 32.0071 8.94274 32.1838 9.30382 32.0683C9.6649 31.9529 9.86038 31.5684 9.81587 31.1803C10.0114 30.7958 9.63129 30.3539 9.29573 30.3003Z" fill="#EE3686"/>
<path d="M45.1807 27.7617C44.2419 28.0619 44.7088 29.5223 45.6476 29.2221C46.6586 28.8989 46.1917 27.4385 45.1807 27.7617Z" fill="#EE3686"/>
</g>
<defs>
<clipPath id="clip0_1461_1535">
<rect width="58" height="45" fill="white" transform="translate(0 17.9004) rotate(-17.7298)"/>
</clipPath>
</defs>
</svg>
