<svg width="42" height="40" viewBox="0 0 42 40" fill="none" xmlns="http://www.w3.org/2000/svg">
<path d="M9.59888 18.2006C9.69888 17.6006 10.0989 17.0006 10.5989 16.8006C10.6989 16.7006 10.8989 16.7006 10.8989 16.6006C10.9989 16.5006 10.9989 16.3006 10.9989 16.1006C10.9989 15.7006 11.1989 15.4006 11.3989 15.0006C12.1989 13.8006 12.9989 12.6006 14.1989 11.9006C14.8989 11.5006 15.6989 11.2006 16.4989 11.0006C18.4989 10.5006 20.6989 10.2006 22.7989 10.5006C24.8989 10.7006 26.9989 11.5006 28.5989 12.8006C29.2989 13.3006 29.7989 14.0006 30.0989 14.8006C30.2989 15.5006 30.2989 16.4006 30.8989 16.9006C31.1989 17.1006 31.4989 17.2006 31.7989 17.4006C32.3989 17.9006 32.3989 18.9006 32.0989 19.6006C31.9989 19.8006 31.8989 19.9006 31.8989 20.1006C31.7989 20.6006 32.3989 21.0006 32.3989 21.6006C32.3989 22.3006 31.5989 22.6006 31.1989 23.0006C30.8989 23.4006 30.6989 23.8006 30.5989 24.3006C30.2989 25.2006 29.9989 26.1006 29.4989 26.9006C28.9989 27.7006 28.1989 28.4006 27.2989 28.6006C26.7989 28.7006 26.2989 28.7006 25.7989 28.8006C25.4989 28.9006 25.1989 29.0006 24.8989 29.0006C24.3989 29.1006 23.8989 29.1006 23.2989 29.1006C21.7989 29.1006 20.3989 29.0006 18.8989 29.0006C17.9989 29.0006 17.0989 29.0006 16.2989 28.7006C15.1989 28.4006 14.2989 27.7006 13.4989 26.8006C12.9989 26.2006 12.4989 25.6006 12.2989 24.9006C12.0989 24.2006 12.0989 23.3006 11.3989 22.9006C11.1989 22.7006 10.8989 22.7006 10.5989 22.5006C10.1989 22.2006 10.0989 21.7006 10.0989 21.3006C10.0989 20.8006 10.4989 20.3006 10.3989 19.8006C9.99887 19.2006 9.49888 18.9006 9.59888 18.2006Z" fill="#C1ECC0"/>
<path d="M9.7 16.1C8.7 16.4 8 17.3 8 18.4C8 19 8.2 19.6 8.6 20C8.2 20.4 8 21 8 21.6C8 22.7 8.7 23.6 9.7 23.9C10.5 27.7 13.8 30.5 17.7 30.5H24.1C28 30.5 31.4 27.7 32.1 23.9C33.1 23.6 33.8 22.7 33.8 21.6C33.8 21 33.6 20.4 33.2 20C33.6 19.6 33.8 19 33.8 18.4C33.8 17.3 33.1 16.4 32.1 16.1C31.3 12.3 28 9.5 24.1 9.5H17.7C13.8 9.5 10.5 12.3 9.7 16.1ZM24.1 28.9H17.7C14.7 28.9 12.1 26.9 11.4 24.1H30.4C29.6 26.8 27.1 28.9 24.1 28.9ZM32.2 21.6C32.2 22 31.8 22.4 31.4 22.4H10.4C10 22.4 9.6 22 9.6 21.6C9.6 21.2 10 20.8 10.4 20.8H31.4C31.8 20.8 32.2 21.2 32.2 21.6ZM29.4 17.6H31.3C31.7 17.6 32.1 18 32.1 18.4C32.1 18.8 31.7 19.2 31.3 19.2H10.3C9.9 19.2 9.5 18.8 9.5 18.4C9.5 18 9.9 17.6 10.3 17.6H12.2L12.8 17C12.9 16.9 13.1 16.8 13.2 16.8H13.7C13.9 16.8 14 16.9 14.1 17C14.5 17.4 15.1 17.6 15.6 17.6H16.1C16.7 17.6 17.2 17.4 17.6 17C17.7 16.9 17.9 16.8 18 16.8H18.5C18.7 16.8 18.8 16.9 18.9 17C19.3 17.4 19.9 17.6 20.4 17.6H20.9C21.5 17.6 22 17.4 22.4 17C22.5 16.9 22.7 16.8 22.8 16.8H23.3C23.5 16.8 23.6 16.9 23.7 17C24.1 17.4 24.7 17.6 25.2 17.6H26C26.6 17.6 27.1 17.4 27.5 17C27.6 16.9 27.8 16.8 27.9 16.8H28.4C28.6 16.8 28.7 16.9 28.8 17L29.4 17.6ZM24.1 11.1C27.1 11.1 29.7 13.1 30.4 15.9H30.1L29.9 15.7C29.5 15.3 28.9 15.1 28.4 15.1H27.9C27.3 15.1 26.8 15.3 26.4 15.7C26.3 15.9 26.1 16 26 16H25.5C25.3 16 25.2 15.9 25.1 15.8C24.7 15.4 24.1 15.2 23.6 15.2H23.1C22.5 15.2 22 15.4 21.6 15.8C21.5 15.9 21.3 16 21.2 16H20.7C20.5 16 20.4 15.9 20.3 15.8C19.9 15.4 19.3 15.2 18.8 15.2H18.3C17.7 15.2 17.2 15.4 16.8 15.8C16.7 15.9 16.5 16 16.4 16H15.9C15.7 16 15.6 15.9 15.5 15.8C15.1 15.4 14.5 15.2 14 15.2H13.5C12.9 15.2 12.4 15.4 12 15.8L11.7 16H11.4C12.2 13.2 14.7 11.2 17.7 11.2H24.1V11.1Z" fill="black"/>
<path d="M31.2016 2.8C31.2016 3.2 30.8016 3.6 30.4016 3.6H29.2016V4.8C29.2016 5.2 28.8016 5.6 28.4016 5.6C28.0016 5.6 27.6016 5.2 27.6016 4.8V3.7H26.4016C26.0016 3.7 25.6016 3.3 25.6016 2.9C25.6016 2.5 25.8016 2 26.3016 2H27.5016V0.8C27.5016 0.4 27.9016 0 28.3016 0C28.7016 0 29.1016 0.4 29.1016 0.8V2H30.3016C30.8016 2 31.2016 2.4 31.2016 2.8Z" fill="black"/>
<path d="M41.8031 26.7004C41.8031 27.1004 41.4031 27.5004 41.0031 27.5004H39.8031V28.7004C39.8031 29.1004 39.4031 29.5004 39.0031 29.5004C38.6031 29.5004 38.2031 29.1004 38.2031 28.7004V27.5004H37.0031C36.6031 27.5004 36.2031 27.1004 36.2031 26.7004C36.2031 26.3004 36.6031 25.9004 37.0031 25.9004H38.2031V24.7004C38.2031 24.3004 38.6031 23.9004 39.0031 23.9004C39.4031 23.9004 39.8031 24.3004 39.8031 24.7004V25.9004H41.0031C41.5031 25.9004 41.8031 26.2004 41.8031 26.7004Z" fill="black"/>
<path d="M5.7 11.4C5.7 11.8 5.3 12.2 4.9 12.2H3.7V13.4C3.7 13.8 3.3 14.2 2.9 14.2C2.5 14.2 2 13.9 2 13.4V12.2H0.8C0.4 12.2 0 11.8 0 11.4C0 11 0.4 10.6 0.8 10.6H2V9.3C2 8.9 2.4 8.5 2.8 8.5C3.2 8.5 3.6 8.9 3.6 9.3V10.5H4.8C5.3 10.6 5.7 10.9 5.7 11.4Z" fill="black"/>
<path d="M16.3969 36.3996C16.3969 36.7996 15.9969 37.1996 15.5969 37.1996H14.3969V38.3996C14.3969 38.7996 13.9969 39.1996 13.5969 39.1996C13.1969 39.1996 12.7969 38.7996 12.7969 38.3996V37.1996H11.5969C11.1969 37.1996 10.7969 36.7996 10.7969 36.3996C10.7969 35.9996 11.1969 35.5996 11.5969 35.5996H12.7969V34.3996C12.7969 33.9996 13.1969 33.5996 13.5969 33.5996C13.9969 33.5996 14.3969 33.9996 14.3969 34.3996V35.5996H15.5969C15.9969 35.5996 16.3969 35.8996 16.3969 36.3996Z" fill="black"/>
<path d="M38.4 11.8996C39.1732 11.8996 39.8 11.2728 39.8 10.4996C39.8 9.72641 39.1732 9.09961 38.4 9.09961C37.6268 9.09961 37 9.72641 37 10.4996C37 11.2728 37.6268 11.8996 38.4 11.8996Z" fill="black"/>
<path d="M29.1031 37.8996C29.8763 37.8996 30.5031 37.2728 30.5031 36.4996C30.5031 35.7264 29.8763 35.0996 29.1031 35.0996C28.3299 35.0996 27.7031 35.7264 27.7031 36.4996C27.7031 37.2728 28.3299 37.8996 29.1031 37.8996Z" fill="black"/>
<path d="M2.00156 29.5002C2.77476 29.5002 3.40156 28.8734 3.40156 28.1002C3.40156 27.327 2.77476 26.7002 2.00156 26.7002C1.22836 26.7002 0.601562 27.327 0.601562 28.1002C0.601562 28.8734 1.22836 29.5002 2.00156 29.5002Z" fill="black"/>
<path d="M12.6969 3.8C13.4701 3.8 14.0969 3.1732 14.0969 2.4C14.0969 1.6268 13.4701 1 12.6969 1C11.9237 1 11.2969 1.6268 11.2969 2.4C11.2969 3.1732 11.9237 3.8 12.6969 3.8Z" fill="black"/>
</svg>
