<svg width="45" height="35" viewBox="0 0 45 35" fill="none" xmlns="http://www.w3.org/2000/svg">
<path d="M0 25.6352V8.44628C0 8.19226 0.169349 7.93823 0.338698 7.85356H0.423372L17.0196 0.0635059C17.2736 -0.0211686 17.5276 -0.0211686 17.697 0.0635059L34.2932 7.85356H34.3778C34.5472 7.93823 34.7165 8.19226 34.7165 8.44628V25.6352C34.7165 25.8892 34.5472 26.1432 34.2932 26.3126L17.7816 34.1026C17.6123 34.1873 17.4429 34.1873 17.2736 34.1873H17.1889H17.1042L0.423372 26.3126C0.169349 26.1432 0 25.8892 0 25.6352Z" fill="#E9D4C6"/>
<path d="M0 25.6352V8.44628C0 8.19226 0.169349 7.93823 0.338698 7.85356H0.423372L17.0196 0.0635059C17.2736 -0.0211686 17.5276 -0.0211686 17.697 0.0635059L34.2932 7.85356H34.3778C34.5472 7.93823 34.7165 8.19226 34.7165 8.44628V25.6352C34.7165 25.8892 34.5472 26.1432 34.2932 26.3126L17.7816 34.1026C17.6123 34.1873 17.4429 34.1873 17.2736 34.1873H17.1889H17.1042L0.423372 26.3126C0.169349 26.1432 0 25.8892 0 25.6352ZM17.3583 1.50297L2.54023 8.44628L7.282 10.6478L22.1 3.70451L17.3583 1.50297ZM17.3583 15.3896L32.1763 8.44628L27.1805 6.07539L12.3625 13.0187L17.3583 15.3896ZM10.5843 12.2566L25.4023 5.31332L23.8782 4.55125L9.06017 11.4946L10.5843 12.2566ZM9.82224 13.5267L8.04408 12.68V19.6233L9.82224 20.5547V13.5267ZM33.1077 9.63172L18.1203 16.6597V32.2398L33.1077 25.2118V9.63172ZM1.52414 25.2118L16.5962 32.1551V16.6597L11.4311 14.2041V21.6555C11.4311 22.0789 11.0924 22.4176 10.669 22.4176C10.5843 22.4176 10.415 22.4176 10.3303 22.3329L6.94331 20.6394C6.68928 20.4701 6.51993 20.3007 6.51993 19.962V11.8333L1.60881 9.54705V25.2118H1.52414Z" fill="black"/>
<path d="M22.0173 23.6033C22.1019 23.0106 22.4406 22.5026 23.0334 22.2485C23.118 22.1639 23.2874 22.1639 23.372 22.0792C23.4567 21.9945 23.4567 21.8252 23.4567 21.6558C23.4567 21.3171 23.7107 20.9784 23.8801 20.6397C24.6422 19.5389 25.4042 18.3535 26.505 17.6761C27.1824 17.2527 27.9445 16.9987 28.7065 16.8294C30.6541 16.3213 32.6016 16.152 34.6338 16.3213C36.5813 16.5753 38.5288 17.2527 40.0529 18.5229C40.6456 19.0309 41.2384 19.6236 41.4924 20.3857C41.6617 21.0631 41.6617 21.9098 42.2545 22.3332C42.5085 22.5026 42.8472 22.5872 43.1012 22.8413C43.6939 23.2646 43.6939 24.2807 43.3552 24.9581C43.2706 25.1275 43.1859 25.2968 43.1859 25.3815C43.1012 25.8895 43.6092 26.2282 43.6092 26.7363C43.6092 27.329 42.8472 27.6677 42.4238 28.0911C42.0851 28.4298 41.9158 28.8531 41.8311 29.3612C41.5771 30.2079 41.2384 31.1394 40.7303 31.8167C40.2223 32.5788 39.4602 33.2562 38.6135 33.4256C38.1054 33.5102 37.682 33.5102 37.174 33.5949C36.92 33.6796 36.6659 33.7643 36.3272 33.7643C35.8192 33.8489 35.3111 33.8489 34.8031 33.8489C33.4483 33.8489 32.0088 33.7643 30.6541 33.7643C29.8073 33.7643 28.9606 33.7643 28.1985 33.5102C27.1824 33.1715 26.3357 32.4941 25.5736 31.7321C25.0655 31.224 24.6422 30.6313 24.3881 29.8692C24.2188 29.1918 24.1341 28.3451 23.5414 27.9217C23.2874 27.7524 23.0334 27.7524 22.864 27.583C22.5253 27.329 22.356 26.821 22.356 26.3976C22.356 25.8895 22.6947 25.4662 22.61 24.9581C22.4406 24.5347 21.9326 24.196 22.0173 23.6033Z" fill="#9EBFFF"/>
<path d="M22.7741 21.825C21.9274 22.079 21.25 22.9257 21.25 23.8571C21.25 24.4499 21.504 24.8732 21.8427 25.2966C21.504 25.6353 21.25 26.1434 21.25 26.7361C21.25 27.6675 21.9274 28.5142 22.7741 28.7683C23.4515 32.1552 26.4151 34.6108 29.8868 34.6108H35.56C39.0316 34.6108 41.9952 32.1552 42.6726 28.7683C43.5194 28.5142 44.1968 27.6675 44.1968 26.7361C44.1968 26.1434 43.9428 25.72 43.6041 25.2966C43.9428 24.9579 44.1968 24.4499 44.1968 23.8571C44.1968 22.9257 43.5194 22.079 42.6726 21.825C41.9952 18.438 39.0316 15.9824 35.56 15.9824H29.9715C26.4151 15.9824 23.4515 18.438 22.7741 21.825ZM35.56 33.0867H29.9715C27.3466 33.0867 25.0604 31.3085 24.383 28.7683H41.2332C40.4711 31.3085 38.1849 33.0867 35.56 33.0867ZM42.7573 26.6514C42.7573 27.0748 42.4186 27.3288 42.0799 27.3288H23.4515C23.0282 27.3288 22.7741 26.9901 22.7741 26.6514C22.7741 26.3127 23.1128 25.974 23.4515 25.974H41.9952C42.4186 25.974 42.7573 26.3127 42.7573 26.6514ZM40.3018 23.0951H41.9952C42.4186 23.0951 42.6726 23.4338 42.6726 23.7725C42.6726 24.1112 42.4186 24.5345 41.9952 24.5345H23.4515C23.0282 24.5345 22.7741 24.1958 22.7741 23.8571C22.7741 23.5185 23.1128 23.1798 23.4515 23.1798H25.145L25.7377 22.587C25.8224 22.5024 25.9918 22.4177 26.0764 22.4177H26.4998C26.6692 22.4177 26.7538 22.5024 26.8385 22.587C27.1772 22.9257 27.6853 23.1798 28.1933 23.1798H28.6167C29.1247 23.1798 29.6328 23.0104 29.9715 22.587C30.0561 22.5024 30.2255 22.4177 30.3102 22.4177H30.7335C30.9029 22.4177 30.9876 22.5024 31.0722 22.587C31.4109 22.9257 31.919 23.1798 32.427 23.1798H32.8504C33.3584 23.1798 33.8665 23.0104 34.2052 22.587C34.2899 22.5024 34.4592 22.4177 34.5439 22.4177H34.9673C35.1366 22.4177 35.2213 22.5024 35.306 22.587C35.6447 22.9257 36.1527 23.1798 36.6608 23.1798H37.2535C37.7615 23.1798 38.2696 23.0104 38.6083 22.587C38.6929 22.5024 38.8623 22.4177 38.947 22.4177H39.3703C39.5397 22.4177 39.6244 22.5024 39.709 22.587L40.3018 23.0951ZM35.56 17.4219C38.1849 17.4219 40.4711 19.2001 41.1485 21.7403H40.8945L40.7251 21.5709C40.3864 21.2322 39.8784 20.9782 39.3703 20.9782H38.947C38.4389 20.9782 37.9309 21.1476 37.5922 21.5709C37.5075 21.6556 37.3382 21.7403 37.2535 21.7403H36.8301C36.6608 21.7403 36.5761 21.6556 36.4914 21.5709C36.1527 21.2322 35.6447 20.9782 35.1366 20.9782H34.7132C34.2052 20.9782 33.6972 21.1476 33.3585 21.5709C33.2738 21.6556 33.1044 21.7403 33.0198 21.7403H32.5964C32.427 21.7403 32.3424 21.6556 32.2577 21.5709C31.919 21.2322 31.4109 20.9782 30.9029 20.9782H30.4795C29.9715 20.9782 29.4634 21.1476 29.1247 21.5709C29.0401 21.6556 28.8707 21.7403 28.786 21.7403H28.3627C28.1933 21.7403 28.1086 21.6556 28.024 21.5709C27.6853 21.2322 27.1772 20.9782 26.6692 20.9782H26.2458C25.7377 20.9782 25.2297 21.1476 24.891 21.5709L24.5523 21.6556H24.2983C24.9757 19.2001 27.2619 17.3372 29.8868 17.3372H35.56V17.4219Z" fill="black"/>
</svg>
