<svg width="55" height="51" viewBox="0 0 55 51" fill="none" xmlns="http://www.w3.org/2000/svg">
<path d="M38.0725 18.0195L37.7097 34.4773C37.7097 34.4773 35.6542 37 27.553 37C19.5728 37 18.3032 34.1169 18.3032 34.1169L18.0009 18.9805C17.6382 19.0406 18.4241 18.9805 18.0009 18.9805C13.7085 19.0406 9.47656 15.6169 9.47656 11.3523C9.47656 7.08766 12.983 3.6039 17.2754 3.6039C18.3637 3.6039 19.4519 3.84416 20.4192 4.26461C21.6888 1.74188 24.4093 0 27.4321 0C30.334 0 32.6918 1.62175 34.0823 3.96429C35.3519 3.00325 36.9238 2.52273 38.677 2.52273C42.9694 2.52273 46.4759 5.94643 46.4759 10.2711C46.5364 14.5357 42.4253 18.0195 38.0725 18.0195C37.8306 18.0195 38.4352 18.0195 38.0725 18.0195Z" fill="white"/>
<path d="M9.38257 21.6009C9.38257 21.0431 9.33185 20.5866 9.28114 20.333C9.1797 19.7244 8.8754 19.1665 8.36824 18.7101C7.86107 18.2536 7.30319 18.0508 6.59316 18.0508C5.88313 18.0508 5.22381 18.3044 4.71664 18.8115C4.15876 18.3044 3.55016 18.0508 2.84013 18.0508C2.18081 18.0508 1.5215 18.3044 1.06505 18.7101C0.608599 19.1158 0.253583 19.623 0.101433 20.333C0.0507165 20.6373 0 21.0431 0 21.6009V25.9626C0 26.2162 0.202866 26.3176 0.355016 26.3176C0.608599 26.3176 0.710033 26.1147 0.710033 25.9626V21.4488C0.710033 20.6373 0.862182 19.978 1.2172 19.4708C1.57221 18.913 2.1301 18.6594 2.89085 18.6594C3.44873 18.6594 3.90518 18.8622 4.31091 19.268C3.9559 19.8766 3.80375 20.5359 3.80375 21.4488V25.9119C3.80375 26.1147 3.95589 26.2669 4.15876 26.2669C4.41234 26.2669 4.51378 26.064 4.51378 25.9119V21.3981C4.51378 20.7388 4.61521 20.2316 4.76736 19.8766C4.91951 20.2823 5.02094 20.8909 5.02094 21.6009V25.9626C5.02094 26.1654 5.17309 26.3176 5.37596 26.3176C5.62954 26.3176 5.73098 26.1147 5.73098 25.9626V21.2966C5.73098 20.3837 5.57883 19.7244 5.22381 19.2173C5.57883 18.8622 6.03528 18.6594 6.59316 18.6594C7.10032 18.6594 7.55677 18.8115 7.91179 19.1158C8.2668 19.3694 8.52039 19.7751 8.67254 20.2823C8.77397 20.5866 8.77397 20.9416 8.77397 21.4488V25.9626C8.77397 26.1654 8.92612 26.3176 9.12899 26.3176C9.38257 26.3176 9.484 26.1147 9.484 25.9626L9.43329 25.709V21.6009H9.38257Z" fill="black"/>
<path d="M17.6002 19.3188C16.7887 18.5073 15.7744 18.1016 14.6079 18.1016C13.4414 18.1016 12.4271 18.5073 11.6156 19.3188C10.8042 20.1302 10.3984 21.1446 10.3984 22.311C10.3984 23.4775 10.8042 24.4919 11.6664 25.3033C12.5285 26.1148 13.5429 26.5205 14.7093 26.5205C15.5715 26.5205 16.383 26.2669 17.0423 25.8105V25.9119C17.0423 26.2669 17.2452 26.3684 17.3973 26.3684C17.5495 26.3684 17.7523 26.2162 17.7523 25.9119V25.2526C18.5638 24.3904 18.9695 23.4268 18.9695 22.311C18.8681 21.0938 18.4117 20.0795 17.6002 19.3188ZM16.9409 22.3618V24.999C16.2308 25.6076 15.4701 25.9119 14.6079 25.9119C13.6443 25.9119 12.7821 25.5569 12.1228 24.8469C11.4128 24.1876 11.1085 23.3761 11.1085 22.3618C11.1085 21.3474 11.4635 20.536 12.1735 19.8259C12.8836 19.1159 13.695 18.7609 14.7093 18.7609C15.673 18.7609 16.5351 19.1159 17.1945 19.8259C17.8538 20.536 18.2595 21.3474 18.2595 22.311C18.2595 23.0211 18.0566 23.6297 17.7016 24.1876V22.3618C17.6002 21.8546 16.9409 21.8546 16.9409 22.3618Z" fill="black"/>
<path d="M23.4321 26.5206C24.3958 26.5206 25.3086 26.2163 26.1201 25.557C26.323 25.4048 26.4751 25.3034 26.5766 25.1512H26.6273V25.1005C26.678 25.0498 26.678 24.9991 26.678 24.8977C26.678 24.7455 26.5766 24.5934 26.3737 24.5934H26.1708L26.1201 24.6948V24.7962C25.7651 25.1005 25.3594 25.4048 24.9536 25.6077C24.4972 25.8105 23.99 25.9627 23.5336 25.9627C22.5192 25.9627 21.7078 25.6077 21.0485 24.8977C20.3384 24.1876 19.9834 23.3762 19.9834 22.3618C19.9834 21.3982 20.3384 20.536 21.0485 19.8767C21.7078 19.1667 22.5192 18.8624 23.5336 18.8624C24.4972 18.8624 25.3594 19.2174 26.0694 19.9274L26.2215 20.0289H26.4244L26.4751 19.9781C26.5766 19.9274 26.6273 19.826 26.6273 19.7246V19.6231L26.5766 19.5724C26.5766 19.5724 26.5766 19.5217 26.5258 19.5217C26.4751 19.471 26.4751 19.4203 26.4244 19.4203C25.6637 18.6088 24.6493 18.1523 23.4321 18.1523C22.2657 18.1523 21.2513 18.5581 20.4399 19.3695C19.6284 20.181 19.2227 21.1953 19.2227 22.3618C19.2227 23.4776 19.6284 24.4919 20.4399 25.3541C21.302 26.1148 22.3164 26.5206 23.4321 26.5206Z" fill="black"/>
<path d="M33.8775 19.3188C33.0661 18.5073 32.0517 18.1016 30.8853 18.1016C29.7188 18.1016 28.7044 18.5073 27.893 19.3188C27.0815 20.1302 26.6758 21.1446 26.6758 22.311C26.6758 23.4775 27.0815 24.4919 27.893 25.3033C28.7552 26.1148 29.7695 26.5205 30.936 26.5205C31.7982 26.5205 32.6096 26.2669 33.2689 25.8105V25.9119C33.2689 26.2669 33.4718 26.3684 33.624 26.3684C33.7761 26.3684 33.979 26.2162 33.979 25.9119V25.2526C34.7904 24.3904 35.1962 23.4268 35.1962 22.311C35.1455 21.0431 34.7397 20.0795 33.8775 19.3188ZM33.2182 22.3618V24.999C32.5082 25.6076 31.7474 25.9119 30.8853 25.9119C29.9216 25.9119 29.0595 25.5569 28.3494 24.8469C27.6394 24.1876 27.3351 23.3761 27.3351 22.3618C27.3351 21.3474 27.6901 20.536 28.4001 19.8259C29.1102 19.1159 29.9216 18.7609 30.936 18.7609C31.8996 18.7609 32.7618 19.1159 33.4211 19.8259C34.1311 20.536 34.4861 21.3474 34.4861 22.311C34.4861 23.0211 34.2833 23.6804 33.9283 24.2383V22.4125C33.8775 21.8546 33.2182 21.8546 33.2182 22.3618Z" fill="black"/>
<path d="M36.2105 26.3685C36.4641 26.3685 36.5655 26.1656 36.5655 26.0135V22.7169C36.5655 21.8547 36.6162 21.3476 36.7176 20.9925C36.8698 20.4347 37.1741 19.9782 37.5798 19.6232C37.9856 19.2682 38.442 19.0653 38.9492 18.9132C39.2028 18.9132 39.3042 18.7103 39.3042 18.5581C39.3042 18.3046 39.152 18.2538 39.0506 18.2031H38.9999H38.9492C38.6956 18.2031 38.3913 18.3046 38.0363 18.5074C37.4277 18.8117 36.9205 19.2175 36.5655 19.7753C36.5655 19.471 36.5655 19.0653 36.5655 18.6089C36.5655 18.1017 35.8555 18.1017 35.8555 18.6089V26.0135C35.8555 26.2163 36.0076 26.3685 36.2105 26.3685Z" fill="black"/>
<path d="M46.6588 19.3188C45.8473 18.5073 44.833 18.1016 43.6665 18.1016C42.5 18.1016 41.4857 18.5073 40.6742 19.3188C39.8628 20.1302 39.457 21.1446 39.457 22.311C39.457 23.4775 39.8628 24.4919 40.6742 25.3033C41.5364 26.1148 42.5507 26.5205 43.7172 26.5205C44.8837 26.5205 45.898 26.1148 46.7095 25.2526C47.521 24.3904 47.9267 23.3761 47.9267 22.2096C47.9267 21.0938 47.521 20.0795 46.6588 19.3188ZM43.6665 18.7609C44.6301 18.7609 45.4923 19.1159 46.1516 19.8259C46.8617 20.536 47.2167 21.3474 47.2167 22.311C47.2167 23.3254 46.8617 24.1876 46.1009 24.8469C45.4416 25.5569 44.6301 25.8612 43.6158 25.8612C42.6522 25.8612 41.79 25.5062 41.1307 24.7962C40.4206 24.0861 40.0656 23.2747 40.0656 22.311C40.0656 21.2967 40.4206 20.4852 41.1307 19.7752C41.79 19.0652 42.6522 18.7609 43.6665 18.7609Z" fill="black"/>
<path d="M54.5202 20.2315C54.4187 19.6229 54.1144 19.1158 53.5566 18.6593C53.0494 18.2536 52.4408 18 51.7815 18C51.2743 18 50.8179 18.1014 50.4121 18.355C50.1078 18.5579 49.8035 18.7608 49.6007 19.065V18.5579C49.6007 18.0507 48.8906 18.0507 48.8906 18.5579V25.9625C48.8906 26.2161 49.0935 26.3175 49.2456 26.3175C49.4992 26.3175 49.6007 26.1147 49.6007 25.9625V21.753C49.6007 21.2966 49.6007 20.8908 49.6514 20.688C49.7528 20.0794 49.9557 19.6229 50.3107 19.2679C50.7164 18.9129 51.2236 18.71 51.7308 18.71C52.1365 18.71 52.5422 18.8115 52.8465 19.0143C53.303 19.2679 53.6073 19.6736 53.7087 20.1808C53.8101 20.4851 53.8101 21.043 53.8101 21.753V25.9625C53.8101 26.1654 53.9623 26.3175 54.1652 26.3175C54.2666 26.3175 54.368 26.2668 54.4187 26.2161H54.5709V21.398C54.6216 20.9416 54.5709 20.5358 54.5202 20.2315Z" fill="black"/>
<path d="M15.8753 36.1055C15.5203 36.1055 15.4696 36.3083 15.4696 36.4605C15.4696 36.7141 15.6725 36.8155 15.8246 36.8155C16.2304 36.8155 16.5347 36.9169 16.8897 37.1198C17.549 37.4748 17.904 38.0834 17.904 38.8442C17.904 39.402 17.7011 39.8585 17.2954 40.2642C16.8897 40.67 16.4332 40.8728 15.8753 40.8728C15.0639 40.8728 14.506 40.5178 14.0496 39.8078C13.8974 39.6049 13.796 39.3006 13.796 38.9456C13.796 38.692 13.6438 38.5399 13.441 38.5399C13.1874 38.5399 13.0859 38.7427 13.0859 38.8949C13.0859 39.6049 13.3902 40.2642 13.9481 40.7207C14.4553 41.2278 15.1146 41.4814 15.8246 41.4814C16.5854 41.4814 17.2447 41.2278 17.7519 40.67C18.259 40.1628 18.5633 39.5035 18.5633 38.7427C18.5633 37.982 18.3097 37.3734 17.8026 36.8662C17.2954 36.4098 16.6361 36.1055 15.8753 36.1055Z" fill="black"/>
<path d="M15.7236 33.9757C16.3829 33.9757 16.8394 34.2293 17.1437 34.7872C17.1944 34.8886 17.2958 35.0915 17.3465 35.2944C17.3465 35.5479 17.4987 35.7001 17.7015 35.7001C17.9044 35.7001 18.0566 35.5479 18.0566 35.3451C18.0566 34.7365 17.7523 34.2293 17.2451 33.925C16.7886 33.5193 16.2815 33.3164 15.6729 33.3164C15.0643 33.3164 14.5064 33.5193 14.0499 33.9757C13.6442 34.4829 13.3906 34.9901 13.3906 35.5987C13.3906 36.2073 13.5935 36.7651 14.0499 37.2216C14.4557 37.678 15.0136 37.9316 15.6222 37.9316C15.8757 37.9316 16.0279 37.7795 16.0279 37.5766C16.0279 37.3737 15.8757 37.2216 15.6729 37.2216C15.2164 37.2216 14.8614 37.0694 14.5571 36.7651C14.2528 36.4608 14.1007 36.0551 14.1007 35.5987C14.1007 35.1422 14.2528 34.7365 14.5571 34.4322C14.9628 34.1279 15.3179 33.9757 15.7236 33.9757Z" fill="black"/>
<path d="M24.7 36.7143C24.7 36.1564 24.6493 35.7507 24.5986 35.4971C24.4464 34.8378 24.1421 34.3306 23.6857 33.9756C23.1785 33.5191 22.6713 33.3163 22.012 33.3163C21.5556 33.3163 21.0991 33.4177 20.6934 33.6713C20.3384 33.8234 20.0848 34.077 19.8819 34.3306V31.2876C19.8819 30.7804 19.1719 30.7804 19.1719 31.2876V40.9745C19.1719 41.2281 19.3747 41.3295 19.5269 41.3295C19.7805 41.3295 19.8819 41.1266 19.8819 40.9745V36.9171C19.8819 36.6128 19.8819 36.3593 19.9326 36.1564C19.9326 36.0042 19.9326 35.9028 19.9326 35.8521C20.0341 35.2942 20.2369 34.8378 20.5919 34.4827C20.9977 34.1277 21.4034 33.9756 22.012 33.9756C22.4177 33.9756 22.8235 34.077 23.1278 34.2799C23.5842 34.5842 23.8378 34.9392 23.9392 35.3956C24.0407 35.6999 24.0407 36.2071 24.0407 36.9171V40.9745C24.0407 41.1773 24.1928 41.3295 24.3957 41.3295C24.6493 41.3295 24.7507 41.1266 24.7507 40.9745L24.7 40.7209V36.7143V36.7143Z" fill="black"/>
<path d="M32.5106 34.4828C31.6991 33.6714 30.7355 33.2656 29.6198 33.2656C28.504 33.2656 27.4897 33.6714 26.7289 34.4828C25.9175 35.2943 25.5117 36.2579 25.5117 37.3737C25.5117 38.4894 25.9175 39.5038 26.7289 40.2645C27.5404 41.076 28.504 41.4817 29.6705 41.4817C30.837 41.4817 31.8006 41.076 32.5613 40.2645C33.3728 39.4531 33.7785 38.4894 33.7785 37.323C33.7785 36.1565 33.3728 35.2436 32.5106 34.4828ZM27.1854 39.8081C26.5261 39.1488 26.171 38.3373 26.171 37.3737C26.171 36.4101 26.5261 35.5986 27.1854 34.8886C27.8447 34.2292 28.6561 33.8742 29.6705 33.8742C30.5834 33.8742 31.4456 34.2292 32.1049 34.8886C32.7642 35.5479 33.1192 36.3593 33.1192 37.323C33.1192 38.2866 32.7642 39.1488 32.0542 39.8081C31.3948 40.4674 30.5834 40.8224 29.6198 40.8224C28.7069 40.8224 27.8447 40.4674 27.1854 39.8081Z" fill="black"/>
<path d="M38.5455 33.2656C37.3791 33.2656 36.4154 33.6714 35.6547 34.4828C34.894 35.2943 34.4375 36.2579 34.4375 37.3737C34.4375 38.4894 34.8432 39.4531 35.604 40.2645V43.5611C35.604 43.764 35.7561 43.9161 35.959 43.9161C36.2126 43.9161 36.314 43.7132 36.314 43.5611V40.8731C36.9733 41.3296 37.7341 41.5324 38.5455 41.5324C39.712 41.5324 40.7264 41.1267 41.4871 40.3659C42.2986 39.5545 42.755 38.6416 42.755 37.4751C42.755 36.3086 42.2986 35.345 41.4871 34.5335C40.6756 33.6714 39.712 33.2656 38.5455 33.2656ZM35.959 37.0187C35.8068 37.0187 35.604 37.1708 35.604 37.4244V39.1488C35.2997 38.6416 35.1475 38.033 35.1475 37.3737C35.1475 36.4608 35.5025 35.5986 36.1619 34.9393C36.8719 34.2292 37.6834 33.9249 38.647 33.9249C39.6106 33.9249 40.4221 34.28 41.1321 34.9393C41.7914 35.5986 42.1464 36.4101 42.1464 37.4244C42.1464 38.388 41.7914 39.1995 41.0814 39.8588C40.4221 40.5181 39.6106 40.8731 38.647 40.8731C37.7848 40.8731 37.024 40.5688 36.3647 39.9602V37.4244C36.314 37.0694 36.1111 37.0187 35.959 37.0187Z" fill="black"/>
<path d="M22.4766 46.1572V50.5692L26.4581 48.3094L22.4766 46.1572Z" fill="black"/>
<path d="M30.2784 46.1572V50.5692L26.2969 48.3094L30.2784 46.1572Z" fill="black"/>
</svg>
