<svg width="55" height="52" viewBox="0 0 55 52" fill="none" xmlns="http://www.w3.org/2000/svg">
<path d="M52.5159 36.3677C51.7626 32.4128 48.2786 29.5879 44.2295 29.5879H37.638C33.589 29.5879 30.1049 32.507 29.3516 36.3677C28.3158 36.6502 27.5625 37.5918 27.5625 38.7218C27.5625 39.3809 27.845 39.9459 28.2216 40.4167C27.845 40.8876 27.5625 41.4525 27.5625 42.1117C27.5625 43.2417 28.3158 44.1833 29.3516 44.4658C30.1049 48.4207 33.589 51.2456 37.638 51.2456H44.2295C48.2786 51.2456 51.7626 48.3265 52.5159 44.4658C53.5517 44.1833 54.3051 43.2417 54.3051 42.1117C54.3051 41.4525 54.0226 40.8876 53.6459 40.4167C54.0226 39.9459 54.3051 39.3809 54.3051 38.7218C54.3051 37.686 53.5517 36.6502 52.5159 36.3677ZM37.638 31.2828H44.2295C47.3369 31.2828 49.9735 33.3544 50.821 36.2735H50.5385L50.3502 36.0852C49.8794 35.6144 49.3144 35.426 48.7494 35.426H48.2786C47.7136 35.426 47.1486 35.6144 46.6778 36.0852C46.5836 36.1794 46.3953 36.2735 46.3011 36.2735H45.8303C45.642 36.2735 45.5478 36.1794 45.4536 36.0852C44.9828 35.6144 44.4178 35.426 43.8529 35.426H43.382C42.8171 35.426 42.2521 35.6144 41.7813 36.0852C41.6871 36.1794 41.4988 36.2735 41.4046 36.2735H40.9338C40.7455 36.2735 40.6513 36.1794 40.5571 36.0852C40.0863 35.6144 39.5213 35.426 38.9563 35.426H38.4855C37.9205 35.426 37.3555 35.6144 36.8847 36.0852C36.7906 36.1794 36.6022 36.2735 36.5081 36.2735H36.0373C35.8489 36.2735 35.7548 36.1794 35.6606 36.0852C35.1898 35.6144 34.6248 35.426 34.0598 35.426H33.589C33.024 35.426 32.459 35.6144 31.9882 36.0852L31.4232 36.2735H31.1407C31.894 33.3544 34.5306 31.2828 37.638 31.2828ZM30.1049 37.9685H32.0824L32.7415 37.3093C32.8357 37.2152 33.024 37.121 33.1182 37.121H33.589C33.7773 37.121 33.8715 37.2152 33.9656 37.3093C34.4365 37.7801 35.0015 37.9685 35.5664 37.9685H36.1314C36.6964 37.9685 37.2614 37.7801 37.7322 37.3093C37.8264 37.2152 38.0147 37.121 38.1089 37.121H38.5797C38.768 37.121 38.8622 37.2152 38.9563 37.3093C39.4272 37.7801 39.9921 37.9685 40.5571 37.9685H41.0279C41.5929 37.9685 42.1579 37.7801 42.6287 37.3093C42.7229 37.2152 42.9112 37.121 43.0054 37.121H43.6645C43.8529 37.121 43.947 37.2152 44.0412 37.3093C44.512 37.7801 45.077 37.9685 45.642 37.9685H46.1128C46.6778 37.9685 47.2428 37.7801 47.7136 37.3093C47.8077 37.2152 47.9961 37.121 48.0902 37.121H48.5611C48.7494 37.121 48.8435 37.2152 48.9377 37.3093L49.5969 37.9685H51.5743C52.0451 37.9685 52.4218 38.3451 52.4218 38.8159C52.4218 39.2868 52.0451 39.6634 51.5743 39.6634H30.1049C29.6341 39.6634 29.2575 39.2868 29.2575 38.8159C29.2575 38.3451 29.6341 37.9685 30.1049 37.9685ZM44.2295 49.6448H37.638C34.5306 49.6448 31.894 47.5732 31.0466 44.6541H50.7268C49.9735 47.5732 47.3369 49.6448 44.2295 49.6448ZM51.7626 42.9592H30.1049C29.6341 42.9592 29.2575 42.5825 29.2575 42.1117C29.2575 41.6409 29.6341 41.2642 30.1049 41.2642H51.8568C52.3276 41.2642 52.7043 41.6409 52.7043 42.1117C52.6101 42.5825 52.2334 42.9592 51.7626 42.9592Z" fill="#57B6BB"/>
<path d="M28.4046 44.8826H25.0147V20.5968H36.0319V28.7805C36.3143 28.7805 36.5968 28.7805 36.8793 28.7805C37.256 28.7805 37.5385 28.7806 37.821 28.8747V20.691H39.6101C40.0809 20.691 40.5517 20.2202 40.5517 19.7494V11.3687C40.5517 10.8979 40.0809 10.4271 39.6101 10.4271H29.1579C30.0054 9.48547 30.5703 8.16715 30.5703 6.7547C30.5703 3.74145 28.1221 1.2932 25.1088 1.2932C23.3197 1.2932 21.7189 2.14066 20.7773 3.45896C19.7415 1.57568 17.7641 0.351562 15.5041 0.351562C12.2084 0.351562 9.57181 2.98814 9.57181 6.28388C9.57181 7.88466 10.231 9.29714 11.2668 10.4271H1.28539C0.814569 10.4271 0.34375 10.8979 0.34375 11.3687V19.561C0.34375 20.0318 0.814569 20.5027 1.28539 20.5027H3.0745V45.73C3.0745 46.2008 3.54532 46.6717 4.01614 46.6717H29.0637C28.7812 46.1067 28.5929 45.5417 28.4046 44.8826ZM38.7626 12.3104V18.7135H25.0147V12.3104H38.7626ZM21.4365 6.84889C21.4365 4.77729 23.0372 3.17648 25.1088 3.17648C27.1804 3.17648 28.7812 4.77729 28.7812 6.84889C28.7812 8.9205 27.1804 10.5213 25.1088 10.5213H21.4365V6.84889ZM15.41 2.23484C17.6699 2.23484 19.5532 4.02398 19.5532 6.37807V10.5213H15.41C13.15 10.5213 11.2668 8.73217 11.2668 6.37807C11.3609 4.11814 13.15 2.23484 15.41 2.23484ZM15.8808 44.8826H4.95778V20.5968H15.9749V44.8826H15.8808ZM15.8808 18.7135H2.13286V12.3104H15.8808V18.7135ZM23.2256 44.8826H17.7641V20.5968H23.2256V44.8826ZM23.2256 18.7135H17.7641V12.3104H23.2256V18.7135Z" fill="#57B6BB"/>
</svg>
