<svg width="46" height="51" viewBox="0 0 46 51" fill="none" xmlns="http://www.w3.org/2000/svg">
<path d="M36.3031 22.9813V18.1515H42.8017C44.5393 18.1515 45.9529 16.7379 45.9529 15.0004V3.61306C45.9529 1.87551 44.5393 0.461914 42.8017 0.461914H7.34397C3.80016 0.461914 0.914062 3.34801 0.914062 6.89182V50.3305H45.9529V42.2907H37.0197C38.0701 41.2697 38.718 39.8463 38.718 38.2658V37.4609H41.1329C42.4679 37.4609 43.5478 36.381 43.5478 35.046V30.2162C43.5478 28.8811 42.4679 27.8013 41.1329 27.8013H38.718V25.3962H21.0186V38.2658C21.0186 39.8365 21.6665 41.2599 22.7168 42.2907H15.3936V18.1613H23.4335V22.9911H28.2632V18.1613H31.4831V22.9911H36.3031V22.9813ZM34.6932 21.3714H33.0832V18.1515H34.6932V21.3714ZM41.1329 29.421C41.5746 29.421 41.9378 29.7843 41.9378 30.226V35.0558C41.9378 35.4975 41.5746 35.8608 41.1329 35.8608H38.718V29.421H41.1329ZM22.6285 38.2658V27.0061H37.108V27.8111V37.4609V38.2658C37.108 40.4844 35.3018 42.2907 33.0832 42.2907H26.6533C24.4348 42.2907 22.6285 40.4844 22.6285 38.2658ZM26.6533 21.3714H25.0434V18.1515H26.6533V21.3714ZM28.2632 16.5514H23.4335H13.7837V43.9006H26.6533H33.0832H44.3429V48.7304H2.52399V6.89182C2.52399 4.23151 4.68366 2.07184 7.34397 2.07184H42.8017C43.6558 2.07184 44.3429 2.76883 44.3429 3.61306V15.0004C44.3429 15.8544 43.6459 16.5514 42.8017 16.5514H36.3031H31.4733H28.2632Z" fill="#CC9180"/>
<path d="M9.74358 4.48535C7.52501 4.48535 5.71875 6.29162 5.71875 8.51018C5.71875 10.7287 7.52501 12.535 9.74358 12.535C11.9621 12.535 13.7684 10.7287 13.7684 8.51018C13.7684 6.2818 11.9621 4.48535 9.74358 4.48535ZM9.74358 10.9153C8.40851 10.9153 7.32868 9.83543 7.32868 8.50036C7.32868 7.1653 8.40851 6.08547 9.74358 6.08547C11.0786 6.08547 12.1585 7.1653 12.1585 8.50036C12.1585 9.83543 11.0786 10.9153 9.74358 10.9153Z" fill="#CC9180"/>
<path d="M30.6724 7.69531H29.0625V9.30524H30.6724V7.69531Z" fill="#CC9180"/>
<path d="M33.8677 7.69531H32.2578V9.30524H33.8677V7.69531Z" fill="#CC9180"/>
<path d="M27.4146 7.69531H25.8047V9.30524H27.4146V7.69531Z" fill="#CC9180"/>
</svg>
