<svg width="50" height="50" viewBox="0 0 50 50" fill="none" xmlns="http://www.w3.org/2000/svg">
<path d="M47.5439 17.2754L42.9758 10.8916V3.33636C42.9758 1.86546 41.8053 0.675781 40.3571 0.675781H9.68166C8.23387 0.675781 7.0629 1.86546 7.0629 3.33636V10.8916L2.49576 17.2754C-0.828401 21.9169 0.596518 25.7543 5.56695 26.3988V46.6638C5.56695 48.1347 6.73793 49.3244 8.18571 49.3244H41.854C43.3018 49.3244 44.4728 48.1347 44.4728 46.6638V26.3988C49.4422 25.7543 50.8676 21.9164 47.5439 17.2754ZM8.93393 3.33636C8.93393 2.91723 9.26912 2.5762 9.68214 2.5762H40.3576C40.7706 2.5762 41.1058 2.91723 41.1058 3.33636V9.77256H8.93393V3.33636ZM19.0339 11.673L15.5964 24.5953H9.27058L16.4896 11.673H19.0339ZM20.972 11.673H23.8452V24.5953H17.534L20.972 11.673ZM25.7153 11.673H28.5885L32.026 24.5953H25.7153V11.673ZM33.9642 24.5953L30.5266 11.673H33.0705L40.2895 24.5953H33.9642ZM2.78036 22.9331C2.25106 21.8769 2.69863 20.2221 4.00874 18.3929L8.81668 11.673H14.3388L7.11982 24.5953H7.11544C4.88976 24.5953 3.30965 23.9893 2.78036 22.9331ZM30.5787 47.424H20.1041V31.461H30.5787V47.424ZM41.854 47.424H32.4487V30.7008C32.4487 30.0702 31.9477 29.5606 31.3259 29.5606H19.3559C18.7347 29.5606 18.2336 30.0697 18.2336 30.7008V47.424H8.18522C7.77268 47.424 7.43701 47.0834 7.43701 46.6638V26.4957H42.6017V46.6638C42.6022 47.0834 42.2665 47.424 41.854 47.424ZM47.2593 22.9331C46.7296 23.9893 45.1499 24.5953 42.9233 24.5953H42.4407L35.2212 11.673H41.2225L46.0315 18.3934C47.3411 20.2221 47.7886 21.8769 47.2593 22.9331Z" fill="#FBBC8F"/>
</svg>
