<svg width="64" height="51" viewBox="0 0 64 51" fill="none" xmlns="http://www.w3.org/2000/svg">
<path d="M40.2054 5.47839C39.6537 2.6262 37.0788 0.456055 34.1361 0.456055H29.293C26.3503 0.456055 23.7755 2.6262 23.2237 5.47839C22.4268 5.72641 21.875 6.40845 21.875 7.27651C21.875 7.77254 22.0589 8.20657 22.3654 8.51659C22.0589 8.82661 21.875 9.26064 21.875 9.75667C21.875 10.6247 22.4268 11.3068 23.1624 11.5548C23.7142 14.469 26.289 16.5771 29.2317 16.5771H34.0748C37.0175 16.5771 39.5924 14.407 40.1441 11.5548C40.8798 11.3068 41.4315 10.6247 41.4315 9.75667C41.4315 9.26064 41.2476 8.82661 40.9411 8.51659C41.2476 8.20657 41.4315 7.77254 41.4315 7.27651C41.4928 6.40845 40.9411 5.72641 40.2054 5.47839ZM29.293 1.69614H34.1361C36.4045 1.69614 38.3662 3.24624 38.918 5.41639H38.6728L38.5502 5.29238C38.2436 4.98236 37.8758 4.79634 37.3853 4.79634H37.0175C36.5884 4.79634 36.1592 4.98236 35.8527 5.29238C35.7914 5.35438 35.6688 5.41639 35.5462 5.41639H35.1783C35.0557 5.41639 34.9331 5.35438 34.8718 5.29238C34.5653 4.98236 34.1975 4.79634 33.707 4.79634H33.3392C32.91 4.79634 32.4809 4.98236 32.1744 5.29238C32.1131 5.35438 31.9904 5.41639 31.8678 5.41639H31.5C31.3774 5.41639 31.2548 5.35438 31.1935 5.29238C30.8869 4.98236 30.5191 4.79634 30.0287 4.79634H29.6608C29.2317 4.79634 28.8025 4.98236 28.496 5.29238C28.4347 5.35438 28.3121 5.41639 28.1895 5.41639H27.8217C27.699 5.41639 27.5764 5.35438 27.5151 5.29238C27.2086 4.98236 26.8408 4.79634 26.3503 4.79634H25.9825C25.5533 4.79634 25.1242 4.98236 24.8177 5.29238L24.6951 5.41639H24.4498C25.0629 3.24624 27.0247 1.69614 29.293 1.69614ZM23.7142 6.65647H25.1855L25.676 6.16043C25.7986 6.09843 25.9212 6.03643 25.9825 6.03643H26.3503C26.4729 6.03643 26.5955 6.09843 26.6568 6.16043C26.9634 6.47046 27.3925 6.65647 27.8217 6.65647H28.1895C28.6186 6.65647 29.0478 6.47046 29.3543 6.16043C29.4769 6.09843 29.5995 6.03643 29.6608 6.03643H30.0287C30.1513 6.03643 30.2739 6.09843 30.3352 6.16043C30.6417 6.47046 31.0709 6.65647 31.5 6.65647H31.8678C32.297 6.65647 32.7261 6.47046 33.0326 6.16043C33.1553 6.09843 33.2779 6.03643 33.3392 6.03643H33.707C33.8296 6.03643 33.9522 6.09843 34.0135 6.16043C34.3201 6.47046 34.7492 6.65647 35.1783 6.65647H35.5462C35.9753 6.65647 36.4045 6.47046 36.711 6.16043C36.8336 6.09843 36.9562 6.03643 37.0175 6.03643H37.3853C37.508 6.03643 37.6306 6.09843 37.6919 6.16043L38.1823 6.65647H39.6537C40.0215 6.65647 40.2667 6.90448 40.2667 7.27651C40.2667 7.64853 40.0215 7.89655 39.6537 7.89655H23.7142C23.3463 7.89655 23.1011 7.64853 23.1011 7.27651C23.1011 6.90448 23.4076 6.65647 23.7142 6.65647ZM34.1361 15.337H29.293C27.0247 15.337 25.0629 13.7869 24.5111 11.6168H38.9793C38.3662 13.7869 36.4045 15.337 34.1361 15.337ZM39.6537 10.3767H23.7142C23.3463 10.3767 23.1011 10.1287 23.1011 9.75667C23.1011 9.38465 23.3463 9.13663 23.7142 9.13663H39.6537C40.0215 9.13663 40.2667 9.38465 40.2667 9.75667C40.2667 10.1287 40.0215 10.3767 39.6537 10.3767Z" fill="#E67285"/>
<path d="M18.7054 39.3348C18.1537 36.4206 15.5788 34.3125 12.6361 34.3125H7.79299C4.85032 34.3125 2.27548 36.4826 1.72373 39.3348C0.926752 39.5829 0.375 40.2649 0.375 41.133C0.375 41.629 0.558917 42.063 0.865446 42.373C0.558917 42.6831 0.375 43.1171 0.375 43.6131C0.375 44.4812 0.926752 45.1632 1.66242 45.4112C2.21417 48.3254 4.78901 50.4336 7.73169 50.4336H12.5748C15.5175 50.4336 18.0924 48.2634 18.6441 45.4112C19.3798 45.1632 19.9315 44.4812 19.9315 43.6131C19.9315 43.1171 19.7476 42.6831 19.4411 42.373C19.7476 42.063 19.9315 41.629 19.9315 41.133C19.9928 40.2649 19.4411 39.5829 18.7054 39.3348ZM7.79299 35.5526H12.6361C14.9045 35.5526 16.8662 37.1027 17.418 39.2728H17.1728L17.0502 39.1488C16.7436 38.8388 16.3145 38.6528 15.8854 38.6528H15.5175C15.0884 38.6528 14.6592 38.8388 14.3527 39.1488C14.2914 39.2108 14.1688 39.2728 14.0462 39.2728H13.6783C13.5557 39.2728 13.4331 39.2108 13.3718 39.1488C13.0653 38.8388 12.6361 38.6528 12.207 38.6528H11.8392C11.41 38.6528 10.9809 38.8388 10.6744 39.1488C10.6131 39.2108 10.4904 39.2728 10.3678 39.2728H10C9.87739 39.2728 9.75478 39.2108 9.69347 39.1488C9.38694 38.8388 8.9578 38.6528 8.52866 38.6528H8.16083C7.73169 38.6528 7.30255 38.8388 6.99602 39.1488C6.93471 39.2108 6.8121 39.2728 6.68949 39.2728H6.32166C6.19905 39.2728 6.07643 39.2108 6.01513 39.1488C5.7086 38.8388 5.27946 38.6528 4.85032 38.6528H4.48248C4.05334 38.6528 3.6242 38.8388 3.31768 39.1488L3.19506 39.2728H2.94984C3.5629 37.1027 5.52468 35.5526 7.79299 35.5526ZM2.21417 40.5129H3.68551L4.17596 40.0169C4.23726 39.9549 4.35987 39.8929 4.48248 39.8929H4.85032C4.97293 39.8929 5.09554 39.9549 5.15685 40.0169C5.46338 40.3269 5.89252 40.5129 6.32166 40.5129H6.68949C7.11863 40.5129 7.54777 40.3269 7.8543 40.0169C7.91561 39.9549 8.03822 39.8929 8.16083 39.8929H8.52866C8.65127 39.8929 8.77389 39.9549 8.83519 40.0169C9.14172 40.3269 9.57086 40.5129 10 40.5129H10.3678C10.797 40.5129 11.2261 40.3269 11.5326 40.0169C11.594 39.9549 11.7166 39.8929 11.8392 39.8929H12.207C12.3296 39.8929 12.4522 39.9549 12.5135 40.0169C12.8201 40.3269 13.2492 40.5129 13.6783 40.5129H14.0462C14.4753 40.5129 14.9045 40.3269 15.211 40.0169C15.2723 39.9549 15.3949 39.8929 15.5175 39.8929H15.8854C16.008 39.8929 16.1306 39.9549 16.1919 40.0169L16.6823 40.5129H18.1537C18.5215 40.5129 18.7667 40.7609 18.7667 41.133C18.7667 41.505 18.5215 41.753 18.1537 41.753H2.21417C1.84634 41.753 1.60111 41.505 1.60111 41.133C1.60111 40.7609 1.84634 40.5129 2.21417 40.5129ZM12.5748 49.1935H7.73169C5.46338 49.1935 3.50159 47.6434 2.94984 45.4732H17.418C16.8049 47.6434 14.8432 49.1935 12.5748 49.1935ZM18.1537 44.2332H2.21417C1.84634 44.2332 1.60111 43.9851 1.60111 43.6131C1.60111 43.2411 1.84634 42.9931 2.21417 42.9931H18.1537C18.5215 42.9931 18.7667 43.2411 18.7667 43.6131C18.7667 43.9231 18.5215 44.2332 18.1537 44.2332Z" fill="#E67285"/>
<path d="M40.4175 39.3348C39.8658 36.4206 37.291 34.3125 34.3483 34.3125H29.5051C26.5624 34.3125 23.9876 36.4826 23.4359 39.3348C22.7002 39.5829 22.1484 40.2649 22.1484 41.133C22.1484 41.629 22.3324 42.063 22.6389 42.373C22.3324 42.6831 22.1484 43.1171 22.1484 43.6131C22.1484 44.4812 22.7002 45.1632 23.4359 45.4112C23.9876 48.3254 26.5624 50.4336 29.5051 50.4336H34.3483C37.291 50.4336 39.8658 48.2634 40.4175 45.4112C41.1532 45.1632 41.705 44.4812 41.705 43.6131C41.705 43.1171 41.521 42.6831 41.2145 42.373C41.521 42.063 41.705 41.629 41.705 41.133C41.705 40.2649 41.1532 39.5829 40.4175 39.3348ZM29.5051 35.5526H34.3483C36.6166 35.5526 38.5784 37.1027 39.1301 39.2728H38.8849L38.7623 39.1488C38.4558 38.8388 38.0266 38.6528 37.5975 38.6528H37.2296C36.8005 38.6528 36.3714 38.8388 36.0648 39.1488C36.0035 39.2108 35.8809 39.2728 35.7583 39.2728H35.3905C35.2679 39.2728 35.1453 39.2108 35.0839 39.1488C34.7774 38.8388 34.3483 38.6528 33.9191 38.6528H33.5513C33.1222 38.6528 32.693 38.8388 32.3865 39.1488C32.3252 39.2108 32.2026 39.2728 32.08 39.2728H31.7121C31.5895 39.2728 31.4669 39.2108 31.4056 39.1488C31.0991 38.8388 30.6699 38.6528 30.2408 38.6528H29.873C29.4438 38.6528 29.0147 38.8388 28.7082 39.1488C28.6468 39.2108 28.5242 39.2728 28.4016 39.2728H28.0338C27.9112 39.2728 27.7886 39.2108 27.7273 39.1488C27.4207 38.8388 26.9916 38.6528 26.5625 38.6528H26.1946C25.7655 38.6528 25.3363 38.8388 25.0298 39.1488L24.9072 39.2728H24.662C25.275 37.1027 27.2368 35.5526 29.5051 35.5526ZM23.9263 40.5129H25.3976L25.8881 40.0169C25.9494 39.9549 26.072 39.8929 26.1946 39.8929H26.5625C26.6851 39.8929 26.8077 39.9549 26.869 40.0169C27.1755 40.3269 27.6046 40.5129 28.0338 40.5129H28.4016C28.8308 40.5129 29.2599 40.3269 29.5664 40.0169C29.6277 39.9549 29.7503 39.8929 29.873 39.8929H30.2408C30.3634 39.8929 30.486 39.9549 30.5473 40.0169C30.8539 40.3269 31.283 40.5129 31.7121 40.5129H32.08C32.5091 40.5129 32.9382 40.3269 33.2448 40.0169C33.3061 39.9549 33.4287 39.8929 33.5513 39.8929H33.9191C34.0417 39.8929 34.1644 39.9549 34.2257 40.0169C34.5322 40.3269 34.9613 40.5129 35.3905 40.5129H35.7583C36.1875 40.5129 36.6166 40.3269 36.9231 40.0169C36.9844 39.9549 37.107 39.8929 37.2296 39.8929H37.5975C37.7201 39.8929 37.8427 39.9549 37.904 40.0169L38.3945 40.5129H39.8658C40.2336 40.5129 40.4789 40.7609 40.4789 41.133C40.4789 41.505 40.2336 41.753 39.8658 41.753H23.9263C23.5585 41.753 23.3132 41.505 23.3132 41.133C23.3132 40.7609 23.6198 40.5129 23.9263 40.5129ZM34.3483 49.1935H29.5051C27.2368 49.1935 25.275 47.6434 24.7233 45.4732H39.1914C38.5784 47.6434 36.6166 49.1935 34.3483 49.1935ZM39.8658 44.2332H23.9263C23.5585 44.2332 23.3132 43.9851 23.3132 43.6131C23.3132 43.2411 23.5585 42.9931 23.9263 42.9931H39.8658C40.2336 42.9931 40.4789 43.2411 40.4789 43.6131C40.4789 43.9231 40.2336 44.2332 39.8658 44.2332Z" fill="#E67285"/>
<path d="M62.0972 39.3348C61.5455 36.4206 58.9706 34.3125 56.028 34.3125H51.1848C48.2421 34.3125 45.6673 36.4826 45.1155 39.3348C44.3799 39.5829 43.8281 40.2649 43.8281 41.133C43.8281 41.629 44.012 42.063 44.3186 42.373C44.012 42.6831 43.8281 43.1171 43.8281 43.6131C43.8281 44.4812 44.3799 45.1632 45.1155 45.4112C45.6673 48.3254 48.2421 50.4336 51.1848 50.4336H56.028C58.9706 50.4336 61.5455 48.2634 62.0972 45.4112C62.8329 45.1632 63.3847 44.4812 63.3847 43.6131C63.3847 43.1171 63.2007 42.6831 62.8942 42.373C63.2007 42.063 63.3847 41.629 63.3847 41.133C63.446 40.2649 62.8942 39.5829 62.0972 39.3348ZM51.1848 35.5526H56.028C58.2963 35.5526 60.2581 37.1027 60.8098 39.2728H60.5646L60.442 39.1488C60.1354 38.8388 59.7063 38.6528 59.2772 38.6528H58.9093C58.4802 38.6528 58.0511 38.8388 57.7445 39.1488C57.6832 39.2108 57.5606 39.2728 57.438 39.2728H57.0702C56.9476 39.2728 56.8249 39.2108 56.7636 39.1488C56.4571 38.8388 56.028 38.6528 55.5988 38.6528H55.231C54.8019 38.6528 54.3727 38.8388 54.0662 39.1488C54.0049 39.2108 53.8823 39.2728 53.7597 39.2728H53.3918C53.2692 39.2728 53.1466 39.2108 53.0853 39.1488C52.7788 38.8388 52.3496 38.6528 51.9205 38.6528H51.5526C51.1235 38.6528 50.6944 38.8388 50.3878 39.1488C50.3265 39.2108 50.2039 39.2728 50.0813 39.2728H49.7135C49.5909 39.2728 49.4683 39.2108 49.4069 39.1488C49.1004 38.8388 48.6713 38.6528 48.2421 38.6528H47.8743C47.4452 38.6528 47.016 38.8388 46.7095 39.1488L46.5869 39.2728H46.3417C46.9547 37.1027 48.9165 35.5526 51.1848 35.5526ZM45.6673 40.5129H47.1386L47.6291 40.0169C47.6904 39.9549 47.813 39.8929 47.9356 39.8929H48.3034C48.4261 39.8929 48.5487 39.9549 48.61 40.0169C48.9165 40.3269 49.3456 40.5129 49.7748 40.5129H50.1426C50.5718 40.5129 51.0009 40.3269 51.3074 40.0169C51.3687 39.9549 51.4913 39.8929 51.614 39.8929H51.9818C52.1044 39.8929 52.227 39.9549 52.2883 40.0169C52.5948 40.3269 53.024 40.5129 53.4531 40.5129H53.821C54.2501 40.5129 54.6792 40.3269 54.9858 40.0169C55.0471 39.9549 55.1697 39.8929 55.2923 39.8929H55.6601C55.7827 39.8929 55.9054 39.9549 55.9667 40.0169C56.2732 40.3269 56.7023 40.5129 57.1315 40.5129H57.4993C57.9284 40.5129 58.3576 40.3269 58.6641 40.0169C58.7254 39.9549 58.848 39.8929 58.9706 39.8929H59.3385C59.4611 39.8929 59.5837 39.9549 59.645 40.0169L60.1354 40.5129H61.6068C61.9746 40.5129 62.2198 40.7609 62.2198 41.133C62.2198 41.505 61.9746 41.753 61.6068 41.753H45.6673C45.2995 41.753 45.0542 41.505 45.0542 41.133C45.0542 40.7609 45.2995 40.5129 45.6673 40.5129ZM56.028 49.1935H51.1848C48.9165 49.1935 46.9547 47.6434 46.403 45.4732H60.8711C60.2581 47.6434 58.2963 49.1935 56.028 49.1935ZM61.6068 44.2332H45.6673C45.2995 44.2332 45.0542 43.9851 45.0542 43.6131C45.0542 43.2411 45.2995 42.9931 45.6673 42.9931H61.6068C61.9746 42.9931 62.2198 43.2411 62.2198 43.6131C62.2198 43.9231 61.9133 44.2332 61.6068 44.2332Z" fill="#E67285"/>
<path d="M29.5504 22.4032C28.9986 19.489 26.4238 17.3809 23.4811 17.3809H18.6379C15.6953 17.3809 13.1204 19.551 12.5687 22.4032C11.833 22.6512 11.2812 23.3333 11.2812 24.2013C11.2812 24.6973 11.4652 25.1314 11.7717 25.4414C11.4652 25.7514 11.2812 26.1854 11.2812 26.6815C11.2812 27.5495 11.833 28.2316 12.5687 28.4796C13.1204 31.3938 15.6953 33.5019 18.6379 33.5019H23.4811C26.4238 33.5019 28.9986 31.3318 29.5504 28.4796C30.286 28.2316 30.8378 27.5495 30.8378 26.6815C30.8378 26.1854 30.6539 25.7514 30.3473 25.4414C30.6539 25.1314 30.8378 24.6973 30.8378 24.2013C30.8378 23.3333 30.286 22.5892 29.5504 22.4032ZM18.6379 18.5589H23.4811C25.7494 18.5589 27.7112 20.109 28.2629 22.2792H28.0177L27.8951 22.1552C27.5886 21.8452 27.1594 21.6591 26.7303 21.6591H26.3625C25.9333 21.6591 25.5042 21.8452 25.1977 22.1552C25.1363 22.2172 25.0137 22.2792 24.8911 22.2792H24.5233C24.4007 22.2792 24.2781 22.2172 24.2168 22.1552C23.9102 21.8452 23.4811 21.6591 23.052 21.6591H22.6841C22.255 21.6591 21.8258 21.8452 21.5193 22.1552C21.458 22.2172 21.3354 22.2792 21.2128 22.2792H20.8449C20.7223 22.2792 20.5997 22.2172 20.5384 22.1552C20.2319 21.8452 19.8027 21.6591 19.3736 21.6591H19.0058C18.5766 21.6591 18.1475 21.8452 17.841 22.1552C17.7797 22.2172 17.657 22.2792 17.5344 22.2792H17.1666C17.044 22.2792 16.9214 22.2172 16.8601 22.1552C16.5535 21.8452 16.1244 21.6591 15.6953 21.6591H15.3274C14.8983 21.6591 14.4691 21.8452 14.1626 22.1552L14.04 22.2792H13.7948C14.4078 20.109 16.3696 18.5589 18.6379 18.5589ZM13.0591 23.5193H14.5305L15.0209 23.0232C15.0822 22.9612 15.2048 22.8992 15.3274 22.8992H15.6953C15.8179 22.8992 15.9405 22.9612 16.0018 23.0232C16.3083 23.3333 16.7375 23.5193 17.1666 23.5193H17.5344C17.9636 23.5193 18.3927 23.3333 18.6992 23.0232C18.7606 22.9612 18.8832 22.8992 19.0058 22.8992H19.3736C19.4962 22.8992 19.6188 22.9612 19.6801 23.0232C19.9867 23.3333 20.4158 23.5193 20.8449 23.5193H21.2128C21.6419 23.5193 22.0711 23.3333 22.3776 23.0232C22.4389 22.9612 22.5615 22.8992 22.6841 22.8992H23.052C23.1746 22.8992 23.2972 22.9612 23.3585 23.0232C23.665 23.3333 24.0942 23.5193 24.5233 23.5193H24.8911C25.3203 23.5193 25.7494 23.3333 26.0559 23.0232C26.1172 22.9612 26.2399 22.8992 26.3625 22.8992H26.7303C26.8529 22.8992 26.9755 22.9612 27.0368 23.0232L27.5273 23.5193H28.9986C29.3664 23.5193 29.6117 23.7673 29.6117 24.1393C29.6117 24.5113 29.3664 24.7594 28.9986 24.7594H13.0591C12.6913 24.7594 12.4461 24.5113 12.4461 24.1393C12.4461 23.7673 12.7526 23.5193 13.0591 23.5193ZM23.4811 32.1998H18.6379C16.3696 32.1998 14.4078 30.6497 13.8561 28.4796H28.3242C27.6499 30.6497 25.7494 32.1998 23.4811 32.1998ZM28.9986 27.2395H13.0591C12.6913 27.2395 12.4461 26.9915 12.4461 26.6195C12.4461 26.2475 12.6913 25.9994 13.0591 25.9994H28.9986C29.3664 25.9994 29.6117 26.2475 29.6117 26.6195C29.6117 26.9915 29.3664 27.2395 28.9986 27.2395Z" fill="#E67285"/>
<path d="M51.2769 22.4032C50.7252 19.489 48.1503 17.3809 45.2077 17.3809H40.3645C37.4218 17.3809 34.847 19.551 34.2952 22.4032C33.5596 22.6512 33.0078 23.3333 33.0078 24.2013C33.0078 24.6973 33.1917 25.1314 33.4983 25.4414C33.1917 25.7514 33.0078 26.1854 33.0078 26.6815C33.0078 27.5495 33.5596 28.2316 34.2952 28.4796C34.847 31.3938 37.4218 33.5019 40.3645 33.5019H45.2077C48.1503 33.5019 50.7252 31.3318 51.2769 28.4796C52.0126 28.2316 52.5643 27.5495 52.5643 26.6815C52.5643 26.1854 52.3804 25.7514 52.0739 25.4414C52.3804 25.1314 52.5643 24.6973 52.5643 24.2013C52.5643 23.3333 52.0126 22.5892 51.2769 22.4032ZM40.3645 18.5589H45.2077C47.476 18.5589 49.4378 20.109 49.9895 22.2792H49.7443L49.6217 22.1552C49.3151 21.8452 48.886 21.6591 48.4569 21.6591H48.089C47.6599 21.6591 47.2307 21.8452 46.9242 22.1552C46.8629 22.2172 46.7403 22.2792 46.6177 22.2792H46.2499C46.1272 22.2792 46.0046 22.2172 45.9433 22.1552C45.6368 21.8452 45.2077 21.6591 44.7785 21.6591H44.4107C43.9815 21.6591 43.5524 21.8452 43.2459 22.1552C43.1846 22.2172 43.062 22.2792 42.9393 22.2792H42.5715C42.4489 22.2792 42.3263 22.2172 42.265 22.1552C41.9585 21.8452 41.5293 21.6591 41.1002 21.6591H40.7323C40.3032 21.6591 39.8741 21.8452 39.5675 22.1552C39.5062 22.2172 39.3836 22.2792 39.261 22.2792H38.8932C38.7706 22.2792 38.6479 22.2172 38.5866 22.1552C38.2801 21.8452 37.851 21.6591 37.4218 21.6591H37.054C36.6249 21.6591 36.1957 21.8452 35.8892 22.1552L35.7666 22.2792H35.5213C36.1344 20.109 38.0962 18.5589 40.3645 18.5589ZM34.7857 23.5193H36.257L36.7475 23.0232C36.8088 22.9612 36.9314 22.8992 37.054 22.8992H37.4218C37.5444 22.8992 37.667 22.9612 37.7284 23.0232C38.0349 23.3333 38.464 23.5193 38.8932 23.5193H39.261C39.6901 23.5193 40.1193 23.3333 40.4258 23.0232C40.4871 22.9612 40.6097 22.8992 40.7323 22.8992H41.1002C41.2228 22.8992 41.3454 22.9612 41.4067 23.0232C41.7132 23.3333 42.1424 23.5193 42.5715 23.5193H42.9393C43.3685 23.5193 43.7976 23.3333 44.1042 23.0232C44.1655 22.9612 44.2881 22.8992 44.4107 22.8992H44.7785C44.9011 22.8992 45.0237 22.9612 45.085 23.0232C45.3916 23.3333 45.8207 23.5193 46.2499 23.5193H46.6177C47.0468 23.5193 47.476 23.3333 47.7825 23.0232C47.8438 22.9612 47.9664 22.8992 48.089 22.8992H48.4569C48.5795 22.8992 48.7021 22.9612 48.7634 23.0232L49.2538 23.5193H50.7252C51.093 23.5193 51.3382 23.7673 51.3382 24.1393C51.3382 24.5113 51.093 24.7594 50.7252 24.7594H34.7857C34.4178 24.7594 34.1726 24.5113 34.1726 24.1393C34.1726 23.7673 34.4791 23.5193 34.7857 23.5193ZM45.2077 32.1998H40.3645C38.0962 32.1998 36.1344 30.6497 35.5827 28.4796H50.0508C49.4378 30.6497 47.476 32.1998 45.2077 32.1998ZM50.7252 27.2395H34.7857C34.4178 27.2395 34.1726 26.9915 34.1726 26.6195C34.1726 26.2475 34.4178 25.9994 34.7857 25.9994H50.7252C51.093 25.9994 51.3382 26.2475 51.3382 26.6195C51.3382 26.9915 51.093 27.2395 50.7252 27.2395Z" fill="#E67285"/>
</svg>
