<svg width="54" height="54" viewBox="0 0 54 54" fill="none" xmlns="http://www.w3.org/2000/svg">
<path d="M50.3234 27.3142L44.0626 19.8794C43.906 19.7229 43.6713 19.5664 43.4365 19.5664H34.8278V32.0881H3.52344V37.5664C3.52344 38.036 3.83648 38.349 4.30605 38.349H8.84518C8.76691 38.5838 8.76691 38.8968 8.76691 39.1316C8.76691 41.3229 10.4887 43.0447 12.68 43.0447C14.8713 43.0447 16.593 41.3229 16.593 39.1316C16.593 38.8968 16.593 38.5838 16.5147 38.349H38.0365C37.9582 38.5838 37.9582 38.8968 37.9582 39.1316C37.9582 41.3229 39.68 43.0447 41.8713 43.0447C44.0626 43.0447 45.7843 41.3229 45.7843 39.1316C45.7843 38.8968 45.7843 38.5838 45.706 38.349H49.6973C50.1669 38.349 50.4799 38.036 50.4799 37.5664V27.8621V27.7838C50.4799 27.6273 50.4017 27.4708 50.3234 27.3142ZM48.0539 27.0012H42.6539V24.2621H45.706L48.0539 27.0012ZM12.68 41.4794C11.3495 41.4794 10.3321 40.4621 10.3321 39.1316C10.3321 38.7403 10.4104 38.349 10.6452 37.9577C11.0365 37.2534 11.8191 36.7838 12.68 36.7838C12.9147 36.7838 13.0713 36.7838 13.306 36.8621C13.6973 36.9403 14.0887 37.1751 14.3234 37.4881C14.48 37.6447 14.5582 37.8012 14.7147 37.9577C14.9495 38.349 15.0278 38.7403 15.0278 39.1316C15.0278 40.4621 13.9321 41.4794 12.68 41.4794ZM41.8713 41.4794C40.5408 41.4794 39.5234 40.4621 39.5234 39.1316C39.5234 38.7403 39.6017 38.349 39.8365 37.9577C40.2278 37.2534 41.0104 36.7838 41.8713 36.7838C42.106 36.7838 42.2626 36.7838 42.4973 36.8621C42.8886 36.9403 43.28 37.1751 43.5147 37.4881C43.6713 37.6447 43.7495 37.8012 43.906 37.9577C44.1408 38.349 44.2191 38.7403 44.2191 39.1316C44.2191 40.4621 43.2017 41.4794 41.8713 41.4794ZM48.9147 36.7838H45.0017C45.0017 36.7055 44.9234 36.7055 44.9234 36.6273C44.8452 36.549 44.7669 36.4708 44.6886 36.3925C44.6104 36.3142 44.6104 36.3142 44.5321 36.236C44.4539 36.1577 44.3756 36.0794 44.2973 36.0794C44.2191 36.0012 44.2191 36.0012 44.1408 36.0012C44.0626 35.9229 43.9843 35.9229 43.906 35.8447C43.8278 35.8447 43.8278 35.7664 43.7495 35.7664C43.6713 35.6881 43.593 35.6881 43.5147 35.6099C43.4365 35.6099 43.3582 35.5316 43.3582 35.5316C43.28 35.5316 43.2017 35.4534 43.0452 35.4534C42.9669 35.4534 42.8886 35.4534 42.8886 35.3751C42.8104 35.3751 42.6539 35.2968 42.5756 35.2968C42.4973 35.2968 42.4973 35.2968 42.4191 35.2968C42.2626 35.2968 42.106 35.2968 41.9495 35.2968C41.793 35.2968 41.6365 35.2968 41.48 35.2968C41.4017 35.2968 41.4017 35.2968 41.3234 35.2968C41.2452 35.2968 41.0886 35.2968 41.0104 35.3751C40.9321 35.3751 40.8539 35.3751 40.8539 35.4534C40.7756 35.4534 40.6973 35.5316 40.5408 35.5316C40.4626 35.5316 40.3843 35.6099 40.3843 35.6099C40.306 35.6881 40.2278 35.6881 40.1495 35.7664C40.0713 35.7664 40.0713 35.8447 39.993 35.8447C39.9147 35.9229 39.8365 35.9229 39.7582 36.0012C39.68 36.0012 39.68 36.0794 39.6017 36.0794C39.5234 36.1577 39.4452 36.236 39.3669 36.236C39.2886 36.3142 39.2886 36.3142 39.2104 36.3925C39.1321 36.4708 39.0539 36.549 38.9756 36.6273C38.9756 36.7055 38.8973 36.7055 38.8973 36.7838H15.8104C15.8104 36.7055 15.7321 36.7055 15.7321 36.6273C15.6539 36.549 15.5756 36.4708 15.4973 36.3925C15.4191 36.3142 15.4191 36.3142 15.3408 36.236C15.2626 36.1577 15.1843 36.0794 15.106 36.0794C15.0278 36.0012 15.0278 36.0012 14.9495 36.0012C14.8713 35.9229 14.793 35.9229 14.7147 35.8447C14.6365 35.8447 14.6365 35.7664 14.5582 35.7664C14.48 35.6881 14.4017 35.6881 14.3234 35.6099C14.2452 35.6099 14.1669 35.5316 14.1669 35.5316C14.0887 35.5316 14.0104 35.4534 13.8539 35.4534C13.7756 35.4534 13.6973 35.4534 13.6973 35.3751C13.6191 35.3751 13.4626 35.2968 13.3843 35.2968C13.306 35.2968 13.306 35.2968 13.2278 35.2968C13.0713 35.2968 12.9147 35.2968 12.7582 35.2968C12.6017 35.2968 12.4452 35.2968 12.2887 35.2968C12.2104 35.2968 12.2104 35.2968 12.1321 35.2968C12.0539 35.2968 11.8973 35.2968 11.8191 35.3751C11.7408 35.3751 11.6626 35.3751 11.6626 35.4534C11.5843 35.4534 11.506 35.5316 11.4278 35.5316C11.3495 35.5316 11.2713 35.6099 11.193 35.6099C11.1147 35.6099 11.0365 35.6881 10.9582 35.6881C10.88 35.6881 10.8017 35.7664 10.7234 35.7664C10.6452 35.8447 10.5669 35.8447 10.4887 35.9229C10.4104 36.0012 10.3321 36.0012 10.3321 36.0794C10.2539 36.1577 10.2539 36.1577 10.1756 36.236C10.0973 36.3142 10.0191 36.3142 10.0191 36.3925C9.78431 36.4708 9.78431 36.549 9.70605 36.6273C9.62778 36.7055 9.62778 36.7838 9.54952 36.7838H5.08865V33.6534H35.6104C36.08 33.6534 36.393 33.3403 36.393 32.8708V21.1316H43.0452L44.3756 22.6968H41.8713C41.4017 22.6968 41.0886 23.0099 41.0886 23.4794V27.7838C41.0886 28.2534 41.4017 28.5664 41.8713 28.5664H48.9147V36.7838Z" fill="#E7426A"/>
<path d="M30.2904 16.9055C29.586 13.2273 26.3773 10.5664 22.5425 10.5664H16.4382C12.6817 10.5664 9.47296 13.2273 8.69035 16.9055C7.75122 17.2186 7.04688 18.0794 7.04688 19.0968C7.04688 19.7229 7.28166 20.2708 7.67296 20.6621C7.28166 21.0534 7.04688 21.6012 7.04688 22.2273C7.04688 23.2447 7.75122 24.1838 8.69035 24.4186C9.3947 28.0968 12.6034 30.7577 16.4382 30.7577H22.5425C26.299 30.7577 29.5077 28.0968 30.2904 24.4186C31.2295 24.1055 31.9338 23.2447 31.9338 22.2273C31.9338 21.6012 31.699 21.0534 31.3077 20.6621C31.699 20.2708 31.9338 19.7229 31.9338 19.0968C32.0121 18.0794 31.3077 17.2186 30.2904 16.9055ZM16.4382 12.1316H22.5425C25.4382 12.1316 27.8643 14.0881 28.6469 16.8273H28.3338L28.1773 16.6708C27.8643 16.2012 27.3164 16.0447 26.7686 16.0447H26.299C25.7512 16.0447 25.2034 16.2794 24.8121 16.6708C24.7338 16.749 24.5773 16.8273 24.4208 16.8273H23.9512C23.7947 16.8273 23.6382 16.749 23.5599 16.6708C23.1686 16.2012 22.6208 16.0447 22.073 16.0447H21.6034C21.0556 16.0447 20.5077 16.2794 20.1164 16.6708C20.0382 16.749 19.8817 16.8273 19.7251 16.8273H19.2556C19.099 16.8273 18.9425 16.749 18.8643 16.6708C18.5512 16.2012 18.0034 16.0447 17.4556 16.0447H16.986C16.4382 16.0447 15.8904 16.2794 15.499 16.6708C15.4208 16.749 15.2643 16.8273 15.1077 16.8273H14.6382C14.4817 16.8273 14.3251 16.749 14.2469 16.6708C13.8556 16.2012 13.3077 16.0447 12.7599 16.0447H12.2904C11.7425 16.0447 11.1947 16.2794 10.8034 16.6708L10.6469 16.749H10.4121C11.1164 14.0881 13.6208 12.1316 16.4382 12.1316ZM9.3947 18.3142H11.273L11.899 17.6881C12.0556 17.6099 12.1338 17.5316 12.2904 17.5316H12.7599C12.9164 17.5316 13.073 17.6099 13.1512 17.6881C13.5425 18.0794 14.0904 18.3142 14.6382 18.3142H15.1077C15.6556 18.3142 16.2034 18.0794 16.5947 17.6881C16.673 17.6099 16.8295 17.5316 16.986 17.5316H17.4556C17.6121 17.5316 17.7686 17.6099 17.8469 17.6881C18.2382 18.0794 18.786 18.3142 19.3338 18.3142H19.8034C20.3512 18.3142 20.899 18.0794 21.2904 17.6881C21.3686 17.6099 21.5251 17.5316 21.6034 17.5316H22.073C22.2295 17.5316 22.386 17.6099 22.4643 17.6881C22.8556 18.0794 23.4034 18.3142 23.9512 18.3142H24.4208C24.9686 18.3142 25.5164 18.0794 25.9077 17.6881C25.986 17.6099 26.1425 17.5316 26.299 17.5316H26.7686C26.9251 17.5316 27.0817 17.6099 27.1599 17.6881L27.786 18.3142H29.6643C30.0556 18.3142 30.4469 18.6273 30.4469 19.0968C30.4469 19.5664 30.1338 19.8794 29.6643 19.8794H9.3947C9.0034 19.8794 8.61209 19.5664 8.61209 19.0968C8.61209 18.6273 9.0034 18.3142 9.3947 18.3142ZM22.6208 29.1925H16.5164C13.6208 29.1925 11.1947 27.236 10.4121 24.4968H28.7251C27.9425 27.3142 25.5164 29.1925 22.6208 29.1925ZM29.6643 23.0099H9.3947C9.0034 23.0099 8.61209 22.6968 8.61209 22.2273C8.61209 21.7577 8.92514 21.4447 9.3947 21.4447H29.586C29.9773 21.4447 30.3686 21.7577 30.3686 22.2273C30.3686 22.6968 30.0556 23.0099 29.6643 23.0099Z" fill="#E7426A"/>
</svg>
