<svg width="54" height="54" viewBox="0 0 54 54" fill="none" xmlns="http://www.w3.org/2000/svg">
<path d="M42.9585 12.4894C42.3625 9.32912 39.6471 7.04297 36.402 7.04297H31.2363C28.0574 7.04297 25.3421 9.32912 24.6798 12.4894C23.8851 12.7583 23.2891 13.498 23.2891 14.3721C23.2891 14.91 23.4877 15.3807 23.8189 15.7169C23.4877 16.0531 23.2891 16.5238 23.2891 17.0617C23.2891 17.9358 23.8851 18.7427 24.6798 18.9444C25.2759 22.1046 27.9912 24.3908 31.2363 24.3908H36.402C39.5809 24.3908 42.2962 22.1046 42.9585 18.9444C43.7532 18.6754 44.3493 17.9358 44.3493 17.0617C44.3493 16.5238 44.1506 16.0531 43.8194 15.7169C44.1506 15.3807 44.3493 14.91 44.3493 14.3721C44.4155 13.498 43.8194 12.7583 42.9585 12.4894ZM31.2363 8.38776H36.402C38.8524 8.38776 40.9055 10.0688 41.5677 12.4221H41.3028L41.1704 12.2877C40.9055 11.8842 40.4419 11.7497 39.9783 11.7497H39.5809C39.1173 11.7497 38.6537 11.9515 38.3226 12.2877C38.2564 12.3549 38.1239 12.4221 37.9915 12.4221H37.5941C37.4616 12.4221 37.3292 12.3549 37.263 12.2877C36.9318 11.8842 36.4682 11.7497 36.0047 11.7497H35.6073C35.1437 11.7497 34.6801 11.9515 34.349 12.2877C34.2828 12.3549 34.1503 12.4221 34.0178 12.4221H33.6205C33.488 12.4221 33.3556 12.3549 33.2893 12.2877C33.0244 11.8842 32.5608 11.7497 32.0973 11.7497H31.6999C31.2363 11.7497 30.7727 11.9515 30.4416 12.2877C30.3754 12.3549 30.2429 12.4221 30.1104 12.4221H29.7131C29.5806 12.4221 29.4482 12.3549 29.382 12.2877C29.0508 11.8842 28.5872 11.7497 28.1236 11.7497H27.7263C27.2627 11.7497 26.7991 11.9515 26.468 12.2877L26.3355 12.3549H26.1368C26.7329 10.0688 28.8521 8.38776 31.2363 8.38776ZM25.2759 13.6997H26.8653L27.3951 13.1618C27.5276 13.0945 27.5938 13.0273 27.7263 13.0273H28.1236C28.2561 13.0273 28.3885 13.0945 28.4548 13.1618C28.7859 13.498 29.2495 13.6997 29.7131 13.6997H30.1104C30.574 13.6997 31.0376 13.498 31.3688 13.1618C31.435 13.0945 31.5674 13.0273 31.6999 13.0273H32.0973C32.2297 13.0273 32.3622 13.0945 32.4284 13.1618C32.7595 13.498 33.2231 13.6997 33.6867 13.6997H34.0841C34.5477 13.6997 35.0112 13.498 35.3424 13.1618C35.4086 13.0945 35.5411 13.0273 35.6073 13.0273H36.0047C36.1371 13.0273 36.2696 13.0945 36.3358 13.1618C36.6669 13.498 37.1305 13.6997 37.5941 13.6997H37.9915C38.4551 13.6997 38.9186 13.498 39.2498 13.1618C39.316 13.0945 39.4485 13.0273 39.5809 13.0273H39.9783C40.1107 13.0273 40.2432 13.0945 40.3094 13.1618L40.8392 13.6997H42.4287C42.7598 13.6997 43.091 13.9687 43.091 14.3721C43.091 14.7755 42.826 15.0445 42.4287 15.0445H25.2759C24.9447 15.0445 24.6136 14.7755 24.6136 14.3721C24.6136 13.9687 24.9447 13.6997 25.2759 13.6997ZM36.4682 23.046H31.3025C28.8521 23.046 26.7991 21.365 26.1368 19.0116H41.634C40.9717 21.4323 38.9186 23.046 36.4682 23.046ZM42.4287 17.7341H25.2759C24.9447 17.7341 24.6136 17.4651 24.6136 17.0617C24.6136 16.6582 24.8785 16.3893 25.2759 16.3893H42.3624C42.6936 16.3893 43.0247 16.6582 43.0247 17.0617C43.0247 17.4651 42.7598 17.7341 42.4287 17.7341Z" fill="#E7426A"/>
<path d="M5.76611 33.0875L5.76612 33.0875L5.76892 33.085L8.47236 30.692L8.47255 30.6918C9.17875 30.066 10.2668 30.1318 10.8927 30.8388C10.8927 30.8388 10.8927 30.8388 10.8927 30.8388L10.9372 30.8892L11.346 31.3509L11.7133 30.8556C12.5847 29.6802 13.587 28.5743 14.7262 27.6975L14.7264 27.6973C17.3833 25.65 20.9368 24.6905 23.8226 26.4525C25.6063 27.5429 27.6076 28.4494 29.7174 28.8277L29.7612 28.8356H29.8057H35.8688C36.9439 28.8356 37.717 29.4504 37.9648 30.4495L38.1609 31.2403L38.7772 30.7073L45.2291 25.1271L45.2292 25.127C46.1794 24.3047 47.4057 24.4459 48.2233 25.3875C49.0452 26.3441 49.0036 27.6172 48.043 28.4507L37.2987 37.7661L37.2987 37.7662C35.668 39.1802 33.8426 39.9116 31.6872 40.0136L31.6872 40.0136L20.3913 40.5493L19.7007 40.5821L19.9481 41.2277C20.2033 41.8936 20.0207 42.651 19.485 43.1253L19.485 43.1254L16.7825 45.5191C16.0756 46.145 14.9881 46.0786 14.3621 45.3721L5.62278 35.5044L5.62273 35.5043C5.00135 34.8029 5.06445 33.6993 5.76611 33.0875ZM37.8687 32.013L37.7992 32.0732L37.7555 32.1542C37.4264 32.7658 36.8157 33.2218 35.8696 33.2218H22.6842C22.5749 33.2218 22.4851 33.132 22.4851 33.0227C22.4851 32.9133 22.5749 32.8235 22.6842 32.8235H35.8696C36.3818 32.8235 36.8354 32.6428 37.1598 32.3032C37.4813 31.9665 37.6392 31.5124 37.6392 31.0283C37.6392 30.5542 37.4875 30.101 37.1691 29.7621C36.8467 29.4188 36.3917 29.2339 35.8696 29.2339H29.7791L29.705 29.2266C27.5511 28.8482 25.5084 27.9442 23.6185 26.7896C20.737 25.0285 17.2927 26.2174 14.9689 28.0079C13.7492 28.9468 12.7295 30.115 11.8526 31.334L11.6192 31.6583L11.8842 31.9575L19.0369 40.0331L19.1957 40.2124L19.4349 40.201L31.6689 39.6208C33.7306 39.5247 35.4854 38.8195 37.0433 37.4684L47.7877 28.1529L47.7881 28.1525C48.1792 27.8127 48.3901 27.3718 48.4024 26.9041C48.4145 26.4438 48.2336 26.0023 47.9263 25.6442L47.9256 25.6434C47.6246 25.294 47.2261 25.0534 46.778 25.0006C46.3226 24.947 45.8694 25.0941 45.4875 25.4236L45.4871 25.424L37.8687 32.013ZM6.032 33.3807L6.03063 33.3819C5.51179 33.8453 5.43394 34.6397 5.87356 35.1915L5.88167 35.2017L5.8903 35.2114L14.6569 45.1122L14.6572 45.1126C15.1391 45.6559 15.9806 45.7038 16.5223 45.2246L16.5226 45.2244L19.2252 42.8305L19.2254 42.8303C19.768 42.3491 19.8182 41.5083 19.3373 40.9658C18.6026 40.1361 17.8676 39.3059 17.1325 38.4757C14.9542 36.0155 12.775 33.5543 10.5982 31.0991C10.1163 30.5535 9.27231 30.5079 8.73214 30.9868C8.73213 30.9868 8.73213 30.9868 8.73212 30.9869L6.032 33.3807Z" fill="#EE3686" stroke="#E7426A"/>
</svg>
