<svg width="41" height="20" viewBox="0 0 41 20" fill="none" xmlns="http://www.w3.org/2000/svg">
<path d="M23.2383 0H4.08341C3.1869 0 2.32711 0.356136 1.69319 0.990062C1.05926 1.62399 0.703125 2.48378 0.703125 3.38028V16.6197C0.703125 17.5162 1.05926 18.376 1.69319 19.0099C2.32711 19.6439 3.1869 20 4.08341 20H23.2383C24.1348 20 24.9946 19.6439 25.6286 19.0099C26.2625 18.376 26.6186 17.5162 26.6186 16.6197V3.38028C26.6186 2.48378 26.2625 1.62399 25.6286 0.990062C24.9946 0.356136 24.1348 0 23.2383 0ZM4.08341 2.25352H23.2383C23.5372 2.25352 23.8238 2.37223 24.0351 2.58354C24.2464 2.79485 24.3651 3.08145 24.3651 3.38028V12.7775L20.1397 8.89014C19.9432 8.70864 19.6884 8.60302 19.421 8.59218C19.1537 8.58134 18.8912 8.66599 18.6806 8.83099L14.4383 12.1775L9.30313 7.46479C9.09461 7.27075 8.82035 7.16287 8.53552 7.16287C8.25069 7.16287 7.97643 7.27075 7.76791 7.46479L2.95665 12.0338V3.38028C2.95665 3.08145 3.07536 2.79485 3.28667 2.58354C3.49798 2.37223 3.78457 2.25352 4.08341 2.25352ZM23.2383 17.7465H4.08341C3.78457 17.7465 3.49798 17.6278 3.28667 17.4165C3.07536 17.2052 2.95665 16.9186 2.95665 16.6197V15.1324L8.55665 9.84789L15.244 15.969C15.4656 16.1632 15.7544 16.2628 16.0485 16.2466C16.3427 16.2304 16.6188 16.0996 16.8177 15.8823C17.0166 15.665 17.1225 15.3784 17.1127 15.0839C17.1028 14.7895 16.9781 14.5106 16.7651 14.307L16.1228 13.7183L19.3285 11.1972L24.3651 15.8451V16.6197C24.3651 16.9186 24.2464 17.2052 24.0351 17.4165C23.8238 17.6278 23.5372 17.7465 23.2383 17.7465Z" fill="#4E9DD3"/>
<path d="M14.1652 9.29304C14.7827 9.29359 15.3866 9.11094 15.9003 8.7682C16.4139 8.42546 16.8144 7.93804 17.051 7.36761C17.2876 6.79719 17.3496 6.1694 17.2293 5.5637C17.109 4.958 16.8116 4.40161 16.375 3.96494C15.9383 3.52827 15.3819 3.23096 14.7762 3.11062C14.1705 2.99028 13.5427 3.05232 12.9723 3.2889C12.4019 3.52548 11.9144 3.92596 11.5717 4.43966C11.229 4.95336 11.0463 5.55718 11.0469 6.17472C11.0484 7.00129 11.3774 7.79358 11.9619 8.37806C12.5463 8.96253 13.3386 9.29155 14.1652 9.29304ZM14.1652 5.30712C14.3368 5.30712 14.5045 5.358 14.6472 5.45334C14.7899 5.54867 14.9011 5.68417 14.9667 5.84271C15.0324 6.00124 15.0496 6.17569 15.0161 6.34399C14.9826 6.51229 14.9 6.66688 14.7787 6.78822C14.6573 6.90955 14.5027 6.99218 14.3344 7.02566C14.1661 7.05914 13.9917 7.04196 13.8332 6.97629C13.6746 6.91062 13.5391 6.79942 13.4438 6.65674C13.3485 6.51406 13.2976 6.34632 13.2976 6.17472C13.2976 5.94462 13.389 5.72394 13.5517 5.56124C13.7144 5.39853 13.9351 5.30712 14.1652 5.30712Z" fill="#4E9DD3"/>
<path d="M35.5871 11.4648L39.0264 11.4223C39.4064 11.4176 39.7183 11.1058 39.7227 10.7261L39.7283 10.2676C39.733 9.88744 39.4288 9.58319 39.049 9.58824L35.6098 9.6307L35.6525 6.19105C35.6572 5.81104 35.353 5.5068 34.9733 5.51178L34.5144 5.51709C34.1343 5.52184 33.8225 5.83369 33.8181 6.21341L33.7756 9.65334L30.3364 9.6958C29.9563 9.70049 29.6444 10.0123 29.6401 10.3921L29.6344 10.8506C29.6297 11.2306 29.934 11.5349 30.3137 11.5299L33.753 11.4874L33.7105 14.9267C33.7059 15.3068 34.0101 15.611 34.3898 15.606L34.8484 15.6004C35.2284 15.5956 35.5403 15.2838 35.5447 14.9041L35.5871 11.4648Z" fill="#4E9DD3"/>
</svg>
