<svg width="40" height="28" viewBox="0 0 40 28" fill="none" xmlns="http://www.w3.org/2000/svg">
<path d="M39.8667 14.266L34.5333 7.93268C34.4 7.79935 34.2 7.66602 34 7.66602H26.6667V18.3327H0V22.9993C0 23.3993 0.266667 23.666 0.666667 23.666H4.53333C4.46667 23.866 4.46667 24.1327 4.46667 24.3327C4.46667 26.1994 5.93333 27.666 7.8 27.666C9.66667 27.666 11.1333 26.1994 11.1333 24.3327C11.1333 24.1327 11.1333 23.866 11.0667 23.666H29.4C29.3333 23.866 29.3333 24.1327 29.3333 24.3327C29.3333 26.1994 30.8 27.666 32.6667 27.666C34.5333 27.666 36 26.1994 36 24.3327C36 24.1327 36 23.866 35.9333 23.666H39.3333C39.7333 23.666 40 23.3993 40 22.9993V14.7327V14.666C40 14.5327 39.9333 14.3993 39.8667 14.266ZM37.9333 13.9993H33.3333V11.666H35.9333L37.9333 13.9993ZM7.8 26.3327C6.66667 26.3327 5.8 25.466 5.8 24.3327C5.8 23.9993 5.86667 23.666 6.06667 23.3327C6.4 22.7327 7.06667 22.3327 7.8 22.3327C8 22.3327 8.13333 22.3327 8.33333 22.3993C8.66667 22.466 9 22.666 9.2 22.9327C9.33333 23.066 9.4 23.1993 9.53333 23.3327C9.73333 23.666 9.8 23.9993 9.8 24.3327C9.8 25.466 8.86667 26.3327 7.8 26.3327ZM32.6667 26.3327C31.5333 26.3327 30.6667 25.466 30.6667 24.3327C30.6667 23.9993 30.7333 23.666 30.9333 23.3327C31.2667 22.7327 31.9333 22.3327 32.6667 22.3327C32.8667 22.3327 33 22.3327 33.2 22.3993C33.5333 22.466 33.8667 22.666 34.0667 22.9327C34.2 23.066 34.2667 23.1993 34.4 23.3327C34.6 23.666 34.6667 23.9993 34.6667 24.3327C34.6667 25.466 33.8 26.3327 32.6667 26.3327ZM38.6667 22.3327H35.3333C35.3333 22.266 35.2667 22.266 35.2667 22.1993C35.2 22.1327 35.1333 22.066 35.0667 21.9993C35 21.9327 35 21.9327 34.9333 21.866C34.8667 21.7993 34.8 21.7327 34.7333 21.7327C34.6667 21.666 34.6667 21.666 34.6 21.666C34.5333 21.5993 34.4667 21.5993 34.4 21.5327C34.3333 21.5327 34.3333 21.466 34.2667 21.466C34.2 21.3994 34.1333 21.3993 34.0667 21.3327C34 21.3327 33.9333 21.266 33.9333 21.266C33.8667 21.266 33.8 21.1993 33.6667 21.1993C33.6 21.1993 33.5333 21.1993 33.5333 21.1327C33.4667 21.1327 33.3333 21.066 33.2667 21.066C33.2 21.066 33.2 21.066 33.1333 21.066C33 21.066 32.8667 21.066 32.7333 21.066C32.6 21.066 32.4667 21.066 32.3333 21.066C32.2667 21.066 32.2667 21.066 32.2 21.066C32.1333 21.066 32 21.066 31.9333 21.1327C31.8667 21.1327 31.8 21.1327 31.8 21.1993C31.7333 21.1993 31.6667 21.266 31.5333 21.266C31.4667 21.266 31.4 21.3327 31.4 21.3327C31.3333 21.3993 31.2667 21.3994 31.2 21.466C31.1333 21.466 31.1333 21.5327 31.0667 21.5327C31 21.5993 30.9333 21.5993 30.8667 21.666C30.8 21.666 30.8 21.7327 30.7333 21.7327C30.6667 21.7993 30.6 21.866 30.5333 21.866C30.4667 21.9327 30.4667 21.9327 30.4 21.9993C30.3333 22.066 30.2667 22.1327 30.2 22.1993C30.2 22.266 30.1333 22.266 30.1333 22.3327H10.4667C10.4667 22.266 10.4 22.266 10.4 22.1993C10.3333 22.1327 10.2667 22.066 10.2 21.9993C10.1333 21.9327 10.1333 21.9327 10.0667 21.866C10 21.7993 9.93333 21.7327 9.86667 21.7327C9.8 21.666 9.8 21.666 9.73333 21.666C9.66667 21.5993 9.6 21.5993 9.53333 21.5327C9.46667 21.5327 9.46667 21.466 9.4 21.466C9.33333 21.3994 9.26667 21.3993 9.2 21.3327C9.13333 21.3327 9.06667 21.266 9.06667 21.266C9 21.266 8.93333 21.1993 8.8 21.1993C8.73333 21.1993 8.66667 21.1993 8.66667 21.1327C8.6 21.1327 8.46667 21.066 8.4 21.066C8.33333 21.066 8.33333 21.066 8.26667 21.066C8.13333 21.066 8 21.066 7.86667 21.066C7.73333 21.066 7.6 21.066 7.46667 21.066C7.4 21.066 7.4 21.066 7.33333 21.066C7.26667 21.066 7.13333 21.066 7.06667 21.1327C7 21.1327 6.93333 21.1327 6.93333 21.1993C6.86667 21.1993 6.8 21.266 6.73333 21.266C6.66667 21.266 6.6 21.3327 6.53333 21.3327C6.46667 21.3327 6.4 21.3993 6.33333 21.3993C6.26667 21.3993 6.2 21.466 6.13333 21.466C6.06667 21.5327 6 21.5327 5.93333 21.5993C5.86667 21.666 5.8 21.666 5.8 21.7327C5.73333 21.7993 5.73333 21.7993 5.66667 21.866C5.6 21.9327 5.53333 21.9327 5.53333 21.9993C5.33333 22.066 5.33333 22.1327 5.26667 22.1993C5.2 22.266 5.2 22.3327 5.13333 22.3327H1.33333V19.666H27.3333C27.7333 19.666 28 19.3993 28 18.9993V8.99935H33.6667L34.8 10.3327H32.6667C32.2667 10.3327 32 10.5993 32 10.9993V14.666C32 15.066 32.2667 15.3327 32.6667 15.3327H38.6667V22.3327Z" fill="#E7426A"/>
<path d="M22.8 5.4C22.2 2.26667 19.4667 0 16.2 0H11C7.8 0 5.06667 2.26667 4.4 5.4C3.6 5.66667 3 6.4 3 7.26667C3 7.8 3.2 8.26667 3.53333 8.6C3.2 8.93333 3 9.4 3 9.93333C3 10.8 3.6 11.6 4.4 11.8C5 14.9333 7.73333 17.2 11 17.2H16.2C19.4 17.2 22.1333 14.9333 22.8 11.8C23.6 11.5333 24.2 10.8 24.2 9.93333C24.2 9.4 24 8.93333 23.6667 8.6C24 8.26667 24.2 7.8 24.2 7.26667C24.2667 6.4 23.6667 5.66667 22.8 5.4ZM11 1.33333H16.2C18.6667 1.33333 20.7333 3 21.4 5.33333H21.1333L21 5.2C20.7333 4.8 20.2667 4.66667 19.8 4.66667H19.4C18.9333 4.66667 18.4667 4.86667 18.1333 5.2C18.0667 5.26667 17.9333 5.33333 17.8 5.33333H17.4C17.2667 5.33333 17.1333 5.26667 17.0667 5.2C16.7333 4.8 16.2667 4.66667 15.8 4.66667H15.4C14.9333 4.66667 14.4667 4.86667 14.1333 5.2C14.0667 5.26667 13.9333 5.33333 13.8 5.33333H13.4C13.2667 5.33333 13.1333 5.26667 13.0667 5.2C12.8 4.8 12.3333 4.66667 11.8667 4.66667H11.4667C11 4.66667 10.5333 4.86667 10.2 5.2C10.1333 5.26667 10 5.33333 9.86667 5.33333H9.46667C9.33333 5.33333 9.2 5.26667 9.13333 5.2C8.8 4.8 8.33333 4.66667 7.86667 4.66667H7.46667C7 4.66667 6.53333 4.86667 6.2 5.2L6.06667 5.26667H5.86667C6.46667 3 8.6 1.33333 11 1.33333ZM5 6.6H6.6L7.13333 6.06667C7.26667 6 7.33333 5.93333 7.46667 5.93333H7.86667C8 5.93333 8.13333 6 8.2 6.06667C8.53333 6.4 9 6.6 9.46667 6.6H9.86667C10.3333 6.6 10.8 6.4 11.1333 6.06667C11.2 6 11.3333 5.93333 11.4667 5.93333H11.8667C12 5.93333 12.1333 6 12.2 6.06667C12.5333 6.4 13 6.6 13.4667 6.6H13.8667C14.3333 6.6 14.8 6.4 15.1333 6.06667C15.2 6 15.3333 5.93333 15.4 5.93333H15.8C15.9333 5.93333 16.0667 6 16.1333 6.06667C16.4667 6.4 16.9333 6.6 17.4 6.6H17.8C18.2667 6.6 18.7333 6.4 19.0667 6.06667C19.1333 6 19.2667 5.93333 19.4 5.93333H19.8C19.9333 5.93333 20.0667 6 20.1333 6.06667L20.6667 6.6H22.2667C22.6 6.6 22.9333 6.86667 22.9333 7.26667C22.9333 7.66667 22.6667 7.93333 22.2667 7.93333H5C4.66667 7.93333 4.33333 7.66667 4.33333 7.26667C4.33333 6.86667 4.66667 6.6 5 6.6ZM16.2667 15.8667H11.0667C8.6 15.8667 6.53333 14.2 5.86667 11.8667H21.4667C20.8 14.2667 18.7333 15.8667 16.2667 15.8667ZM22.2667 10.6H5C4.66667 10.6 4.33333 10.3333 4.33333 9.93333C4.33333 9.53333 4.6 9.26667 5 9.26667H22.2C22.5333 9.26667 22.8667 9.53333 22.8667 9.93333C22.8667 10.3333 22.6 10.6 22.2667 10.6Z" fill="#E7426A"/>
</svg>
