<svg width="38" height="34" viewBox="0 0 38 34" fill="none" xmlns="http://www.w3.org/2000/svg">
<path d="M32.5914 4.63954C32.0836 1.94746 29.7706 0 27.0062 0H22.6058C19.8979 0 17.5848 1.94746 17.0207 4.63954C16.3437 4.86865 15.8359 5.49871 15.8359 6.24333C15.8359 6.70155 16.0052 7.1025 16.2873 7.38889C16.0052 7.67528 15.8359 8.07623 15.8359 8.53445C15.8359 9.27907 16.3437 9.96641 17.0207 10.1382C17.5284 12.8303 19.8414 14.7778 22.6058 14.7778H27.0062C29.7142 14.7778 32.0272 12.8303 32.5914 10.1382C33.2684 9.90913 33.7761 9.27907 33.7761 8.53445C33.7761 8.07623 33.6069 7.67528 33.3248 7.38889C33.6069 7.1025 33.7761 6.70155 33.7761 6.24333C33.8325 5.49871 33.3248 4.86865 32.5914 4.63954ZM22.6058 1.14556H27.0062C29.0936 1.14556 30.8425 2.57752 31.4066 4.58226H31.181L31.0682 4.4677C30.8425 4.12403 30.4476 4.00948 30.0527 4.00948H29.7142C29.3193 4.00948 28.9244 4.18131 28.6423 4.4677C28.5859 4.52498 28.473 4.58226 28.3602 4.58226H28.0217C27.9089 4.58226 27.7961 4.52498 27.7396 4.4677C27.4576 4.12403 27.0626 4.00948 26.6677 4.00948H26.3292C25.9343 4.00948 25.5394 4.18131 25.2573 4.4677C25.2009 4.52498 25.0881 4.58226 24.9753 4.58226H24.6368C24.5239 4.58226 24.4111 4.52498 24.3547 4.4677C24.129 4.12403 23.7341 4.00948 23.3392 4.00948H23.0007C22.6058 4.00948 22.2109 4.18131 21.9288 4.4677C21.8724 4.52498 21.7596 4.58226 21.6467 4.58226H21.3083C21.1954 4.58226 21.0826 4.52498 21.0262 4.4677C20.7441 4.12403 20.3492 4.00948 19.9543 4.00948H19.6158C19.2209 4.00948 18.826 4.18131 18.5439 4.4677L18.4311 4.52498H18.2618C18.7696 2.57752 20.5749 1.14556 22.6058 1.14556ZM17.5284 5.67054H18.8824L19.3337 5.21232C19.4465 5.15504 19.503 5.09776 19.6158 5.09776H19.9543C20.0671 5.09776 20.1799 5.15504 20.2364 5.21232C20.5184 5.49871 20.9133 5.67054 21.3083 5.67054H21.6467C22.0417 5.67054 22.4366 5.49871 22.7186 5.21232C22.7751 5.15504 22.8879 5.09776 23.0007 5.09776H23.3392C23.452 5.09776 23.5649 5.15504 23.6213 5.21232C23.9034 5.49871 24.2983 5.67054 24.6932 5.67054H25.0317C25.4266 5.67054 25.8215 5.49871 26.1036 5.21232C26.16 5.15504 26.2728 5.09776 26.3292 5.09776H26.6677C26.7806 5.09776 26.8934 5.15504 26.9498 5.21232C27.2319 5.49871 27.6268 5.67054 28.0217 5.67054H28.3602C28.7551 5.67054 29.15 5.49871 29.4321 5.21232C29.4885 5.15504 29.6013 5.09776 29.7142 5.09776H30.0527C30.1655 5.09776 30.2783 5.15504 30.3348 5.21232L30.7861 5.67054H32.1401C32.4221 5.67054 32.7042 5.89966 32.7042 6.24333C32.7042 6.58699 32.4785 6.81611 32.1401 6.81611H17.5284C17.2463 6.81611 16.9642 6.58699 16.9642 6.24333C16.9642 5.89966 17.2463 5.67054 17.5284 5.67054ZM27.0626 13.6322H22.6622C20.5749 13.6322 18.826 12.2003 18.2618 10.1955H31.4631C30.8989 12.2575 29.15 13.6322 27.0626 13.6322ZM32.1401 9.10724H17.5284C17.2463 9.10724 16.9642 8.87812 16.9642 8.53445C16.9642 8.19078 17.1899 7.96167 17.5284 7.96167H32.0836C32.3657 7.96167 32.6478 8.19078 32.6478 8.53445C32.6478 8.87812 32.4221 9.10724 32.1401 9.10724Z" fill="#E7426A"/>
<path d="M1.08815 22.3813L1.08952 22.3801L3.38961 20.3409C3.38962 20.3409 3.38963 20.3408 3.38964 20.3408C3.88015 19.9059 4.64603 19.9471 5.08385 20.4428C6.93856 22.5347 8.79527 24.6317 10.6512 26.7278C11.2769 27.4345 11.9026 28.1412 12.528 28.8474L1.08815 22.3813ZM1.08815 22.3813C0.617366 22.8018 0.546368 23.5228 0.945755 24.0242L0.953864 24.0344M1.08815 22.3813L0.953864 24.0344M0.953864 24.0344L0.962491 24.0441M0.953864 24.0344L0.962491 24.0441M0.962491 24.0441L8.43032 32.4781L8.43061 32.4784M0.962491 24.0441L8.43061 32.4784M8.43061 32.4784C8.86835 32.972 9.63202 33.0153 10.1239 32.5802L10.1242 32.58M8.43061 32.4784L10.1242 32.58M10.1242 32.58L12.4264 30.5408L12.4267 30.5406M10.1242 32.58L12.4267 30.5406M12.4267 30.5406C12.9194 30.1035 12.965 29.3405 12.5283 28.8477L12.4267 30.5406ZM0.960846 22.2415L0.960855 22.2415L0.963651 22.2391L3.26658 20.2005L3.26677 20.2004C3.83771 19.6945 4.71771 19.7477 5.22376 20.3193C5.22376 20.3193 5.22376 20.3193 5.22377 20.3193L5.26173 20.3622L5.67049 20.8239L6.03777 20.3286C6.77735 19.331 7.6265 18.3945 8.58998 17.6529L8.59021 17.6528C10.8415 15.918 13.834 15.1187 16.255 16.5969C17.7794 17.5288 19.4929 18.3055 21.302 18.6299L21.3458 18.6378H21.3903H26.5552C27.4374 18.6378 28.066 19.1388 28.2688 19.9563L28.4649 20.7472L29.0811 20.2142L34.5772 15.4606L34.5773 15.4605C35.3531 14.7892 36.3513 14.901 37.0233 15.6749C37.699 16.4614 37.6622 17.4988 36.8773 18.1799L27.7247 26.1153L27.7247 26.1153C26.3482 27.309 24.8091 27.9256 22.9896 28.0118L22.9896 28.0118L13.3672 28.4681L12.6765 28.5009L12.924 29.1465C13.1304 29.685 12.9826 30.2975 12.5495 30.681L12.5495 30.681L10.2474 32.7202C9.67582 33.2262 8.79627 33.1725 8.29007 32.6012L0.845521 24.1954L0.845464 24.1954C0.34283 23.628 0.394806 22.7351 0.960846 22.2415ZM28.2104 21.2144L28.1408 21.2746L28.0972 21.3556C27.8292 21.8535 27.3334 22.2261 26.5559 22.2261H15.3239C15.2717 22.2261 15.2283 22.1827 15.2283 22.1305C15.2283 22.0782 15.2717 22.0349 15.3239 22.0349H26.5559C27.0101 22.0349 27.4166 21.8744 27.7085 21.5688C27.9975 21.2662 28.1374 20.86 28.1374 20.4316C28.1374 20.0121 28.0031 19.6069 27.7169 19.3022C27.4266 18.9932 27.0186 18.829 26.5559 18.829H21.3713L21.3146 18.8234C19.4926 18.5028 17.7623 17.7375 16.1584 16.7576C13.6646 15.2335 10.6953 16.2674 8.70622 17.8001C7.65975 18.6057 6.78634 19.6068 6.03679 20.6487L5.80342 20.9731L6.06838 21.2722L12.1615 28.1515L12.3203 28.3307L12.5595 28.3194L22.981 27.8251C24.7539 27.7425 26.2645 27.1353 27.6042 25.9736C27.6042 25.9736 27.6042 25.9735 27.6042 25.9735L36.7569 18.0381L36.7573 18.0378C37.105 17.7356 37.2949 17.3409 37.306 16.9204C37.3168 16.5071 37.1544 16.1137 36.8826 15.7969L36.8819 15.7961C36.6156 15.487 36.2601 15.2708 35.8569 15.2233C35.4464 15.175 35.04 15.3082 34.7005 15.6012L34.7001 15.6015L28.2104 21.2144Z" fill="#EE3686" stroke="#E7426A"/>
</svg>
