<svg width="30" height="30" viewBox="0 0 30 30" fill="none" xmlns="http://www.w3.org/2000/svg">
<path d="M11.25 0C12.9272 0 14.3968 0.941172 15.1491 2.32244C15.8972 1.33097 17.0777 0.681818 18.4091 0.681818C20.6604 0.681818 22.5 2.52147 22.5 4.77273C22.5 5.81591 22.0947 6.77409 21.4453 7.5H29.3182C29.499 7.50002 29.6724 7.57185 29.8003 7.69971C29.9281 7.82757 30 8.00099 30 8.18182V14.3182C30 14.499 29.9281 14.6724 29.8003 14.8003C29.6724 14.9282 29.499 15 29.3182 15H27.6136V29.3182C27.6136 29.499 27.5418 29.6724 27.4139 29.8003C27.2861 29.9282 27.1126 30 26.9318 30H3.06818C2.88736 30 2.71395 29.9282 2.58608 29.8003C2.45822 29.6724 2.38638 29.499 2.38636 29.3182V15H0.681818C0.500994 15 0.327582 14.9282 0.19972 14.8003C0.0718581 14.6724 1.80797e-05 14.499 0 14.3182V8.18182C1.80797e-05 8.00099 0.0718581 7.82757 0.19972 7.69971C0.327582 7.57185 0.500994 7.50002 0.681818 7.5H8.05398C7.2886 6.70266 6.81818 5.61804 6.81818 4.43182C6.81818 1.99228 8.81046 0 11.25 0ZM11.25 1.36364C9.54743 1.36364 8.18182 2.72925 8.18182 4.43182C8.18182 6.13439 9.54743 7.5 11.25 7.5H14.3182V4.77273V4.43182C14.3182 2.72925 12.9526 1.36364 11.25 1.36364ZM18.4091 2.04545C16.8948 2.04545 15.6818 3.25844 15.6818 4.77273V7.5H18.4091C19.9234 7.5 21.1364 6.28701 21.1364 4.77273C21.1364 3.25844 19.9234 2.04545 18.4091 2.04545ZM28.6364 8.86364H21.4773V13.6364H26.9318H28.6364V8.86364ZM20.1136 8.86364H9.88636V13.6364H20.1136V8.86364ZM8.52273 8.86364H1.36364V13.6364H3.06818H8.52273V8.86364ZM26.25 15H18.4091V28.6364H26.25V15ZM17.0455 15H12.9545V28.6364H17.0455V15ZM11.5909 15H3.75V28.6364H11.5909V15Z" fill="#E7426A"/>
</svg>
