<svg width="56" height="55" viewBox="0 0 56 55" fill="none" xmlns="http://www.w3.org/2000/svg">
<path d="M55.2651 27.3699V20.245H43.5981C43.8653 19.9778 44.1325 19.7106 44.3106 19.3544H45.9137C48.1402 19.3544 49.9215 17.5732 49.9215 15.3466C49.9215 13.1201 48.1402 11.3389 45.9137 11.3389H45.4684H44.5778H32.9999V15.7919C32.9999 17.5732 33.7124 19.0872 34.8701 20.245H24.9844V27.3699H26.7656V25.5887H28.0125L29.7937 29.1511H31.2186V51.4164C31.2186 52.3961 30.4171 53.1976 29.4374 53.1976C28.4578 53.1976 27.6562 52.3961 27.6562 51.4164H25.875C25.875 53.3757 27.4781 54.9788 29.4374 54.9788C31.3968 54.9788 32.9999 53.3757 32.9999 51.4164V38.9478H47.2496V51.4164C47.2496 53.3757 48.8527 54.9788 50.8121 54.9788C52.7714 54.9788 54.3745 53.3757 54.3745 51.4164H52.5933C52.5933 52.3961 51.7917 53.1976 50.8121 53.1976C49.8324 53.1976 49.0309 52.3961 49.0309 51.4164V29.1511H50.4558L52.2371 25.5887H53.4839V27.3699H55.2651ZM45.9137 13.1201C47.1606 13.1201 48.1402 14.0998 48.1402 15.3466C48.1402 16.5935 47.1606 17.5732 45.9137 17.5732H45.2012C45.3794 17.0388 45.4684 16.4154 45.4684 15.7919V13.1201H45.9137ZM34.7811 15.7919V13.1201H43.6872V15.7919C43.6872 18.2856 41.7279 20.245 39.2341 20.245C36.7404 20.245 34.7811 18.2856 34.7811 15.7919ZM32.9999 37.1666V35.3854H47.2496V37.1666H32.9999ZM47.2496 33.6042H32.9999V29.1511H47.2496V33.6042ZM49.3871 27.3699H30.8624L29.9718 25.5887H50.2777L49.3871 27.3699ZM26.7656 23.8074V22.0262H53.4839V23.8074H26.7656Z" fill="#8A8CDC"/>
<path d="M21.4137 52.307C21.4137 52.8414 21.0575 53.1976 20.5231 53.1976C19.9887 53.1976 19.6325 52.8414 19.6325 52.307V38.0572H20.5231C21.5028 38.0572 22.3043 37.2557 22.3043 36.276V34.4948C22.3043 33.5151 21.5028 32.7135 20.5231 32.7135H6.27334L5.38273 14.0107C5.38273 12.4967 4.22493 11.3389 2.7109 11.3389C1.19686 11.3389 0.0390625 12.4967 0.0390625 14.0107V14.9013H1.82028V14.0107C1.82028 13.4763 2.17653 13.1201 2.7109 13.1201C3.24526 13.1201 3.60151 13.4763 3.60151 14.0107L4.49212 33.6042V38.0572H6.27334V52.307C6.27334 52.8414 5.9171 53.1976 5.38273 53.1976C4.84836 53.1976 4.49212 52.8414 4.49212 52.307V51.4164H2.7109V52.307C2.7109 53.821 3.86869 54.9788 5.38273 54.9788C6.89677 54.9788 8.05456 53.821 8.05456 52.307V38.0572H17.8513V52.307C17.8513 53.821 19.0091 54.9788 20.5231 54.9788C22.0372 54.9788 23.1949 53.821 23.1949 52.307V51.4164H21.4137V52.307ZM6.27334 34.4948H20.5231V36.276H6.27334V34.4948Z" fill="#8A8CDC"/>
<path d="M35.6797 4.74758C35.1453 5.28195 34.7891 6.0835 34.7891 6.88505C34.7891 7.6866 35.1453 8.48815 35.6797 9.02252L36.8375 10.1803L38.0843 8.93346L36.9265 7.77566C36.6593 7.50848 36.5703 7.24129 36.5703 6.88505C36.5703 6.52881 36.6593 6.26162 36.9265 5.99444L37.4609 5.46007C37.9953 4.92571 38.3515 4.12416 38.3515 3.32261C38.3515 2.52106 37.9953 1.71951 37.4609 1.18514L36.3031 0.0273438L35.0562 1.2742L36.214 2.43199C36.4812 2.69918 36.5703 2.96636 36.5703 3.32261C36.5703 3.67885 36.4812 3.94603 36.214 4.21322L35.6797 4.74758Z" fill="#8A8CDC"/>
<path d="M41.0078 4.74758C40.4734 5.28195 40.1172 6.0835 40.1172 6.88505C40.1172 7.6866 40.4734 8.48815 41.0078 9.02252L42.1656 10.1803L43.4124 8.93346L42.2547 7.77566C41.9875 7.50848 41.8984 7.24129 41.8984 6.88505C41.8984 6.52881 41.9875 6.26162 42.2547 5.99444L42.789 5.46007C43.3234 4.92571 43.6796 4.12416 43.6796 3.32261C43.6796 2.52106 43.3234 1.71951 42.789 1.18514L41.6312 0.0273438L40.3844 1.2742L41.5422 2.43199C41.8093 2.69918 41.8984 2.96636 41.8984 3.32261C41.8984 3.67885 41.8093 3.94603 41.5422 4.21322L41.0078 4.74758Z" fill="#8A8CDC"/>
</svg>
