<svg width="46" height="53" viewBox="0 0 46 53" fill="none" xmlns="http://www.w3.org/2000/svg">
<path d="M6.86801 3.87985L6.86861 3.87805L6.87042 3.87985L6.63215 5.00758L6.39388 6.1353L7.38656 5.54954L8.44047 4.93676L9.49557 5.54954L10.4883 6.1353L10.25 5.00758L10.0117 3.87985L10.0129 3.87865L10.0135 3.87985L10.8418 3.07862L11.6706 2.27739L10.5201 2.20717L9.36953 2.13635L8.905 1.08185L8.44047 0.0273438L7.97593 1.08185L7.5114 2.13635L7.5072 2.14836L7.5114 2.13635L6.36147 2.20717L5.21094 2.27739L6.03978 3.07862L6.86801 3.87985Z" fill="#92C2D6"/>
<path d="M14.1571 3.87985L14.1577 3.87805L14.1595 3.87985L13.9212 5.00758L13.6829 6.1353L14.6756 5.54954L15.7295 4.93676L16.7846 5.54954L17.7773 6.1353L17.5391 5.00758L17.3008 3.87985L17.302 3.87865L17.3026 3.87985L18.1308 3.07862L18.9597 2.27739L17.8091 2.20717L16.6586 2.13635L16.1941 1.08185L15.7295 0.0273438L15.265 1.08185L14.8005 2.13635L14.7963 2.14836L14.8005 2.13635L13.6505 2.20717L12.5 2.27739L13.3288 3.07862L14.1571 3.87985Z" fill="#92C2D6"/>
<path d="M21.4071 3.87985L21.4077 3.87805L21.4095 3.87985L21.1712 5.00758L20.9329 6.1353L21.9256 5.54954L22.9795 4.93676L24.0346 5.54954L25.0273 6.1353L24.7891 5.00758L24.5508 3.87985L24.552 3.87865L24.5526 3.87985L25.3808 3.07862L26.2097 2.27739L25.0591 2.20717L23.9086 2.13635L23.4441 1.08185L22.9795 0.0273438L22.515 1.08185L22.0505 2.13635L22.0463 2.14836L22.0505 2.13635L20.9005 2.20717L19.75 2.27739L20.5788 3.07862L21.4071 3.87985Z" fill="#92C2D6"/>
<path d="M28.7665 3.87985L28.7671 3.87805L28.7689 3.87985L28.5306 5.00758L28.2923 6.1353L29.285 5.54954L30.3395 4.93676L31.394 5.54954L32.3867 6.1353L32.1484 5.00758L31.9102 3.87985L31.9114 3.87865L31.912 3.87985L32.7402 3.07862L33.569 2.27739L32.4185 2.20717L31.2686 2.13635L30.804 1.08185L30.3395 0.0273438L29.875 1.08185L29.4104 2.13635L29.4056 2.14836L29.4104 2.13635L28.2599 2.20717L27.1094 2.27739L27.9382 3.07862L28.7665 3.87985Z" fill="#92C2D6"/>
<path d="M36.0164 3.87985L36.0171 3.87805L36.0189 3.87985L35.7806 5.00758L35.5423 6.1353L36.535 5.54954L37.5895 4.93676L38.644 5.54954L39.6367 6.1353L39.3984 5.00758L39.1602 3.87985L39.1614 3.87865L39.162 3.87985L39.9902 3.07862L40.819 2.27739L39.6685 2.20717L38.5186 2.13635L38.054 1.08185L37.5895 0.0273438L37.125 1.08185L36.6604 2.13635L35.5099 2.20717L34.3594 2.27739L35.1882 3.07862L36.0164 3.87985Z" fill="#92C2D6"/>
<path d="M45.1025 10.9222H43.5876V7.9735C43.5876 7.47596 43.1843 7.07324 42.6874 7.07324H3.37004C2.8725 7.07324 2.46978 7.47596 2.46978 7.9735V10.9222H0.954947C0.457403 10.9222 0.0546875 11.3249 0.0546875 11.8224V51.4273C0.0546875 51.9242 0.457403 52.3275 0.954947 52.3275H19.7656H26.2918H45.1031C45.6 52.3275 46.0033 51.9242 46.0033 51.4273V11.8224C46.0027 11.3249 45.5994 10.9222 45.1025 10.9222ZM4.2703 8.87376H41.7871V10.9222H4.2703V8.87376ZM25.3916 50.527H20.6658V40.8978H25.3916V50.527ZM44.2022 50.527H27.1921V39.9976C27.1921 39.5006 26.7888 39.0973 26.2918 39.0973H19.7656C19.268 39.0973 18.8653 39.5006 18.8653 39.9976V50.527H1.85521V12.7227H3.07896C3.17079 12.7545 3.26801 12.7749 3.37064 12.7749H42.688C42.7906 12.7749 42.8878 12.7539 42.9796 12.7227H44.2034V50.527H44.2022Z" fill="#92C2D6"/>
<path d="M13.325 14.9648H6.7987C6.30115 14.9648 5.89844 15.3676 5.89844 15.8651V20.0927C5.89844 20.5903 6.30115 20.993 6.7987 20.993H13.325C13.8225 20.993 14.2252 20.5903 14.2252 20.0927V15.8651C14.2252 15.3676 13.8219 14.9648 13.325 14.9648ZM12.4247 19.1925H7.69896V16.7654H12.4247V19.1925Z" fill="#92C2D6"/>
<path d="M26.2937 14.9648H19.7674C19.2699 14.9648 18.8672 15.3676 18.8672 15.8651V20.0927C18.8672 20.5903 19.2699 20.993 19.7674 20.993H26.2937C26.7907 20.993 27.194 20.5903 27.194 20.0927V15.8651C27.194 15.3676 26.7907 14.9648 26.2937 14.9648ZM25.3935 19.1925H20.6677V16.7654H25.3935V19.1925Z" fill="#92C2D6"/>
<path d="M39.2547 14.9648H32.7284C32.2314 14.9648 31.8281 15.3676 31.8281 15.8651V20.0927C31.8281 20.5903 32.2314 20.993 32.7284 20.993H39.2547C39.7516 20.993 40.1549 20.5903 40.1549 20.0927V15.8651C40.1549 15.3676 39.7516 14.9648 39.2547 14.9648ZM38.3544 19.1925H33.6286V16.7654H38.3544V19.1925Z" fill="#92C2D6"/>
<path d="M13.325 23.0078H6.7987C6.30115 23.0078 5.89844 23.4105 5.89844 23.9081V28.1357C5.89844 28.6326 6.30115 29.0359 6.7987 29.0359H13.325C13.8225 29.0359 14.2252 28.6326 14.2252 28.1357V23.9081C14.2252 23.4105 13.8219 23.0078 13.325 23.0078ZM12.4247 27.2354H7.69896V24.8083H12.4247V27.2354Z" fill="#92C2D6"/>
<path d="M26.2937 23.0078H19.7674C19.2699 23.0078 18.8672 23.4105 18.8672 23.9081V28.1357C18.8672 28.6326 19.2699 29.0359 19.7674 29.0359H26.2937C26.7907 29.0359 27.194 28.6326 27.194 28.1357V23.9081C27.194 23.4105 26.7907 23.0078 26.2937 23.0078ZM25.3935 27.2354H20.6677V24.8083H25.3935V27.2354Z" fill="#92C2D6"/>
<path d="M39.2547 23.0078H32.7284C32.2314 23.0078 31.8281 23.4105 31.8281 23.9081V28.1357C31.8281 28.6326 32.2314 29.0359 32.7284 29.0359H39.2547C39.7516 29.0359 40.1549 28.6326 40.1549 28.1357V23.9081C40.1549 23.4105 39.7516 23.0078 39.2547 23.0078ZM38.3544 27.2354H33.6286V24.8083H38.3544V27.2354Z" fill="#92C2D6"/>
<path d="M13.325 31.0508H6.7987C6.30115 31.0508 5.89844 31.4541 5.89844 31.951V36.1793C5.89844 36.6762 6.30115 37.0795 6.7987 37.0795H13.325C13.8225 37.0795 14.2252 36.6762 14.2252 36.1793V31.951C14.2252 31.4541 13.8219 31.0508 13.325 31.0508ZM12.4247 35.279H7.69896V32.8513H12.4247V35.279Z" fill="#92C2D6"/>
<path d="M26.2937 31.0508H19.7674C19.2699 31.0508 18.8672 31.4541 18.8672 31.951V36.1793C18.8672 36.6762 19.2699 37.0795 19.7674 37.0795H26.2937C26.7907 37.0795 27.194 36.6762 27.194 36.1793V31.951C27.194 31.4541 26.7907 31.0508 26.2937 31.0508ZM25.3935 35.279H20.6677V32.8513H25.3935V35.279Z" fill="#92C2D6"/>
<path d="M39.2547 31.0508H32.7284C32.2314 31.0508 31.8281 31.4541 31.8281 31.951V36.1793C31.8281 36.6762 32.2314 37.0795 32.7284 37.0795H39.2547C39.7516 37.0795 40.1549 36.6762 40.1549 36.1793V31.951C40.1549 31.4541 39.7516 31.0508 39.2547 31.0508ZM38.3544 35.279H33.6286V32.8513H38.3544V35.279Z" fill="#92C2D6"/>
<path d="M13.325 39.0947H6.7987C6.30115 39.0947 5.89844 39.498 5.89844 39.995V44.2232C5.89844 44.7201 6.30115 45.1235 6.7987 45.1235H13.325C13.8225 45.1235 14.2252 44.7201 14.2252 44.2232V39.995C14.2252 39.498 13.8219 39.0947 13.325 39.0947ZM12.4247 43.3229H7.69896V40.8952H12.4247V43.3229Z" fill="#92C2D6"/>
<path d="M39.2547 39.0947H32.7284C32.2314 39.0947 31.8281 39.498 31.8281 39.995V44.2232C31.8281 44.7201 32.2314 45.1235 32.7284 45.1235H39.2547C39.7516 45.1235 40.1549 44.7201 40.1549 44.2232V39.995C40.1549 39.498 39.7516 39.0947 39.2547 39.0947ZM38.3544 43.3229H33.6286V40.8952H38.3544V43.3229Z" fill="#92C2D6"/>
</svg>
