<svg width="44" height="60" viewBox="0 0 44 60" fill="none" xmlns="http://www.w3.org/2000/svg">
<path d="M2.21431 56.0948L3.05046 58.495C3.20249 58.9596 3.73458 59.1918 4.64674 59.1918H39.3089C40.221 59.1918 40.7531 58.9596 40.9051 58.495L41.7413 56.0948C42.8815 56.0948 43.8697 55.0883 43.8697 53.9269V52.843C43.8697 51.6816 42.8815 50.6751 41.7413 50.6751H40.6771V28.1445C40.6771 27.6799 40.3731 27.3702 39.917 27.3702H38.0927V12.3498C38.0927 11.8852 37.7886 11.5755 37.3325 11.5755H31.9356V1.58773C31.9356 1.12318 31.6315 0.813477 31.1754 0.813477H12.7802C12.3241 0.813477 12.02 1.12318 12.02 1.58773V11.5755H6.62309C6.16701 11.5755 5.86296 11.8852 5.86296 12.3498V27.4476H4.03864C3.58256 27.4476 3.2785 27.7573 3.2785 28.2219V50.7525H2.21431C1.07411 50.7525 0.0859375 51.759 0.0859375 52.9204V53.9269C0.161951 55.0883 1.07411 56.0948 2.21431 56.0948ZM39.3849 57.6433H4.64674C4.57073 57.6433 4.4187 57.6433 4.34269 57.6433L3.8106 56.0948H40.145L39.6129 57.6433C39.5369 57.6433 39.4609 57.6433 39.3849 57.6433ZM32.7717 40.8421C32.3156 40.8421 32.0116 41.1518 32.0116 41.6164C32.0116 43.2423 30.7194 44.4811 29.1991 44.4811C27.6028 44.4811 26.3866 43.1649 26.3866 41.6164C26.3866 41.1518 26.0825 40.8421 25.6264 40.8421C25.1704 40.8421 24.8663 41.1518 24.8663 41.6164C24.8663 43.2423 23.5741 44.4811 22.0538 44.4811C20.5336 44.4811 19.2413 43.1649 19.2413 41.6164C19.2413 41.1518 18.9373 40.8421 18.4812 40.8421C18.0251 40.8421 17.7211 41.1518 17.7211 41.6164C17.7211 43.2423 16.4288 44.4811 14.9086 44.4811C13.3123 44.4811 12.0961 43.1649 12.0961 41.6164C12.0961 41.1518 11.792 40.8421 11.3359 40.8421C10.8798 40.8421 10.5758 41.1518 10.5758 41.6164C10.5758 43.2423 9.28356 44.4811 7.76329 44.4811C6.16701 44.4811 4.9508 43.1649 4.9508 41.6164V37.4354C5.71093 38.1323 6.69911 38.5194 7.76329 38.5194C9.28356 38.5194 10.5758 37.7451 11.3359 36.5838C12.0961 37.7451 13.4643 38.5194 14.9086 38.5194C16.4288 38.5194 17.7211 37.7451 18.4812 36.5838C19.2413 37.7451 20.6096 38.5194 22.0538 38.5194C23.4981 38.5194 24.8663 37.7451 25.6264 36.5838C26.3866 37.7451 27.7548 38.5194 29.1991 38.5194C30.7194 38.5194 32.0116 37.7451 32.7717 36.5838C33.5318 37.7451 34.9001 38.5194 36.3443 38.5194C37.4085 38.5194 38.3967 38.1323 39.1568 37.4354V41.6938C39.1568 43.3197 37.8646 44.5585 36.3443 44.5585C34.7481 44.5585 33.5318 43.2423 33.5318 41.6938C33.5318 41.2293 33.2278 40.8421 32.7717 40.8421ZM30.4913 2.36197V5.61382C30.4913 6.93004 29.4271 7.93657 28.2109 7.93657C26.9947 7.93657 25.9305 6.85262 25.9305 5.61382C25.9305 5.14927 25.6264 4.83957 25.1704 4.83957C24.7143 4.83957 24.4102 5.14927 24.4102 5.61382C24.4102 6.93004 23.346 7.93657 22.1298 7.93657C20.8376 7.93657 19.8494 6.85262 19.8494 5.61382C19.8494 5.14927 19.5454 4.83957 19.0893 4.83957C18.6332 4.83957 18.3292 5.14927 18.3292 5.61382C18.3292 6.93004 17.265 7.93657 16.0488 7.93657C14.8325 7.93657 13.7684 6.85262 13.7684 5.61382V2.36197H30.4913ZM13.5403 8.71081C14.1484 9.25279 14.9846 9.56249 15.8207 9.56249C17.1129 9.56249 18.1771 8.94309 18.8613 7.93657C19.5454 8.86566 20.6856 9.56249 21.9018 9.56249C23.194 9.56249 24.2582 8.94309 24.9423 7.93657C25.6264 8.86566 26.7666 9.56249 27.9829 9.56249C28.819 9.56249 29.6552 9.25279 30.2633 8.78824V11.653H13.5403V8.71081ZM36.5724 13.124V18.9309C36.5724 20.2471 35.5082 21.2536 34.292 21.2536C33.0758 21.2536 32.0116 20.1697 32.0116 18.9309C32.0116 18.4663 31.7075 18.1566 31.2514 18.1566C30.7954 18.1566 30.4913 18.4663 30.4913 18.9309C30.4913 20.2471 29.4271 21.2536 28.2109 21.2536C26.9947 21.2536 25.9305 20.1697 25.9305 18.9309C25.9305 18.4663 25.6264 18.1566 25.1704 18.1566C24.7143 18.1566 24.4102 18.4663 24.4102 18.9309C24.4102 20.2471 23.346 21.2536 22.1298 21.2536C20.8376 21.2536 19.8494 20.1697 19.8494 18.9309C19.8494 18.4663 19.5454 18.1566 19.0893 18.1566C18.6332 18.1566 18.3292 18.4663 18.3292 18.9309C18.3292 20.2471 17.265 21.2536 16.0488 21.2536C14.8325 21.2536 13.7684 20.1697 13.7684 18.9309C13.7684 18.4663 13.4643 18.1566 13.0082 18.1566C12.5521 18.1566 12.2481 18.4663 12.2481 18.9309C12.2481 20.2471 11.1839 21.2536 9.96768 21.2536C8.75147 21.2536 7.68728 20.1697 7.68728 18.9309V13.2015H36.5724V13.124ZM7.45924 21.9505C8.06735 22.4924 8.90349 22.8021 9.73964 22.8021C11.0319 22.8021 12.0961 22.1827 12.7802 21.1762C13.4643 22.1053 14.6045 22.8021 15.8207 22.8021C17.1129 22.8021 18.1771 22.1827 18.8613 21.1762C19.5454 22.1053 20.6856 22.8021 21.9018 22.8021C23.194 22.8021 24.2582 22.1827 24.9423 21.1762C25.6264 22.1053 26.7666 22.8021 27.9829 22.8021C29.1991 22.8021 30.3393 22.1827 31.0234 21.1762C31.7075 22.1053 32.8477 22.8021 34.0639 22.8021C34.9001 22.8021 35.7362 22.4924 36.3443 22.0279V27.4476H7.45924V21.9505ZM39.2329 28.9187V34.0288C39.2329 35.6547 37.9406 36.8935 36.4204 36.8935C34.8241 36.8935 33.6079 35.5772 33.6079 34.0288C33.6079 33.5642 33.3038 33.2545 32.8477 33.2545C32.3916 33.2545 32.0876 33.5642 32.0876 34.0288C32.0876 35.6547 30.7954 36.8935 29.2751 36.8935C27.6788 36.8935 26.4626 35.5772 26.4626 34.0288C26.4626 33.5642 26.1585 33.2545 25.7025 33.2545C25.2464 33.2545 24.9423 33.5642 24.9423 34.0288C24.9423 35.6547 23.6501 36.8935 22.1298 36.8935C20.6096 36.8935 19.3173 35.5772 19.3173 34.0288C19.3173 33.5642 19.0133 33.2545 18.5572 33.2545C18.1011 33.2545 17.7971 33.5642 17.7971 34.0288C17.7971 35.6547 16.5048 36.8935 14.9846 36.8935C13.3883 36.8935 12.1721 35.5772 12.1721 34.0288C12.1721 33.5642 11.868 33.2545 11.4119 33.2545C10.9559 33.2545 10.6518 33.5642 10.6518 34.0288C10.6518 35.6547 9.35958 36.8935 7.83931 36.8935C6.24303 36.8935 5.02681 35.5772 5.02681 34.0288V28.9961H39.2329V28.9187ZM4.79877 44.9457C5.55891 45.6425 6.54708 46.0296 7.61127 46.0296C9.13154 46.0296 10.4238 45.2554 11.1839 44.094C11.944 45.2554 13.3123 46.0296 14.7565 46.0296C16.2768 46.0296 17.569 45.2554 18.3292 44.094C19.0893 45.2554 20.4575 46.0296 21.9018 46.0296C23.346 46.0296 24.7143 45.2554 25.4744 44.094C26.2346 45.2554 27.6028 46.0296 29.0471 46.0296C30.5673 46.0296 31.8596 45.2554 32.6197 44.094C33.3798 45.2554 34.7481 46.0296 36.1923 46.0296C37.2565 46.0296 38.2447 45.6425 39.0048 44.9457V50.6751H4.79877V44.9457ZM1.68222 52.9204C1.68222 52.6107 1.98627 52.301 2.29033 52.301H41.8173C42.1214 52.301 42.4254 52.6107 42.4254 52.9204V53.9269C42.4254 54.2366 42.1214 54.5463 41.8173 54.5463H2.29033C1.98627 54.5463 1.68222 54.2366 1.68222 53.9269V52.9204Z" fill="#E58383"/>
</svg>
