<svg width="63" height="32" viewBox="0 0 63 32" fill="none" xmlns="http://www.w3.org/2000/svg">
<path d="M24.3468 21.694C23.4982 27.1353 20.3863 30.552 16.2842 30.6152C15.3648 30.9948 14.3746 31.2479 13.3845 31.2479C9.42391 31.2479 5.46332 28.2109 2.42215 22.9595C-1.67989 15.8731 0.654034 5.0538 0.724759 4.61091C0.795484 4.23128 1.29056 3.9782 1.71491 4.16801C1.99781 4.29455 6.09985 5.9396 10.2726 8.78678C11.7578 5.9396 13.6674 3.21895 15.5062 1.13101C15.6477 1.00447 15.8599 0.87793 16.072 0.87793C16.2842 0.87793 16.4964 1.00447 16.6378 1.13101C17.8402 2.4597 19.5376 4.73745 20.9521 7.14174C25.6906 4.35783 31.4193 3.21895 32.1266 3.09241H32.1973C32.268 3.09241 33.046 3.02914 33.046 3.66185C33.046 4.04147 32.9046 13.279 28.166 18.4672C26.8929 19.7959 25.6199 20.8715 24.3468 21.694Z" fill="#E9D4C6"/>
<path d="M24.3468 21.694C23.4982 27.1353 20.3863 30.552 16.2842 30.6152C15.3648 30.9948 14.3746 31.2479 13.3845 31.2479C9.42391 31.2479 5.46332 28.2109 2.42215 22.9595C-1.67989 15.8731 0.654034 5.0538 0.724759 4.61091C0.795484 4.23128 1.29056 3.9782 1.71491 4.16801C1.99781 4.29455 6.09985 5.9396 10.2726 8.78678C11.7578 5.9396 13.6674 3.21895 15.5062 1.13101C15.6477 1.00447 15.8599 0.87793 16.072 0.87793C16.2842 0.87793 16.4964 1.00447 16.6378 1.13101C17.8402 2.4597 19.5376 4.73745 20.9521 7.14174C25.6906 4.35783 31.4193 3.21895 32.1266 3.09241H32.1973C32.268 3.09241 33.046 3.02914 33.046 3.66185C33.046 4.04147 32.9046 13.279 28.166 18.4672C26.8929 19.7959 25.6199 20.8715 24.3468 21.694ZM27.0344 17.6447C29.5805 14.8608 30.7121 10.6849 31.2072 7.64791C29.7927 10.3686 27.5295 14.1648 24.559 17.2651C24.6297 18.0876 24.6297 19.0367 24.559 19.9225C25.4077 19.2897 26.1857 18.5305 27.0344 17.6447ZM24.3468 15.4935C27.388 11.9503 29.6512 7.64791 30.7828 5.30689C28.8025 6.50903 25.7613 8.5337 22.9324 11.0013C23.5689 12.3932 24.0639 14.0383 24.3468 15.4935ZM18.6889 22.39C19.5376 16.5691 18.0523 9.35622 16.1428 3.66185V3.59858C13.7381 10.7482 11.2628 22.9595 16.1428 28.9702C16.1428 28.9069 18.0523 26.8822 18.6889 22.39ZM3.62448 22.39C6.31202 27.0721 9.70681 29.7927 13.0309 29.9825C11.0506 29.0335 9.70681 27.2619 8.85811 25.3005C8.64594 24.731 4.40245 20.3653 1.57346 8.72351C1.21983 12.5198 1.21983 18.2141 3.62448 22.39ZM8.50449 12.8994C6.2413 10.1787 3.9781 7.96426 2.49288 6.57231C3.20013 9.67258 4.75607 15.8731 7.72652 21.1246C7.30217 17.8978 7.58507 15.4935 8.50449 12.8994ZM4.96825 7.14174C6.17057 8.34389 7.58507 9.79912 8.99956 11.4442C9.21174 10.938 9.42391 10.4318 9.63609 9.98893C8.08014 8.78678 6.38274 7.83772 4.96825 7.14174ZM8.99956 18.0876C8.99956 22.2002 10.1312 27.8946 14.5161 29.16C10.0604 22.9595 12.0407 12.0769 14.2332 4.99053C11.6871 8.5337 8.99956 13.8485 8.99956 18.0876ZM17.6987 29.16C23.2153 27.6415 24.2761 18.4672 22.0837 12.583C21.0935 9.98893 19.6083 7.39483 18.0523 5.11708C20.1741 12.2034 22.0837 22.9595 17.6987 29.16ZM22.3666 9.73585C24.3468 8.02753 26.4686 6.50903 28.2367 5.37016C26.2564 6.00287 23.7811 6.95193 21.6593 8.21735C21.6593 8.34389 22.0837 9.03987 22.3666 9.73585Z" fill="black"/>
<path d="M52.4594 32H26.1265C20.6285 32 16.1914 28.2039 16.1914 23.5C16.1914 18.7961 20.6285 15 26.1265 15H52.4594C57.9575 15 62.3946 18.7961 62.3946 23.5C62.3946 28.2039 57.9575 32 52.4594 32Z" fill="#6DCBBA"/>
<path d="M23.7861 21.61C23.6615 21.654 23.4378 21.7127 23.1151 21.786C22.7925 21.852 22.5395 21.896 22.3561 21.918L22.2351 21.148C22.6311 21.0673 23.0418 20.9243 23.4671 20.719C23.8998 20.5063 24.2518 20.2863 24.5231 20.059H24.5341L25.4031 20.18V26.23L26.6571 26.351V27H22.4661V26.351L23.7861 26.241V21.61ZM30.3752 27.11C29.4365 27.11 28.7179 26.7983 28.2192 26.175C27.7279 25.5443 27.4822 24.69 27.4822 23.612C27.4822 22.8493 27.6252 22.204 27.9112 21.676C28.1972 21.1407 28.5749 20.741 29.0442 20.477C29.5209 20.2057 30.0489 20.07 30.6282 20.07C31.5742 20.07 32.2855 20.3707 32.7622 20.972C33.2389 21.566 33.4772 22.4093 33.4772 23.502C33.4772 24.2573 33.3379 24.91 33.0592 25.46C32.7879 26.0027 32.4175 26.4133 31.9482 26.692C31.4789 26.9707 30.9545 27.11 30.3752 27.11ZM30.4852 26.45C30.9472 26.45 31.2845 26.2153 31.4972 25.746C31.7172 25.2693 31.8272 24.5617 31.8272 23.623C31.8272 22.6257 31.7245 21.896 31.5192 21.434C31.3212 20.9647 30.9802 20.73 30.4962 20.73C29.5869 20.73 29.1322 21.6503 29.1322 23.491C29.1322 24.4737 29.2385 25.2143 29.4512 25.713C29.6712 26.2043 30.0159 26.45 30.4852 26.45ZM37.6047 27.11C36.666 27.11 35.9474 26.7983 35.4487 26.175C34.9574 25.5443 34.7117 24.69 34.7117 23.612C34.7117 22.8493 34.8547 22.204 35.1407 21.676C35.4267 21.1407 35.8044 20.741 36.2737 20.477C36.7504 20.2057 37.2784 20.07 37.8577 20.07C38.8037 20.07 39.515 20.3707 39.9917 20.972C40.4684 21.566 40.7067 22.4093 40.7067 23.502C40.7067 24.2573 40.5674 24.91 40.2887 25.46C40.0174 26.0027 39.647 26.4133 39.1777 26.692C38.7084 26.9707 38.184 27.11 37.6047 27.11ZM37.7147 26.45C38.1767 26.45 38.514 26.2153 38.7267 25.746C38.9467 25.2693 39.0567 24.5617 39.0567 23.623C39.0567 22.6257 38.954 21.896 38.7487 21.434C38.5507 20.9647 38.2097 20.73 37.7257 20.73C36.8164 20.73 36.3617 21.6503 36.3617 23.491C36.3617 24.4737 36.468 25.2143 36.6807 25.713C36.9007 26.2043 37.2454 26.45 37.7147 26.45ZM48.3982 18.739H49.4212L45.8902 27H44.8782L48.3982 18.739ZM43.9102 23.535C43.4775 23.535 43.1072 23.4323 42.7992 23.227C42.4912 23.0217 42.2565 22.743 42.0952 22.391C41.9339 22.039 41.8532 21.6503 41.8532 21.225C41.8532 20.7337 41.9522 20.3083 42.1502 19.949C42.3482 19.5823 42.6159 19.3037 42.9532 19.113C43.2979 18.9223 43.6792 18.827 44.0972 18.827C44.8085 18.827 45.3292 19.0397 45.6592 19.465C45.9965 19.8903 46.1652 20.455 46.1652 21.159C46.1652 21.6503 46.0625 22.0757 45.8572 22.435C45.6592 22.7943 45.3879 23.0693 45.0432 23.26C44.6985 23.4433 44.3209 23.535 43.9102 23.535ZM43.9982 22.875C44.3062 22.875 44.5299 22.7283 44.6692 22.435C44.8159 22.1343 44.8892 21.7237 44.8892 21.203C44.8892 20.7043 44.8195 20.2973 44.6802 19.982C44.5482 19.6593 44.3319 19.498 44.0312 19.498C43.7305 19.498 43.5069 19.6447 43.3602 19.938C43.2135 20.2313 43.1402 20.6383 43.1402 21.159C43.1402 21.6283 43.2099 22.0317 43.3492 22.369C43.4885 22.7063 43.7049 22.875 43.9982 22.875ZM50.2132 26.846C49.7879 26.846 49.4175 26.7433 49.1022 26.538C48.7942 26.3253 48.5595 26.0467 48.3982 25.702C48.2369 25.35 48.1562 24.9613 48.1562 24.536C48.1562 24.0447 48.2552 23.6193 48.4532 23.26C48.6512 22.8933 48.9225 22.6147 49.2672 22.424C49.6119 22.2333 49.9932 22.138 50.4112 22.138C51.1152 22.138 51.6322 22.3507 51.9622 22.776C52.2995 23.2013 52.4682 23.766 52.4682 24.47C52.4682 24.9613 52.3655 25.3867 52.1602 25.746C51.9622 26.1053 51.6909 26.3803 51.3462 26.571C51.0015 26.7543 50.6239 26.846 50.2132 26.846ZM50.3012 26.175C50.6092 26.175 50.8329 26.0283 50.9722 25.735C51.1189 25.4417 51.1922 25.0347 51.1922 24.514C51.1922 24.0227 51.1225 23.6157 50.9832 23.293C50.8512 22.9703 50.6385 22.809 50.3452 22.809C50.0372 22.809 49.8099 22.9557 49.6632 23.249C49.5165 23.5423 49.4432 23.9493 49.4432 24.47C49.4432 24.9393 49.5129 25.3427 49.6522 25.68C49.7915 26.01 50.0079 26.175 50.3012 26.175Z" fill="black"/>
</svg>
