<svg width="121" height="39" viewBox="0 0 121 39" fill="none" xmlns="http://www.w3.org/2000/svg">
<path d="M0.251096 12.3916C-0.114891 12.8053 -0.0762868 13.4372 0.337322 13.8032C0.75093 14.1692 1.38292 14.1306 1.7489 13.717L0.251096 12.3916ZM44 15.1024L44.9701 15.345L44 15.1024ZM34.5 21.1025L33.6863 21.6838L34.5 21.1025ZM39 11.6025L38.4367 10.7763L39 11.6025ZM114.545 37.9479C115.036 38.1995 115.639 38.0048 115.89 37.5132L119.99 29.5009C120.241 29.0093 120.046 28.4068 119.555 28.1552C119.063 27.9036 118.461 28.0983 118.209 28.59L114.565 35.712L107.443 32.0682C106.952 31.8166 106.349 32.0113 106.098 32.5029C105.846 32.9946 106.041 33.5971 106.532 33.8486L114.545 37.9479ZM2.7694 12.6203C3.15553 12.2255 3.14846 11.5923 2.75359 11.2062C2.35873 10.8201 1.72561 10.8271 1.33947 11.222L2.7694 12.6203ZM3.67551 9.05274C3.2535 9.40901 3.2002 10.0399 3.55647 10.4619C3.91273 10.8839 4.54365 10.9372 4.96566 10.581L3.67551 9.05274ZM7.34614 8.74994C7.79846 8.43304 7.90824 7.80947 7.59135 7.35715C7.27445 6.90483 6.65087 6.79505 6.19855 7.11194L7.34614 8.74994ZM8.87707 5.40172C8.39947 5.67905 8.23712 6.29105 8.51446 6.76865C8.7918 7.24625 9.40379 7.4086 9.8814 7.13126L8.87707 5.40172ZM12.5464 5.72589C13.0449 5.48813 13.2562 4.89129 13.0185 4.3928C12.7807 3.89432 12.1839 3.68295 11.6854 3.92071L12.5464 5.72589ZM14.5991 2.66904C14.0835 2.8671 13.8262 3.44559 14.0242 3.96114C14.2223 4.47669 14.8008 4.73407 15.3163 4.53602L14.5991 2.66904ZM18.1727 3.56338C18.702 3.40562 19.0032 2.84867 18.8454 2.31939C18.6876 1.79012 18.1307 1.48895 17.6014 1.64671L18.1727 3.56338ZM20.673 0.859178C20.1331 0.975393 19.7896 1.50729 19.9058 2.04721C20.0221 2.58713 20.554 2.93061 21.0939 2.8144L20.673 0.859178ZM24.0619 2.2986C24.6094 2.22625 24.9946 1.72374 24.9223 1.17621C24.8499 0.628687 24.3474 0.243484 23.7999 0.315836L24.0619 2.2986ZM26.97 0.0341056C26.4183 0.058723 25.991 0.52595 26.0156 1.07769C26.0402 1.62942 26.5074 2.05674 27.0592 2.03212L26.97 0.0341056ZM30.0529 2.04073C30.6044 2.06979 31.075 1.64626 31.1041 1.09474C31.1332 0.543225 30.7096 0.0725664 30.1581 0.0434988L30.0529 2.04073ZM33.343 0.389525C32.7985 0.297544 32.2824 0.664441 32.1905 1.20901C32.0985 1.75358 32.4654 2.26961 33.0099 2.36159L33.343 0.389525ZM35.8783 3.05115C36.4041 3.22008 36.9673 2.93076 37.1362 2.40494C37.3051 1.87913 37.0158 1.31593 36.49 1.147L35.8783 3.05115ZM39.5069 2.42668C39.0224 2.16164 38.4147 2.33957 38.1497 2.8241C37.8846 3.30863 38.0625 3.91628 38.5471 4.18132L39.5069 2.42668ZM40.8461 5.8331C41.2464 6.21354 41.8794 6.1974 42.2598 5.79705C42.6403 5.3967 42.6241 4.76374 42.2238 4.38329L40.8461 5.8331ZM44.2844 7.09708C44.0295 6.60711 43.4258 6.4165 42.9358 6.67135C42.4458 6.9262 42.2552 7.52999 42.5101 8.01997L44.2844 7.09708ZM43.3321 10.6341C43.4074 11.1813 43.9119 11.5638 44.4591 11.4886C45.0062 11.4133 45.3887 10.9088 45.3135 10.3617L43.3321 10.6341ZM45.2884 13.7184C45.3646 13.1714 44.983 12.6662 44.436 12.59C43.889 12.5137 43.3838 12.8954 43.3075 13.4424L45.2884 13.7184ZM42.571 16.332C42.3741 16.848 42.6328 17.4259 43.1488 17.6228C43.6648 17.8197 44.2427 17.561 44.4396 17.045L42.571 16.332ZM42.6188 20.1965C42.9774 19.7765 42.9277 19.1453 42.5077 18.7867C42.0876 18.4281 41.4564 18.4778 41.0978 18.8978L42.6188 20.1965ZM38.8351 20.5562C38.3223 20.7613 38.0729 21.3433 38.278 21.8561C38.4832 22.3688 39.0651 22.6183 39.5779 22.4131L38.8351 20.5562ZM35.756 22.8137C36.2977 22.921 36.8239 22.5688 36.9312 22.027C37.0385 21.4853 36.6863 20.9591 36.1446 20.8518L35.756 22.8137ZM34.8186 19.5189C34.6675 18.9877 34.1144 18.6796 33.5832 18.8307C33.052 18.9817 32.7438 19.5349 32.8949 20.0661L34.8186 19.5189ZM33.172 16.5464C32.962 17.0572 33.2058 17.6415 33.7166 17.8515C34.2274 18.0615 34.8118 17.8176 35.0217 17.3068L33.172 16.5464ZM36.4383 15.1375C36.8026 14.7224 36.7613 14.0905 36.3462 13.7263C35.9311 13.362 35.2993 13.4032 34.935 13.8184L36.4383 15.1375ZM37.1979 11.6888C36.7655 12.0324 36.6936 12.6615 37.0372 13.0939C37.3808 13.5263 38.0098 13.5982 38.4422 13.2546L37.1979 11.6888ZM40.7998 11.6248C41.2693 11.3338 41.4139 10.7174 41.1229 10.248C40.832 9.77857 40.2155 9.63392 39.7461 9.92489L40.7998 11.6248ZM42.47 8.38969C41.9783 8.6411 41.7835 9.24354 42.0349 9.73529C42.2863 10.227 42.8887 10.4219 43.3805 10.1705L42.47 8.38969ZM46.075 8.92144C46.5844 8.70815 46.8245 8.12227 46.6112 7.61283C46.3979 7.10339 45.812 6.86332 45.3026 7.07661L46.075 8.92144ZM48.214 5.97795C47.6908 6.15483 47.4101 6.72235 47.5869 7.24554C47.7638 7.76874 48.3313 8.04948 48.8545 7.8726L48.214 5.97795ZM51.7044 7.01362C52.2381 6.87152 52.5555 6.32368 52.4134 5.78999C52.2713 5.2563 51.7235 4.93886 51.1898 5.08096L51.7044 7.01362ZM54.2137 4.37601C53.6723 4.48488 53.3216 5.01207 53.4305 5.55351C53.5393 6.09496 54.0665 6.44563 54.608 6.33676L54.2137 4.37601ZM57.5508 5.8349C58.0977 5.75789 58.4786 5.25212 58.4016 4.70523C58.3246 4.15834 57.8188 3.77743 57.272 3.85444L57.5508 5.8349ZM60.3528 3.50871C59.8024 3.55504 59.3939 4.03874 59.4402 4.58908C59.4865 5.13942 59.9702 5.54799 60.5206 5.50166L60.3528 3.50871ZM63.5063 5.33154C64.0583 5.3149 64.4923 4.85389 64.4757 4.30186C64.4591 3.74983 63.9981 3.31581 63.446 3.33245L63.5063 5.33154ZM66.5428 3.32046C65.9906 3.30821 65.5331 3.74588 65.5208 4.29803C65.5086 4.85018 65.9463 5.30772 66.4984 5.31997L66.5428 3.32046ZM69.4881 5.4633C70.0389 5.50384 70.5182 5.09021 70.5588 4.53941C70.5993 3.98862 70.1857 3.50924 69.6349 3.4687L69.4881 5.4633ZM72.7147 3.77414C72.1667 3.70575 71.667 4.09457 71.5986 4.6426C71.5302 5.19063 71.919 5.69035 72.467 5.75875L72.7147 3.77414ZM75.4273 6.20435C75.9712 6.30031 76.4899 5.93721 76.5858 5.39332C76.6818 4.84944 76.3187 4.33074 75.7748 4.23477L75.4273 6.20435ZM78.8075 4.84937C78.2692 4.72599 77.7328 5.06236 77.6094 5.60069C77.486 6.13902 77.8224 6.67544 78.3607 6.79882L78.8075 4.84937ZM81.2595 7.5416C81.7908 7.69237 82.3438 7.38388 82.4945 6.85257C82.6453 6.32126 82.3368 5.76833 81.8055 5.61757L81.2595 7.5416ZM84.7608 6.53963C84.238 6.36143 83.6698 6.64073 83.4916 7.16348C83.3134 7.68622 83.5927 8.25445 84.1155 8.43265L84.7608 6.53963ZM86.9195 9.47226C87.432 9.67802 88.0143 9.42933 88.2201 8.9168C88.4258 8.40428 88.1771 7.822 87.6646 7.61624L86.9195 9.47226ZM90.5075 8.84836C90.007 8.61491 89.412 8.83141 89.1786 9.33192C88.9451 9.83244 89.1616 10.4274 89.6621 10.6609L90.5075 8.84836ZM92.333 11.999C92.8196 12.2603 93.4258 12.0777 93.6871 11.5911C93.9484 11.1045 93.7658 10.4983 93.2792 10.237L92.333 11.999ZM95.9683 11.783C95.4978 11.4939 94.8819 11.6409 94.5928 12.1114C94.3036 12.5819 94.4506 13.1978 94.9212 13.487L95.9683 11.783ZM97.4148 15.1244C97.867 15.4414 98.4906 15.3318 98.8076 14.8796C99.1246 14.4273 99.015 13.8037 98.5628 13.4867L97.4148 15.1244ZM101.049 15.3475C100.618 15.0029 99.9886 15.0734 99.644 15.505C99.2994 15.9365 99.3699 16.5658 99.8014 16.9104L101.049 15.3475ZM102.068 18.8428C102.477 19.2145 103.109 19.1847 103.481 18.7763C103.853 18.3679 103.823 17.7354 103.414 17.3636L102.068 18.8428ZM105.644 19.5317C105.261 19.1336 104.628 19.1212 104.23 19.5041C103.832 19.8869 103.819 20.5199 104.202 20.918L105.644 19.5317ZM106.19 23.1309C106.545 23.5542 107.175 23.6097 107.599 23.255C108.022 22.9002 108.077 22.2695 107.723 21.8462L106.19 23.1309ZM109.638 24.2995C109.313 23.8526 108.688 23.7533 108.241 24.0777C107.794 24.4022 107.695 25.0275 108.019 25.4745L109.638 24.2995ZM109.68 27.9396C109.972 28.4083 110.588 28.5514 111.057 28.2593C111.526 27.9671 111.669 27.3503 111.377 26.8816L109.68 27.9396ZM112.929 29.5803C112.671 29.0921 112.066 28.9057 111.578 29.164C111.089 29.4222 110.903 30.0274 111.161 30.5155L112.929 29.5803ZM112.458 33.1898C112.681 33.695 113.271 33.9235 113.776 33.7002C114.282 33.4769 114.51 32.8864 114.287 32.3813L112.458 33.1898ZM115.445 35.2693C115.257 34.7499 114.684 34.481 114.165 34.6687C113.645 34.8564 113.376 35.4296 113.564 35.949L115.445 35.2693ZM1.7489 13.717C2.08031 13.3425 2.42068 12.9769 2.7694 12.6203L1.33947 11.222C0.967879 11.602 0.604857 11.9919 0.251096 12.3916L1.7489 13.717ZM4.96566 10.581C5.7319 9.93412 6.52708 9.32378 7.34614 8.74994L6.19855 7.11194C5.33192 7.71911 4.48904 8.36596 3.67551 9.05274L4.96566 10.581ZM9.8814 7.13126C10.7526 6.62535 11.6427 6.15691 12.5464 5.72589L11.6854 3.92071C10.7342 4.37441 9.79618 4.868 8.87707 5.40172L9.8814 7.13126ZM15.3163 4.53602C16.2623 4.17262 17.2164 3.84844 18.1727 3.56338L17.6014 1.64671C16.5963 1.94631 15.5935 2.28702 14.5991 2.66904L15.3163 4.53602ZM21.0939 2.8144C22.09 2.6 23.0815 2.42815 24.0619 2.2986L23.7999 0.315836C22.7655 0.45252 21.721 0.633608 20.673 0.859178L21.0939 2.8144ZM27.0592 2.03212C28.0818 1.98649 29.0824 1.98958 30.0529 2.04073L30.1581 0.0434988C29.12 -0.0112176 28.0544 -0.014277 26.97 0.0341056L27.0592 2.03212ZM33.0099 2.36159C34.0214 2.53244 34.9811 2.76292 35.8783 3.05115L36.49 1.147C35.4937 0.826921 34.4402 0.57485 33.343 0.389525L33.0099 2.36159ZM38.5471 4.18132C39.4227 4.66028 40.1929 5.21238 40.8461 5.8331L42.2238 4.38329C41.4309 3.62984 40.5162 2.9788 39.5069 2.42668L38.5471 4.18132ZM42.5101 8.01997C42.9193 8.80677 43.2004 9.67651 43.3321 10.6341L45.3135 10.3617C45.1511 9.18093 44.8012 8.09073 44.2844 7.09708L42.5101 8.01997ZM43.3075 13.4424C43.244 13.8984 43.1521 14.3709 43.0299 14.8599L44.9701 15.345C45.1087 14.7907 45.2146 14.2485 45.2884 13.7184L43.3075 13.4424ZM43.0299 14.8599C42.896 15.3954 42.7416 15.8849 42.571 16.332L44.4396 17.045C44.6402 16.5192 44.8181 15.9532 44.9701 15.345L43.0299 14.8599ZM41.0978 18.8978C40.3871 19.7302 39.5987 20.2508 38.8351 20.5562L39.5779 22.4131C40.6367 21.9896 41.6939 21.2797 42.6188 20.1965L41.0978 18.8978ZM36.1446 20.8518C35.8686 20.7971 35.6525 20.7199 35.5012 20.6428C35.3394 20.5603 35.3014 20.504 35.3137 20.5213L33.6863 21.6838C34.1331 22.3094 34.9679 22.6576 35.756 22.8137L36.1446 20.8518ZM35.3137 20.5213C35.068 20.1772 34.9106 19.8423 34.8186 19.5189L32.8949 20.0661C33.0535 20.6236 33.3157 21.1649 33.6863 21.6838L35.3137 20.5213ZM35.0217 17.3068C35.3189 16.584 35.8136 15.8494 36.4383 15.1375L34.935 13.8184C34.2167 14.6369 33.5785 15.5576 33.172 16.5464L35.0217 17.3068ZM38.4422 13.2546C38.8207 12.9538 39.1993 12.6769 39.5633 12.4288L38.4367 10.7763C38.0345 11.0505 37.6165 11.3562 37.1979 11.6888L38.4422 13.2546ZM39.5633 12.4288C39.9679 12.1529 40.3802 11.8849 40.7998 11.6248L39.7461 9.92489C39.3022 10.2001 38.8656 10.4839 38.4367 10.7763L39.5633 12.4288ZM43.3805 10.1705C44.2541 9.7238 45.1531 9.3074 46.075 8.92144L45.3026 7.07661C44.3354 7.48156 43.3902 7.91924 42.47 8.38969L43.3805 10.1705ZM48.8545 7.8726C49.7866 7.55751 50.7373 7.27113 51.7044 7.01362L51.1898 5.08096C50.1814 5.34947 49.1886 5.64845 48.214 5.97795L48.8545 7.8726ZM54.608 6.33676C55.5767 6.14198 56.5584 5.97465 57.5508 5.8349L57.272 3.85444C56.2416 3.99953 55.2214 4.17339 54.2137 4.37601L54.608 6.33676ZM60.5206 5.50166C61.5085 5.41848 62.5045 5.36174 63.5063 5.33154L63.446 3.33245C62.4087 3.36372 61.3769 3.42249 60.3528 3.50871L60.5206 5.50166ZM66.4984 5.31997C67.4921 5.34203 68.4893 5.38978 69.4881 5.4633L69.6349 3.4687C68.6022 3.39268 67.5708 3.34328 66.5428 3.32046L66.4984 5.31997ZM72.467 5.75875C73.455 5.88205 74.4424 6.03056 75.4273 6.20435L75.7748 4.23477C74.7567 4.05513 73.736 3.9016 72.7147 3.77414L72.467 5.75875ZM78.3607 6.79882C79.332 7.02145 80.299 7.26903 81.2595 7.5416L81.8055 5.61757C80.8118 5.3356 79.8119 5.07956 78.8075 4.84937L78.3607 6.79882ZM84.1155 8.43265C85.059 8.7543 85.9943 9.10083 86.9195 9.47226L87.6646 7.61624C86.7061 7.23142 85.7375 6.87258 84.7608 6.53963L84.1155 8.43265ZM89.6621 10.6609C90.565 11.082 91.456 11.5281 92.333 11.999L93.2792 10.237C92.3685 9.748 91.444 9.28514 90.5075 8.84836L89.6621 10.6609ZM94.9212 13.487C95.7687 14.0079 96.6005 14.5537 97.4148 15.1244L98.5628 13.4867C97.715 12.8925 96.8496 12.3246 95.9683 11.783L94.9212 13.487ZM99.8014 16.9104C100.577 17.5297 101.333 18.1738 102.068 18.8428L103.414 17.3636C102.647 16.6652 101.858 15.9932 101.049 15.3475L99.8014 16.9104ZM104.202 20.918C104.888 21.6311 105.551 22.3687 106.19 23.1309L107.723 21.8462C107.054 21.0486 106.36 20.2771 105.644 19.5317L104.202 20.918ZM108.019 25.4745C108.598 26.2722 109.152 27.0939 109.68 27.9396L111.377 26.8816C110.825 25.9957 110.244 25.135 109.638 24.2995L108.019 25.4745ZM111.161 30.5155C111.621 31.3841 112.053 32.2755 112.458 33.1898L114.287 32.3813C113.864 31.4238 113.41 30.4902 112.929 29.5803L111.161 30.5155ZM113.564 35.949C113.733 36.4156 113.894 36.8876 114.048 37.3651L115.952 36.7503C115.79 36.251 115.621 35.7573 115.445 35.2693L113.564 35.949Z" fill="#FFD6D6"/>
</svg>
