<svg width="73" height="75" viewBox="0 0 73 75" fill="none" xmlns="http://www.w3.org/2000/svg">
<path d="M58.3004 27.3697C58.9639 22.2677 56.7376 17.6142 52.3521 14.9265C51.9496 14.6758 51.5304 14.4367 51.1059 14.205C44.36 10.5232 36.3066 9.79717 29.0109 12.2122C21.6162 14.6597 15.7394 19.9239 12.4626 27.0341C6.64401 39.6714 11.1462 54.7831 22.9349 62.1849C23.4325 62.4977 23.9368 62.7936 24.4428 63.0698C24.8076 63.2689 25.1733 63.4569 25.5369 63.6347C30.1596 65.8996 35.4685 65.2645 39.3903 61.977C43.5123 58.5214 45.1373 53.121 43.6305 47.8821C43.6305 47.8821 43.6305 47.8821 43.63 47.8806C42.9734 45.6062 43.0885 43.6318 43.9718 42.0134C44.8524 40.4 46.4491 39.238 48.7186 38.5595C53.9336 36.997 57.6051 32.7097 58.3004 27.3697ZM41.9359 40.9022C40.7656 43.0465 40.5811 45.6824 41.4022 48.5252C42.6509 52.8683 41.3086 57.3418 37.9004 60.1987C34.6422 62.9298 30.4023 63.4362 26.5556 61.5508C25.7576 61.1618 24.9522 60.7132 24.1692 60.2213C13.3638 53.4362 9.23736 39.5862 14.57 28.0049C17.5742 21.4839 22.9619 16.6573 29.7395 14.4136C36.4274 12.1997 43.8105 12.8657 49.9948 16.241C50.3795 16.4509 50.7599 16.6663 51.1332 16.8997C54.7233 19.0992 56.5428 22.9023 55.9996 27.07C55.4256 31.4905 52.3801 35.0422 48.054 36.3375C45.2189 37.1848 43.1035 38.7629 41.9359 40.9022Z" fill="#9FCE9E"/>
<path d="M49.1992 17.6986C46.9724 16.4832 44.1711 17.3064 42.9557 19.5332C41.7404 21.76 42.5641 24.5603 44.7908 25.7756C47.0176 26.991 49.8174 26.1683 51.0328 23.9415C52.2481 21.7147 51.426 18.9139 49.1992 17.6986ZM45.902 23.7397C44.7976 23.1369 44.3888 21.7488 44.9916 20.6443C45.5944 19.5399 46.9836 19.1317 48.088 19.7345C49.1925 20.3373 49.5997 21.7259 48.9969 22.8303C48.3941 23.9348 47.0065 24.3425 45.902 23.7397Z" fill="#9FCE9E"/>
<path d="M30.7539 51.4935C28.5271 50.2782 25.7263 51.1003 24.5109 53.3271C23.2956 55.5539 24.1188 58.3552 26.3455 59.5706C28.5723 60.7859 31.3727 59.9622 32.588 57.7354C33.8034 55.5086 32.9807 52.7088 30.7539 51.4935ZM27.4567 57.5346C26.3523 56.9319 25.9441 55.5427 26.5469 54.4383C27.1497 53.3338 28.5383 52.9266 29.6427 53.5294C30.7471 54.1322 31.1549 55.5198 30.5521 56.6243C29.9493 57.7287 28.5612 58.1374 27.4567 57.5346Z" fill="#9FCE9E"/>
<path d="M24.9156 31.6163C26.1309 29.3895 25.3088 26.5887 23.082 25.3734C20.8552 24.158 18.0539 24.9812 16.8385 27.208C15.6232 29.4348 16.4469 32.2351 18.6737 33.4504C20.9004 34.6658 23.7002 33.8431 24.9156 31.6163ZM19.7848 31.4145C18.6804 30.8117 18.2717 29.4236 18.8744 28.3191C19.4772 27.2147 20.8664 26.8065 21.9708 27.4093C23.0753 28.0121 23.4825 29.4007 22.8797 30.5051C22.2769 31.6096 20.8893 32.0173 19.7848 31.4145Z" fill="#9FCE9E"/>
<path d="M18.0083 39.6464C15.5747 40.3632 14.1765 42.925 14.8913 45.3575C15.2371 46.5372 16.0231 47.5106 17.1017 48.0993C18.1803 48.688 19.4238 48.8209 20.6024 48.4746C21.781 48.1282 22.7549 47.3438 23.3436 46.2652C23.9323 45.1866 24.0668 43.9426 23.7194 42.7635C23.0042 40.3294 20.4424 38.9312 18.0083 39.6464ZM19.9486 46.2495C18.7776 46.5936 17.4605 45.8747 17.1164 44.7037C16.7619 43.4974 17.4553 42.227 18.6622 41.8715C19.8689 41.5186 21.1384 42.2115 21.4943 43.4173C21.6664 44.0028 21.5996 44.6192 21.3077 45.154C21.0158 45.6888 20.5341 46.0774 19.9486 46.2495Z" fill="#9FCE9E"/>
<path d="M31.0474 15.7523C28.6149 16.467 27.2167 19.0288 27.9304 21.4634C28.288 22.6804 29.108 23.6389 30.1418 24.2031C31.1757 24.7674 32.4244 24.938 33.6415 24.5804C34.8211 24.2346 35.7946 23.4486 36.3832 22.37C36.9719 21.2914 37.1058 20.0484 36.7585 18.8693C36.0669 16.5101 33.4057 15.0576 31.0474 15.7523ZM32.9876 22.3553C31.7798 22.7102 30.5104 22.0174 30.1555 20.8095C29.8015 19.6023 30.4949 18.3318 31.7012 17.9773C32.2867 17.8053 32.9031 17.8721 33.4379 18.164C33.9728 18.4559 34.3614 18.9376 34.5334 19.5231C34.7054 20.1086 34.6392 20.724 34.3473 21.2588C34.0554 21.7936 33.5731 22.1833 32.9876 22.3553Z" fill="#9FCE9E"/>
<path d="M63.4029 43.3362L65.0388 37.6774C66.1149 37.2788 67.0647 36.5252 67.6561 35.4416C68.7586 33.4216 68.3838 27.2433 68.2974 26.0259C68.2426 25.2374 67.2753 24.712 66.5835 25.0905C65.5123 25.6774 60.1149 28.704 59.0124 30.724C58.4209 31.8079 58.3008 33.0145 58.5477 34.1351L54.6737 38.572C54.6412 38.6093 54.6323 38.6588 54.6052 38.6991C54.5706 38.7502 54.522 38.7897 54.4955 38.8464L43.1685 63.1909C42.4602 64.7487 43.0829 66.6123 44.586 67.4327C46.0901 68.2536 47.9944 67.7692 48.9272 66.3223L63.2685 43.6345C63.3019 43.5816 63.3087 43.5194 63.3329 43.4626C63.3522 43.418 63.3891 43.3837 63.4029 43.3362ZM46.9728 65.0737C46.6996 65.4962 46.1396 65.6382 45.6972 65.3968C45.2548 65.1553 45.0723 64.608 45.276 64.1592L56.0773 40.9457L60.6472 43.4398L46.9728 65.0737ZM57.3714 39.0096L59.6854 36.3596C60.0489 36.7654 60.47 37.1294 60.9747 37.4049C61.4798 37.6806 62.0141 37.8379 62.5524 37.9241L61.5754 41.3041L57.3714 39.0096ZM62.0859 35.369C60.8254 34.681 60.3604 33.0957 61.0484 31.8352C61.5036 31.0012 63.9006 29.3587 66.0775 28.0554C66.1601 30.5919 66.076 33.4954 65.6202 34.3305C64.9322 35.591 63.3464 36.057 62.0859 35.369Z" fill="#9FCE9E"/>
</svg>
