<svg width="49" height="65" viewBox="0 0 49 65" fill="none" xmlns="http://www.w3.org/2000/svg">
<path d="M3.14193 60.6956L4.05859 63.3269C4.22526 63.8362 4.80859 64.0908 5.80859 64.0908H43.8086C44.8086 64.0908 45.3919 63.8362 45.5586 63.3269L46.4753 60.6956C47.7253 60.6956 48.8086 59.5921 48.8086 58.3189V57.1306C48.8086 55.8574 47.7253 54.7539 46.4753 54.7539H45.3086V30.0537C45.3086 29.5444 44.9753 29.2049 44.4753 29.2049H42.4753V12.738C42.4753 12.2288 42.1419 11.8892 41.6419 11.8892H35.7253V0.939627C35.7253 0.430343 35.3919 0.0908203 34.8919 0.0908203H14.7253C14.2253 0.0908203 13.8919 0.430343 13.8919 0.939627V11.8892H7.97526C7.47526 11.8892 7.14193 12.2288 7.14193 12.738V29.2898H5.14193C4.64193 29.2898 4.30859 29.6293 4.30859 30.1386V54.8388H3.14193C1.89193 54.8388 0.808594 55.9423 0.808594 57.2155V58.3189C0.891927 59.5921 1.89193 60.6956 3.14193 60.6956ZM43.8919 62.3932H5.80859C5.72526 62.3932 5.55859 62.3932 5.47526 62.3932L4.89193 60.6956H44.7253L44.1419 62.3932C44.0586 62.3932 43.9753 62.3932 43.8919 62.3932ZM36.6419 43.9741C36.1419 43.9741 35.8086 44.3136 35.8086 44.8229C35.8086 46.6054 34.3919 47.9635 32.7253 47.9635C30.9753 47.9635 29.6419 46.5205 29.6419 44.8229C29.6419 44.3136 29.3086 43.9741 28.8086 43.9741C28.3086 43.9741 27.9753 44.3136 27.9753 44.8229C27.9753 46.6054 26.5586 47.9635 24.8919 47.9635C23.2253 47.9635 21.8086 46.5205 21.8086 44.8229C21.8086 44.3136 21.4753 43.9741 20.9753 43.9741C20.4753 43.9741 20.1419 44.3136 20.1419 44.8229C20.1419 46.6054 18.7253 47.9635 17.0586 47.9635C15.3086 47.9635 13.9753 46.5205 13.9753 44.8229C13.9753 44.3136 13.6419 43.9741 13.1419 43.9741C12.6419 43.9741 12.3086 44.3136 12.3086 44.8229C12.3086 46.6054 10.8919 47.9635 9.22526 47.9635C7.47526 47.9635 6.14193 46.5205 6.14193 44.8229V40.2394C6.97526 41.0033 8.05859 41.4277 9.22526 41.4277C10.8919 41.4277 12.3086 40.5789 13.1419 39.3057C13.9753 40.5789 15.4753 41.4277 17.0586 41.4277C18.7253 41.4277 20.1419 40.5789 20.9753 39.3057C21.8086 40.5789 23.3086 41.4277 24.8919 41.4277C26.4753 41.4277 27.9753 40.5789 28.8086 39.3057C29.6419 40.5789 31.1419 41.4277 32.7253 41.4277C34.3919 41.4277 35.8086 40.5789 36.6419 39.3057C37.4753 40.5789 38.9753 41.4277 40.5586 41.4277C41.7253 41.4277 42.8086 41.0033 43.6419 40.2394V44.9078C43.6419 46.6903 42.2253 48.0484 40.5586 48.0484C38.8086 48.0484 37.4753 46.6054 37.4753 44.9078C37.4753 44.3985 37.1419 43.9741 36.6419 43.9741ZM34.1419 1.78843V5.35342C34.1419 6.79639 32.9753 7.89984 31.6419 7.89984C30.3086 7.89984 29.1419 6.71151 29.1419 5.35342C29.1419 4.84414 28.8086 4.50461 28.3086 4.50461C27.8086 4.50461 27.4753 4.84414 27.4753 5.35342C27.4753 6.79639 26.3086 7.89984 24.9753 7.89984C23.5586 7.89984 22.4753 6.71151 22.4753 5.35342C22.4753 4.84414 22.1419 4.50461 21.6419 4.50461C21.1419 4.50461 20.8086 4.84414 20.8086 5.35342C20.8086 6.79639 19.6419 7.89984 18.3086 7.89984C16.9753 7.89984 15.8086 6.71151 15.8086 5.35342V1.78843H34.1419V1.78843ZM15.5586 8.74865C16.2253 9.34281 17.1419 9.68233 18.0586 9.68233C19.4753 9.68233 20.6419 9.00329 21.3919 7.89984C22.1419 8.91841 23.3919 9.68233 24.7253 9.68233C26.1419 9.68233 27.3086 9.00329 28.0586 7.89984C28.8086 8.91841 30.0586 9.68233 31.3919 9.68233C32.3086 9.68233 33.2253 9.34281 33.8919 8.83353V11.9741H15.5586V8.74865ZM40.8086 13.5868V19.9529C40.8086 21.3959 39.6419 22.4993 38.3086 22.4993C36.9753 22.4993 35.8086 21.311 35.8086 19.9529C35.8086 19.4436 35.4753 19.1041 34.9753 19.1041C34.4753 19.1041 34.1419 19.4436 34.1419 19.9529C34.1419 21.3959 32.9753 22.4993 31.6419 22.4993C30.3086 22.4993 29.1419 21.311 29.1419 19.9529C29.1419 19.4436 28.8086 19.1041 28.3086 19.1041C27.8086 19.1041 27.4753 19.4436 27.4753 19.9529C27.4753 21.3959 26.3086 22.4993 24.9753 22.4993C23.5586 22.4993 22.4753 21.311 22.4753 19.9529C22.4753 19.4436 22.1419 19.1041 21.6419 19.1041C21.1419 19.1041 20.8086 19.4436 20.8086 19.9529C20.8086 21.3959 19.6419 22.4993 18.3086 22.4993C16.9753 22.4993 15.8086 21.311 15.8086 19.9529C15.8086 19.4436 15.4753 19.1041 14.9753 19.1041C14.4753 19.1041 14.1419 19.4436 14.1419 19.9529C14.1419 21.3959 12.9753 22.4993 11.6419 22.4993C10.3086 22.4993 9.14193 21.311 9.14193 19.9529V13.6717H40.8086V13.5868ZM8.89193 23.2632C9.55859 23.8574 10.4753 24.1969 11.3919 24.1969C12.8086 24.1969 13.9753 23.5179 14.7253 22.4144C15.4753 23.433 16.7253 24.1969 18.0586 24.1969C19.4753 24.1969 20.6419 23.5179 21.3919 22.4144C22.1419 23.433 23.3919 24.1969 24.7253 24.1969C26.1419 24.1969 27.3086 23.5179 28.0586 22.4144C28.8086 23.433 30.0586 24.1969 31.3919 24.1969C32.7253 24.1969 33.9753 23.5179 34.7253 22.4144C35.4753 23.433 36.7253 24.1969 38.0586 24.1969C38.9753 24.1969 39.8919 23.8574 40.5586 23.3481V29.2898H8.89193V23.2632ZM43.7253 30.9025V36.5046C43.7253 38.2871 42.3086 39.6452 40.6419 39.6452C38.8919 39.6452 37.5586 38.2022 37.5586 36.5046C37.5586 35.9953 37.2253 35.6558 36.7253 35.6558C36.2253 35.6558 35.8919 35.9953 35.8919 36.5046C35.8919 38.2871 34.4753 39.6452 32.8086 39.6452C31.0586 39.6452 29.7253 38.2022 29.7253 36.5046C29.7253 35.9953 29.3919 35.6558 28.8919 35.6558C28.3919 35.6558 28.0586 35.9953 28.0586 36.5046C28.0586 38.2871 26.6419 39.6452 24.9753 39.6452C23.3086 39.6452 21.8919 38.2022 21.8919 36.5046C21.8919 35.9953 21.5586 35.6558 21.0586 35.6558C20.5586 35.6558 20.2253 35.9953 20.2253 36.5046C20.2253 38.2871 18.8086 39.6452 17.1419 39.6452C15.3919 39.6452 14.0586 38.2022 14.0586 36.5046C14.0586 35.9953 13.7253 35.6558 13.2253 35.6558C12.7253 35.6558 12.3919 35.9953 12.3919 36.5046C12.3919 38.2871 10.9753 39.6452 9.30859 39.6452C7.55859 39.6452 6.22526 38.2022 6.22526 36.5046V30.9874H43.7253V30.9025ZM5.97526 48.4728C6.80859 49.2367 7.89193 49.6611 9.05859 49.6611C10.7253 49.6611 12.1419 48.8123 12.9753 47.5391C13.8086 48.8123 15.3086 49.6611 16.8919 49.6611C18.5586 49.6611 19.9753 48.8123 20.8086 47.5391C21.6419 48.8123 23.1419 49.6611 24.7253 49.6611C26.3086 49.6611 27.8086 48.8123 28.6419 47.5391C29.4753 48.8123 30.9753 49.6611 32.5586 49.6611C34.2253 49.6611 35.6419 48.8123 36.4753 47.5391C37.3086 48.8123 38.8086 49.6611 40.3919 49.6611C41.5586 49.6611 42.6419 49.2367 43.4753 48.4728V54.7539H5.97526V48.4728ZM2.55859 57.2155C2.55859 56.876 2.89193 56.5364 3.22526 56.5364H46.5586C46.8919 56.5364 47.2253 56.876 47.2253 57.2155V58.3189C47.2253 58.6585 46.8919 58.998 46.5586 58.998H3.22526C2.89193 58.998 2.55859 58.6585 2.55859 58.3189V57.2155V57.2155Z" fill="#E58383"/>
</svg>
