<svg width="56" height="54" viewBox="0 0 56 54" fill="none" xmlns="http://www.w3.org/2000/svg">
<path d="M54.0606 37.7484C53.2864 33.6837 49.7056 30.7803 45.544 30.7803H38.7695C34.608 30.7803 31.0271 33.7804 30.2529 37.7484C29.1883 38.0387 28.4141 39.0065 28.4141 40.1679C28.4141 40.8453 28.7044 41.426 29.0915 41.9099C28.7044 42.3938 28.4141 42.9745 28.4141 43.652C28.4141 44.8133 29.1883 45.7811 30.2529 46.0714C31.0271 50.1362 34.608 53.0396 38.7695 53.0396H45.544C49.7056 53.0396 53.2864 50.0394 54.0606 46.0714C55.1252 45.7811 55.8995 44.8133 55.8995 43.652C55.8995 42.9745 55.6091 42.3938 55.222 41.9099C55.6091 41.426 55.8995 40.8453 55.8995 40.1679C55.8995 39.1033 55.1252 38.0387 54.0606 37.7484ZM38.7695 32.5223H45.544C48.7378 32.5223 51.4476 34.6515 52.3186 37.6516H52.0283L51.8347 37.4581C51.3508 36.9742 50.7701 36.7806 50.1895 36.7806H49.7056C49.1249 36.7806 48.5442 36.9742 48.0603 37.4581C47.9635 37.5548 47.77 37.6516 47.6732 37.6516H47.1893C46.9957 37.6516 46.899 37.5548 46.8022 37.4581C46.3183 36.9742 45.7376 36.7806 45.1569 36.7806H44.673C44.0924 36.7806 43.5117 36.9742 43.0278 37.4581C42.931 37.5548 42.7374 37.6516 42.6407 37.6516H42.1568C41.9632 37.6516 41.8664 37.5548 41.7696 37.4581C41.2857 36.9742 40.7051 36.7806 40.1244 36.7806H39.6405C39.0598 36.7806 38.4791 36.9742 37.9952 37.4581C37.8985 37.5548 37.7049 37.6516 37.6081 37.6516H37.1242C36.9307 37.6516 36.8339 37.5548 36.7371 37.4581C36.2532 36.9742 35.6725 36.7806 35.0919 36.7806H34.608C34.0273 36.7806 33.4466 36.9742 32.9627 37.4581L32.382 37.6516H32.0917C32.8659 34.6515 35.5757 32.5223 38.7695 32.5223ZM31.0271 39.3937H33.0595L33.7369 38.7162C33.8337 38.6194 34.0273 38.5226 34.1241 38.5226H34.608C34.8015 38.5226 34.8983 38.6194 34.9951 38.7162C35.479 39.2001 36.0596 39.3937 36.6403 39.3937H37.221C37.8017 39.3937 38.3824 39.2001 38.8663 38.7162C38.963 38.6194 39.1566 38.5226 39.2534 38.5226H39.7373C39.9308 38.5226 40.0276 38.6194 40.1244 38.7162C40.6083 39.2001 41.189 39.3937 41.7696 39.3937H42.2535C42.8342 39.3937 43.4149 39.2001 43.8988 38.7162C43.9956 38.6194 44.1891 38.5226 44.2859 38.5226H44.9634C45.1569 38.5226 45.2537 38.6194 45.3505 38.7162C45.8344 39.2001 46.4151 39.3937 46.9957 39.3937H47.4796C48.0603 39.3937 48.641 39.2001 49.1249 38.7162C49.2217 38.6194 49.4152 38.5226 49.512 38.5226H49.9959C50.1895 38.5226 50.2862 38.6194 50.383 38.7162L51.0605 39.3937H53.0929C53.5767 39.3937 53.9639 39.7808 53.9639 40.2647C53.9639 40.7486 53.5767 41.1357 53.0929 41.1357H31.0271C30.5432 41.1357 30.1561 40.7486 30.1561 40.2647C30.1561 39.7808 30.5432 39.3937 31.0271 39.3937ZM45.544 51.3943H38.7695C35.5757 51.3943 32.8659 49.2652 31.9949 46.265H52.2218C51.4476 49.2652 48.7378 51.3943 45.544 51.3943ZM53.2864 44.523H31.0271C30.5432 44.523 30.1561 44.1359 30.1561 43.652C30.1561 43.1681 30.5432 42.7809 31.0271 42.7809H53.3832C53.8671 42.7809 54.2542 43.1681 54.2542 43.652C54.1574 44.1359 53.7703 44.523 53.2864 44.523Z" fill="#57B6BB"/>
<path d="M29.2856 46.4955H25.8016V21.5351H37.1248V29.9462C37.4151 29.9462 37.7054 29.9462 37.9958 29.9462C38.3829 29.9462 38.6732 29.9462 38.9636 30.043V21.632H40.8024C41.2863 21.632 41.7702 21.1481 41.7702 20.6642V12.0508C41.7702 11.5669 41.2863 11.083 40.8024 11.083H30.0599C30.9309 10.1152 31.5115 8.76023 31.5115 7.30854C31.5115 4.21159 28.9953 1.69533 25.8983 1.69533C24.0595 1.69533 22.4143 2.56634 21.4465 3.92125C20.3819 1.98566 18.3495 0.727539 16.0268 0.727539C12.6395 0.727539 9.92971 3.43735 9.92971 6.82464C9.92971 8.46989 10.6072 9.92161 11.6717 11.083H1.41311C0.92921 11.083 0.445312 11.5669 0.445312 12.0508V20.4706C0.445312 20.9545 0.92921 21.4384 1.41311 21.4384H3.25192V47.3665C3.25192 47.8504 3.73582 48.3343 4.21971 48.3343H29.9631C29.6727 47.7536 29.4792 47.173 29.2856 46.4955ZM39.9314 13.0186V19.5996H25.8016V13.0186H39.9314ZM22.1239 7.40535C22.1239 5.2762 23.7692 3.63093 25.8983 3.63093C28.0275 3.63093 29.6727 5.2762 29.6727 7.40535C29.6727 9.5345 28.0275 11.1797 25.8983 11.1797H22.1239V7.40535ZM15.93 2.66313C18.2527 2.66313 20.1883 4.50197 20.1883 6.92145V11.1797H15.93C13.6073 11.1797 11.6717 9.34094 11.6717 6.92145C11.7685 4.59874 13.6073 2.66313 15.93 2.66313ZM16.4139 46.4955H5.18751V21.5351H16.5107V46.4955H16.4139ZM16.4139 19.5996H2.28412V13.0186H16.4139V19.5996ZM23.9627 46.4955H18.3495V21.5351H23.9627V46.4955ZM23.9627 19.5996H18.3495V13.0186H23.9627V19.5996Z" fill="#57B6BB"/>
</svg>
