<svg width="58" height="58" viewBox="0 0 58 58" fill="none" xmlns="http://www.w3.org/2000/svg">
<path d="M57.4461 28.954V21.6459H45.4791C45.7532 21.3718 46.0272 21.0978 46.2099 20.7323H47.8542C50.138 20.7323 51.965 18.9053 51.965 16.6215C51.965 14.3378 50.138 12.5107 47.8542 12.5107H47.3975H46.484H34.6083V17.0783C34.6083 18.9053 35.3391 20.4583 36.5267 21.6459H26.3867V28.954H28.2137V27.1269H29.4927L31.3197 30.781H32.7813V53.6188C32.7813 54.6236 31.9591 55.4458 30.9543 55.4458C29.9494 55.4458 29.1273 54.6236 29.1273 53.6188H27.3002C27.3002 55.6285 28.9446 57.2728 30.9543 57.2728C32.964 57.2728 34.6083 55.6285 34.6083 53.6188V40.8296H49.2245V53.6188C49.2245 55.6285 50.8688 57.2728 52.8786 57.2728C54.8883 57.2728 56.5326 55.6285 56.5326 53.6188H54.7056C54.7056 54.6236 53.8834 55.4458 52.8786 55.4458C51.8737 55.4458 51.0515 54.6236 51.0515 53.6188V30.781H52.5132L54.3402 27.1269H55.6191V28.954H57.4461V28.954ZM47.8542 14.3378C49.1332 14.3378 50.138 15.3426 50.138 16.6215C50.138 17.9005 49.1332 18.9053 47.8542 18.9053H47.1234C47.3061 18.3572 47.3975 17.7178 47.3975 17.0783V14.3378H47.8542ZM36.4353 17.0783V14.3378H45.5705V17.0783C45.5705 19.6361 43.5607 21.6459 41.0029 21.6459C38.4451 21.6459 36.4353 19.6361 36.4353 17.0783ZM34.6083 39.0026V37.1756H49.2245V39.0026H34.6083ZM49.2245 35.3485H34.6083V30.781H49.2245V35.3485ZM51.4169 28.954H32.4159L31.5024 27.1269H52.3305L51.4169 28.954ZM28.2137 25.2999V23.4729H55.6191V25.2999H28.2137Z" fill="#8A8CDC"/>
<path d="M22.7329 54.5323C22.7329 55.0804 22.3675 55.4458 21.8194 55.4458C21.2713 55.4458 20.9059 55.0804 20.9059 54.5323V39.9161H21.8194C22.8242 39.9161 23.6464 39.0939 23.6464 38.0891V36.262C23.6464 35.2572 22.8242 34.435 21.8194 34.435H7.20318L6.28966 15.2513C6.28966 13.6983 5.1021 12.5107 3.54913 12.5107C1.99616 12.5107 0.808594 13.6983 0.808594 15.2513V16.1648H2.63562V15.2513C2.63562 14.7032 3.00102 14.3378 3.54913 14.3378C4.09724 14.3378 4.46264 14.7032 4.46264 15.2513L5.37615 35.3485V39.9161H7.20318V54.5323C7.20318 55.0804 6.83777 55.4458 6.28966 55.4458C5.74156 55.4458 5.37615 55.0804 5.37615 54.5323V53.6188H3.54913V54.5323C3.54913 56.0853 4.73669 57.2728 6.28966 57.2728C7.84263 57.2728 9.0302 56.0853 9.0302 54.5323V39.9161H19.0788V54.5323C19.0788 56.0853 20.2664 57.2728 21.8194 57.2728C23.3723 57.2728 24.5599 56.0853 24.5599 54.5323V53.6188H22.7329V54.5323ZM7.20318 36.262H21.8194V38.0891H7.20318V36.262Z" fill="#8A8CDC"/>
<path d="M37.351 5.75079C36.8029 6.2989 36.4375 7.12106 36.4375 7.94322C36.4375 8.76538 36.8029 9.58754 37.351 10.1356L38.5386 11.3232L39.8175 10.0443L38.6299 8.85673C38.3559 8.58268 38.2645 8.30862 38.2645 7.94322C38.2645 7.57782 38.3559 7.30376 38.6299 7.02971L39.178 6.4816C39.7261 5.93349 40.0915 5.11133 40.0915 4.28917C40.0915 3.46701 39.7261 2.64485 39.178 2.09674L37.9905 0.90918L36.7116 2.1881L37.8991 3.37566C38.1732 3.64972 38.2645 3.92377 38.2645 4.28917C38.2645 4.65458 38.1732 4.92863 37.8991 5.20268L37.351 5.75079Z" fill="#8A8CDC"/>
<path d="M42.8315 5.75079C42.2834 6.2989 41.918 7.12106 41.918 7.94322C41.918 8.76538 42.2834 9.58754 42.8315 10.1356L44.019 11.3232L45.298 10.0443L44.1104 8.85673C43.8363 8.58268 43.745 8.30862 43.745 7.94322C43.745 7.57782 43.8363 7.30376 44.1104 7.02971L44.6585 6.4816C45.2066 5.93349 45.572 5.11133 45.572 4.28917C45.572 3.46701 45.2066 2.64485 44.6585 2.09674L43.4709 0.90918L42.192 2.1881L43.3796 3.37566C43.6536 3.64972 43.745 3.92377 43.745 4.28917C43.745 4.65458 43.6536 4.92863 43.3796 5.20268L42.8315 5.75079Z" fill="#8A8CDC"/>
</svg>
