<svg width="64" height="57" viewBox="0 0 64 57" fill="none" xmlns="http://www.w3.org/2000/svg">
<g clip-path="url(#clip0_1461_1463)">
<path d="M56.9304 22.2838C60.3427 30.0548 52.5587 40.9767 39.5454 46.691C26.4433 52.3708 13.1345 50.711 9.74922 43.0016C9.55964 42.5699 9.43174 42.1111 9.33092 41.714C7.23786 34.0993 14.888 24.0454 27.223 18.629C39.5579 13.2126 52.1371 14.3835 56.3542 21.139C56.4896 21.4474 56.7408 21.852 56.9304 22.2838Z" fill="#F7AD1A"/>
<path d="M56.2664 21.1047C56.6547 22.9941 55.9207 25.0084 55.5614 27.3732C55.202 29.738 54.1868 31.9494 51.7198 33.0327C50.4863 33.5743 49.3461 34.6635 48.6497 35.9257C47.5532 37.9521 45.4338 39.3242 43.2089 39.7862C41.2579 40.2015 39.2768 41.2186 37.6973 42.6478C35.0815 44.8999 32.3557 45.729 29.2313 45.4825C26.4077 45.2511 23.7044 45.6289 21.4029 46.4188C18.0258 47.6075 15.5798 47.0631 13.2088 45.0144C11.7646 43.7358 10.2016 43.0244 9.27029 41.7413C7.17723 34.1266 14.8274 24.0727 27.1624 18.6563C39.4702 13.1782 52.0494 14.3491 56.2664 21.1047Z" fill="#EE8034"/>
<path d="M55.1966 18.3365C56.1444 20.4952 55.218 22.7412 54.809 25.4956C54.4496 27.8604 53.4344 30.0718 50.9674 31.1551C49.7339 31.6967 48.5937 32.7859 47.8973 34.0481C46.7392 36.1016 44.6814 37.4466 42.4565 37.9086C40.5055 38.3239 38.5244 39.341 36.9449 40.7702C34.3291 43.0223 31.6034 43.8514 28.4789 43.6049C25.6553 43.3735 22.9521 43.7513 20.6776 44.6029C17.2388 45.8186 14.7657 45.2126 12.3948 43.1639C10.7188 41.6928 8.80078 40.843 8.0154 39.0544C5.09053 32.3935 13.2808 22.3968 26.2941 16.6824C39.3075 10.9681 52.2717 11.6757 55.1966 18.3365Z" fill="#F7ADBB"/>
<path d="M53.6226 14.2464C57.035 22.0174 49.2239 32.8776 36.2105 38.592C23.1972 44.3063 9.8884 42.6465 6.50312 34.9372C6.17814 34.1971 5.9765 33.4028 5.83654 32.5815C4.63856 25.1623 12.1353 15.7643 23.8535 10.6187C35.6334 5.446 47.6259 6.28602 52.3664 12.2232C52.8493 12.8204 53.2977 13.5063 53.6226 14.2464Z" fill="#EE8034"/>
<path d="M52.0728 12.0581C53.2091 19.5043 45.7123 28.9023 33.9324 34.075C22.2142 39.2206 10.2218 38.3806 5.50837 32.5051C4.34498 24.9972 11.8418 15.5992 23.56 10.4536C35.3399 5.2809 47.3323 6.12092 52.0728 12.0581Z" fill="#F7AD1A"/>
<path d="M27.2632 14.1972C29.237 16.3467 26.7989 21.6842 21.9027 26.1147C17.0065 30.5453 11.4512 32.4697 9.50451 30.3819C7.5307 28.2324 9.96879 22.8949 14.865 18.4643C19.7341 13.9721 25.3165 12.1093 27.2632 14.1972Z" fill="#FFC928"/>
<path d="M36.3725 17.8489C36.1258 17.9573 36.3154 18.389 36.5621 18.2807C36.8434 18.0836 36.6809 17.7135 36.3725 17.8489Z" fill="#EE8034"/>
<path d="M37.8435 13.1568C37.0417 13.5089 37.6105 14.8041 38.4122 14.452C39.214 14.0999 38.6453 12.8048 37.8435 13.1568Z" fill="#EE8034"/>
<path d="M31.2966 24.0504C30.4949 24.4025 31.0365 25.636 31.8383 25.2839C32.6401 24.9318 32.1601 23.6713 31.2966 24.0504Z" fill="#EE8034"/>
<path d="M21.6569 30.4156L21.5952 30.4427C21.3485 30.551 21.5381 30.9827 21.7848 30.8744L21.8464 30.8473C22.0931 30.739 21.9036 30.3073 21.6569 30.4156Z" fill="#EE8034"/>
<path d="M28.4711 20.8029C28.4094 20.83 28.4711 20.8029 28.4711 20.8029C28.1431 20.7262 27.9702 21.17 28.2364 21.2737C28.3869 21.2813 28.4756 21.3159 28.6606 21.2346C28.969 21.0992 28.7794 20.6675 28.4711 20.8029Z" fill="#EE8034"/>
<path d="M27.8374 11.1497C27.5907 11.258 27.7802 11.6898 28.0269 11.5814C28.2736 11.4731 28.0841 11.0414 27.8374 11.1497Z" fill="#EE8034"/>
<path d="M25.7942 30.954L25.6091 31.0353C24.8074 31.3873 25.349 32.6208 26.1508 32.2688L26.3358 32.1875C27.1993 31.8084 26.6576 30.5749 25.7942 30.954Z" fill="#EE8034"/>
<path d="M9.30539 30.7642C8.91577 30.7146 8.59989 31.0005 8.55028 31.3901C8.48109 31.5676 8.50066 31.7797 8.58191 31.9647C8.7444 32.3348 9.1611 32.4461 9.46948 32.3107C9.77785 32.1752 9.91622 31.8202 9.84249 31.4848C9.98086 31.1297 9.60626 30.7793 9.30539 30.7642Z" fill="#EE8034"/>
<path d="M40.742 25.1251C39.9402 25.4772 40.5089 26.7723 41.3107 26.4203C42.147 25.9795 41.6054 24.746 40.742 25.1251Z" fill="#EE8034"/>
</g>
<defs>
<clipPath id="clip0_1461_1463">
<rect width="51.7316" height="39.5397" fill="white" transform="translate(0 20.7988) rotate(-23.7069)"/>
</clipPath>
</defs>
</svg>
